<svg xmlns="http://www.w3.org/2000/svg" xmlns:xlink="http://www.w3.org/1999/xlink" width="21" height="17" viewBox="0 0 21 17">
    <defs>
        <path id="a" d="M.006.007H19.98v15.91H.006z"/>
    </defs>
    <g fill="none" fill-rule="evenodd">
        <g transform="translate(.472 .162)">
            <mask id="b" fill="#fff">
                <use xlink:href="#a"/>
            </mask>
            <path fill="#FFF" d="M6.799 15.244H1.603c-.574 0-1.039-.555-1.039-1.24V1.921c0-.685.465-1.24 1.039-1.24h16.774c.574 0 1.038.555 1.038 1.24v12.083c0 .685-.464 1.24-1.038 1.24h-6.17" mask="url(#b)"/>
            <path fill="#162C53" d="M18.377 15.918h-6.17c-.311 0-.564-.301-.564-.674 0-.372.253-.673.565-.673h6.169c.262 0 .474-.254.474-.567V1.921c0-.313-.212-.567-.474-.567H1.603c-.262 0-.475.254-.475.567v12.083c0 .312.213.567.475.567h5.196c.312 0 .564.3.564.673 0 .373-.252.674-.564.674H1.603C.719 15.918 0 15.059 0 14.004V1.921C0 .866.719.007 1.603.007h16.774c.883 0 1.602.859 1.602 1.914v12.083c0 1.055-.719 1.914-1.602 1.914z" mask="url(#b)"/>
        </g>
        <path fill="#F79521" d="M1.472 8.162h19v-4h-19z"/>
        <path fill="#019447" d="M19.944 8.162H2c-.292 0-.528-.28-.528-.625v-3.75c0-.346.236-.625.528-.625h17.944c.292 0 .528.28.528.625v3.75c0 .345-.236.625-.528.625zM2.528 6.912h16.888v-2.5H2.528v2.5z"/>
    </g>
</svg>
