<svg xmlns="http://www.w3.org/2000/svg" width="31" height="30" viewBox="0 0 31 30">
    <g fill="none" fill-rule="evenodd">
        <path fill="#FFF" d="M16.651 9.26h13.696L27.81 20.875H7.013L6 9.26h8.243"/>
        <path fill="#019447" d="M27.81 21.38H7.013a.506.506 0 0 1-.505-.462L5.494 9.304a.504.504 0 0 1 .505-.549h8.243a.506.506 0 1 1 0 1.01h-7.69l.926 10.605h19.924l2.315-10.605H16.65a.506.506 0 1 1 0-1.01h13.696a.508.508 0 0 1 .496.613l-2.537 11.614a.507.507 0 0 1-.496.398z"/>
        <path fill="#019447" d="M5.998 9.765a.506.506 0 0 1-.503-.45L5.037 5.22H1.434a.506.506 0 1 1 0-1.01h4.058c.258 0 .475.194.504.45l.507 4.544a.506.506 0 0 1-.505.561zM7.52 25.925a.507.507 0 0 1-.504-.45L6.51 20.93a.507.507 0 0 1 1.009-.112l.507 4.546a.506.506 0 0 1-.505.56z"/>
        <path fill="#EAF2EF" d="M10.057 27.44c0 1.115-.909 2.02-2.03 2.02A2.025 2.025 0 0 1 6 27.44c0-1.116.908-2.02 2.029-2.02 1.12 0 2.029.904 2.029 2.02z"/>
        <path fill="#019447" d="M8.028 29.965a2.534 2.534 0 0 1-2.536-2.525 2.533 2.533 0 0 1 2.536-2.525 2.534 2.534 0 0 1 2.536 2.525 2.534 2.534 0 0 1-2.536 2.525zm0-4.04a1.52 1.52 0 0 0-1.522 1.515 1.52 1.52 0 0 0 1.522 1.514c.839 0 1.522-.679 1.522-1.514a1.52 1.52 0 0 0-1.522-1.515z"/>
        <path fill="#EAF2EF" d="M27.303 27.44c0 1.115-.908 2.02-2.029 2.02-1.12 0-2.029-.905-2.029-2.02 0-1.116.909-2.02 2.03-2.02 1.12 0 2.028.904 2.028 2.02z"/>
        <path fill="#019447" d="M25.274 29.965a2.534 2.534 0 0 1-2.536-2.525 2.534 2.534 0 0 1 2.536-2.525 2.533 2.533 0 0 1 2.536 2.525 2.534 2.534 0 0 1-2.536 2.525zm0-4.04c-.839 0-1.521.68-1.521 1.515a1.52 1.52 0 0 0 1.521 1.514c.84 0 1.522-.679 1.522-1.514a1.52 1.52 0 0 0-1.522-1.515z"/>
        <path fill="#019447" d="M23.245 27.944H10.057a.506.506 0 1 1 0-1.01h13.188a.506.506 0 1 1 0 1.01z"/>
        <path fill="#BA222D" d="M27.077 9.765c0 4.928-3.986 8.923-8.904 8.923-4.918 0-8.905-3.995-8.905-8.923 0-4.927 3.987-8.922 8.905-8.922 4.918 0 8.904 3.995 8.904 8.922z"/>
        <path fill="#BD202E" d="M18.64 19.467c-5.356 0-9.714-4.366-9.714-9.733C8.926 4.366 13.284 0 18.64 0c5.357 0 9.714 4.366 9.714 9.734 0 5.367-4.357 9.733-9.714 9.733zm0-17.845c-4.463 0-8.095 3.64-8.095 8.112 0 4.472 3.632 8.11 8.095 8.11 4.464 0 8.095-3.638 8.095-8.11 0-4.473-3.631-8.112-8.095-8.112z"/>
        <text fill="#FFF" font-family="Aileron-Regular, Aileron" font-size="12" transform="translate(.926)">
            <tspan x="10.163" y="14.087">10</tspan>
        </text>
    </g>
</svg>
