<svg xmlns="http://www.w3.org/2000/svg" xmlns:xlink="http://www.w3.org/1999/xlink" width="29" height="21" viewBox="0 0 29 21">
    <defs>
        <path id="a" d="M0 .036h15.591V6.63H0z"/>
        <path id="c" d="M.014.035h8.702v8.744H.014z"/>
    </defs>
    <g fill="none" fill-rule="evenodd">
        <path fill="#FFFFFE" d="M3.778 16.53h9.595v-5.697H3.778z"/>
        <path fill="#162C53" d="M4.077 16.23h8.996v-5.097H4.077v5.097zm9.296.6H3.778a.3.3 0 0 1-.3-.3v-5.697a.3.3 0 0 1 .3-.3h9.595a.3.3 0 0 1 .3.3v5.697a.3.3 0 0 1-.3.3z"/>
        <g transform="translate(.779 10.498)">
            <mask id="b" fill="#fff">
                <use xlink:href="#a"/>
            </mask>
            <path fill="#00E7FF" d="M15.292 6.333H.3V2.99C.3 1.525 1.614.336 3.234.336l4.562 5.997L12.358.336c1.62 0 2.934 1.189 2.934 2.655v3.342" mask="url(#b)"/>
            <path fill="#162C53" d="M.6 6.033H7.19L3.088.639C1.703.707.6 1.736.6 2.99v3.042zm7.8 0h6.592V2.99c0-1.255-1.103-2.284-2.488-2.352L8.401 6.033zm6.892.6H.3a.3.3 0 0 1-.3-.3V2.99C0 1.361 1.45.036 3.234.036a.3.3 0 0 1 .239.118l4.323 5.683L12.119.154a.3.3 0 0 1 .24-.118c1.782 0 3.233 1.325 3.233 2.955v3.342a.3.3 0 0 1-.3.3z" mask="url(#b)"/>
        </g>
        <path fill="#FFFFFE" d="M12.773 5.248v3.023a1.962 1.962 0 0 1-1.962 1.963H6.339A1.962 1.962 0 0 1 4.377 8.27v-5.41c0-.4.324-.723.723-.723h6.95c.4 0 .723.323.723.722"/>
        <path fill="#162C53" d="M10.81 10.533H6.34a2.265 2.265 0 0 1-2.263-2.262v-5.41c0-.565.459-1.023 1.023-1.023h6.95c.564 0 1.023.458 1.023 1.022a.3.3 0 1 1-.6 0 .424.424 0 0 0-.423-.423H5.1a.423.423 0 0 0-.423.423v5.411c0 .917.746 1.663 1.662 1.663h4.472c.916 0 1.662-.746 1.662-1.663V5.248a.3.3 0 0 1 .6 0V8.27a2.265 2.265 0 0 1-2.262 2.262"/>
        <path fill="#F6D42F" d="M11.623 4.237H4.377V1.588c0-.69.56-1.25 1.25-1.25h8.046v1.849a2.05 2.05 0 0 1-2.05 2.05"/>
        <path fill="#162C53" d="M4.677 3.937h6.946c.965 0 1.75-.785 1.75-1.75V.638H5.627a.95.95 0 0 0-.95.95v2.349zm6.946.6H4.377a.3.3 0 0 1-.3-.3V1.588c0-.854.695-1.55 1.55-1.55h8.046a.3.3 0 0 1 .3.3v1.849a2.352 2.352 0 0 1-2.35 2.35z"/>
        <path fill="#019447" d="M5.277 12.932v-2.698h3.298l-3.298 2.698"/>
        <path fill="#162C53" d="M5.577 10.533V12.3l2.158-1.766H5.577zm-.3 2.699a.3.3 0 0 1-.3-.3v-2.698a.3.3 0 0 1 .3-.3h3.298a.3.3 0 0 1 .19.532l-3.298 2.698a.3.3 0 0 1-.19.068z"/>
        <path fill="#019447" d="M11.873 12.932v-2.698H8.575l3.298 2.698"/>
        <path fill="#162C53" d="M9.415 10.533l2.159 1.766v-1.766H9.415zm2.458 2.699a.3.3 0 0 1-.19-.068l-3.298-2.698a.3.3 0 0 1 .19-.532h3.298a.3.3 0 0 1 .3.3v2.698a.3.3 0 0 1-.3.3z"/>
        <g>
            <path fill="#019447" d="M14.295 14.695v1.64c0 .906 2.191 1.64 4.895 1.64 2.703 0 4.895-.734 4.895-1.64v-1.64h-9.79z"/>
            <path fill="#162C53" d="M19.19 18.249c-2.505 0-5.167-.67-5.167-1.914v-1.64c0-.15.121-.273.272-.273h9.79c.15 0 .272.122.272.273v1.64c0 1.243-2.662 1.914-5.167 1.914zm-4.623-3.28v1.366c0 .571 1.759 1.367 4.623 1.367 2.864 0 4.623-.796 4.623-1.367V14.97h-9.246z"/>
            <path fill="#FFF" d="M14.295 13.055v1.64c0 .906 2.191 1.64 4.895 1.64 2.703 0 4.895-.734 4.895-1.64v-1.64h-9.79z"/>
            <path fill="#162C53" d="M19.19 16.609c-2.505 0-5.167-.67-5.167-1.914v-1.64c0-.15.121-.273.272-.273h9.79c.15 0 .272.122.272.273v1.64c0 1.243-2.662 1.914-5.167 1.914zm-4.623-3.28v1.366c0 .571 1.759 1.367 4.623 1.367 2.864 0 4.623-.796 4.623-1.367V13.33h-9.246z"/>
            <path fill="#FBB315" d="M14.295 11.415v1.64c0 .906 2.191 1.64 4.895 1.64 2.703 0 4.895-.734 4.895-1.64v-1.64h-9.79z"/>
            <path fill="#162C53" d="M19.19 14.969c-2.505 0-5.167-.67-5.167-1.914v-1.64c0-.15.121-.273.272-.273h9.79c.15 0 .272.122.272.273v1.64c0 1.243-2.662 1.914-5.167 1.914zm-4.623-3.28v1.366c0 .571 1.759 1.367 4.623 1.367 2.864 0 4.623-.796 4.623-1.367V11.69h-9.246z"/>
            <path fill="#FFF" d="M14.2 9.782v1.64c0 .906 2.192 1.64 4.895 1.64 2.703 0 4.895-.734 4.895-1.64v-1.64H14.2z"/>
            <path fill="#162C53" d="M19.167 13.409c-2.505 0-5.167-.67-5.167-1.914v-1.64c0-.15.122-.273.272-.273h9.79c.15 0 .272.122.272.273v1.64c0 1.243-2.662 1.914-5.167 1.914zm-4.623-3.28v1.366c0 .571 1.759 1.367 4.623 1.367 2.864 0 4.623-.796 4.623-1.367V10.13h-9.246z"/>
            <path fill="#019447" d="M23.99 9.822c0-.906-2.192-1.64-4.895-1.64-2.704 0-4.895.734-4.895 1.64 0 .906 2.191 1.64 4.895 1.64 2.703 0 4.895-.734 4.895-1.64z"/>
            <path fill="#162C53" d="M19.167 11.809c-2.505 0-5.167-.67-5.167-1.914 0-1.242 2.662-1.913 5.167-1.913s5.167.67 5.167 1.913c0 1.243-2.662 1.914-5.167 1.914zm0-3.28c-2.864 0-4.623.796-4.623 1.366 0 .571 1.759 1.367 4.623 1.367 2.864 0 4.623-.796 4.623-1.367 0-.57-1.759-1.366-4.623-1.366z"/>
            <g transform="translate(20.263 12.2)">
                <mask id="d" fill="#fff">
                    <use xlink:href="#c"/>
                </mask>
                <path fill="#FFE600" d="M4.365.308C2.112.308.286 2.144.286 4.408c0 2.264 1.826 4.1 4.08 4.1 2.252 0 4.079-1.836 4.079-4.1 0-2.264-1.827-4.1-4.08-4.1z" mask="url(#d)"/>
                <path fill="#FFE600" d="M4.365 8.781c-2.399 0-4.35-1.961-4.35-4.373 0-2.411 1.951-4.373 4.35-4.373 2.4 0 4.351 1.962 4.351 4.373 0 2.412-1.952 4.373-4.35 4.373zm0-8.2C2.266.581.558 2.298.558 4.408s1.708 3.827 3.807 3.827c2.1 0 3.808-1.717 3.808-3.827S6.465.581 4.365.581z" mask="url(#d)"/>
            </g>
            <path fill="#019447" d="M24.629 13.329a3.272 3.272 0 0 0-3.264 3.28c0 1.811 1.461 3.28 3.264 3.28a3.272 3.272 0 0 0 3.263-3.28 3.272 3.272 0 0 0-3.263-3.28z"/>
            <path fill="#162C53" d="M24.629 20.162c-1.95 0-3.536-1.594-3.536-3.553 0-1.96 1.586-3.554 3.536-3.554 1.949 0 3.535 1.595 3.535 3.554 0 1.96-1.586 3.553-3.535 3.553zm0-6.56a3.002 3.002 0 0 0-2.992 3.007 3.002 3.002 0 0 0 2.992 3.006 3.002 3.002 0 0 0 2.99-3.006 3.002 3.002 0 0 0-2.99-3.007z"/>
            <text fill="#FFF" font-family="Aileron-Black, Aileron" font-size="5" font-weight="700" transform="translate(14 7.982)">
                <tspan x="9.129" y="10.427">P</tspan>
            </text>
        </g>
    </g>
</svg>
