<svg xmlns="http://www.w3.org/2000/svg" xmlns:xlink="http://www.w3.org/1999/xlink" width="35" height="22" viewBox="0 0 35 22">
    <defs>
        <path id="a" d="M.014.035h8.702v8.744H.014z"/>
    </defs>
    <g fill="none" fill-rule="evenodd">
        <path fill="#FFF" d="M2.69 17.588h17.434V8.99H2.69z"/>
        <path fill="#162C53" d="M20.124 17.962H2.69a.376.376 0 0 1-.379-.374v-4.579c0-.206.17-.374.38-.374.209 0 .378.168.378.374v4.205h16.677v-7.85H2.69a.376.376 0 0 1-.379-.373c0-.207.17-.374.38-.374h17.434c.21 0 .38.167.38.374v8.597c0 .207-.17.374-.38.374z"/>
        <path fill="#00E7FF" d="M5.343 13.85h4.927V9.739H5.343z"/>
        <path fill="#00E7FF" d="M10.27 14.224H5.342a.376.376 0 0 1-.379-.374V9.739c0-.207.17-.374.38-.374h4.927c.21 0 .379.167.379.374v4.111c0 .207-.17.374-.38.374zm-4.549-.748h4.17v-3.364H5.72v3.364z"/>
        <path fill="#FFF" d="M13.302 17.588h4.548V9.365h-4.548z"/>
        <path fill="#162C53" d="M17.85 17.962h-4.548a.376.376 0 0 1-.38-.374V9.365c0-.207.17-.374.38-.374h4.548c.21 0 .38.167.38.374v8.223c0 .207-.17.374-.38.374zm-4.17-.748h3.791V9.74h-3.79v7.475z"/>
        <path fill="#019447" d="M5.342 11.234c-.837 0-1.516-.67-1.516-1.495V.394H6.86V9.74c0 .825-.68 1.495-1.517 1.495z"/>
        <path fill="#162C53" d="M5.342 11.608c-1.044 0-1.895-.84-1.895-1.87V.395c0-.206.17-.374.38-.374h3.032c.21 0 .379.168.379.374V9.74c0 1.03-.85 1.869-1.896 1.869zM4.205.768v8.97c0 .619.51 1.122 1.137 1.122A1.13 1.13 0 0 0 6.48 9.739V.768H4.205z"/>
        <path fill="#F79521" d="M8.375 11.234c-.838 0-1.516-.67-1.516-1.495V.394H9.89V9.74c0 .825-.679 1.495-1.516 1.495z"/>
        <path fill="#162C53" d="M8.375 11.608c-1.045 0-1.895-.84-1.895-1.87V.395c0-.206.169-.374.379-.374H9.89c.21 0 .379.168.379.374V9.74c0 1.03-.85 1.869-1.895 1.869zM7.238.768v8.97c0 .619.51 1.122 1.137 1.122a1.13 1.13 0 0 0 1.137-1.121V.768H7.238z"/>
        <path fill="#F79521" d="M2.31 11.234c-.837 0-1.516-.67-1.516-1.495L1.552.394h2.274V9.74c0 .825-.678 1.495-1.516 1.495z"/>
        <path fill="#162C53" d="M2.31 11.608c-1.045 0-1.895-.84-1.895-1.87l.76-9.374A.377.377 0 0 1 1.551.02h2.274c.21 0 .38.168.38.374V9.74c0 1.03-.85 1.869-1.896 1.869zM1.902.768l-.73 9c.001.589.511 1.092 1.138 1.092a1.13 1.13 0 0 0 1.137-1.121V.768H1.902z"/>
        <path fill="#019447" d="M11.407 11.234c-.838 0-1.516-.67-1.516-1.495V.394h3.032V9.74c0 .825-.68 1.495-1.516 1.495z"/>
        <path fill="#162C53" d="M11.407 11.608c-1.045 0-1.895-.84-1.895-1.87V.395c0-.206.17-.374.379-.374h3.032c.21 0 .379.168.379.374V9.74c0 1.03-.85 1.869-1.895 1.869zM10.27.768v8.97c0 .619.51 1.122 1.137 1.122a1.13 1.13 0 0 0 1.137-1.121V.768H10.27z"/>
        <path fill="#F79521" d="M14.439 11.234c-.837 0-1.516-.67-1.516-1.495V.394h3.032V9.74c0 .825-.679 1.495-1.516 1.495z"/>
        <path fill="#162C53" d="M14.439 11.608c-1.045 0-1.895-.84-1.895-1.87V.395c0-.206.17-.374.379-.374h3.032c.21 0 .379.168.379.374V9.74c0 1.03-.85 1.869-1.895 1.869zM13.302.768v8.97c0 .619.51 1.122 1.137 1.122a1.13 1.13 0 0 0 1.137-1.121V.768h-2.274z"/>
        <path fill="#F79521" d="M20.503 11.234c-.837 0-1.516-.67-1.516-1.495V.394h2.274l.758 9.345c0 .825-.678 1.495-1.516 1.495z"/>
        <path fill="#162C53" d="M20.503 11.608c-1.045 0-1.895-.84-1.895-1.87V.395c0-.206.17-.374.38-.374h2.273c.198 0 .362.15.378.344l.758 9.345a1.89 1.89 0 0 1-1.894 1.899zM19.366.768v8.97c0 .619.51 1.122 1.137 1.122a1.13 1.13 0 0 0 1.137-1.121L20.911.768h-1.545z"/>
        <path fill="#019447" d="M17.471 11.234c-.837 0-1.516-.67-1.516-1.495V.394h3.032V9.74c0 .825-.679 1.495-1.516 1.495z"/>
        <path fill="#162C53" d="M17.471 11.608c-1.045 0-1.895-.84-1.895-1.87V.395c0-.206.17-.374.379-.374h3.032c.21 0 .38.168.38.374V9.74c0 1.03-.851 1.869-1.896 1.869zM16.334.768v8.97c0 .619.51 1.122 1.137 1.122a1.13 1.13 0 0 0 1.137-1.121V.768h-2.274z"/>
        <path fill="#019447" d="M16.713 13.85h-.758a.376.376 0 0 1-.379-.374c0-.206.17-.373.379-.373h.758c.21 0 .38.167.38.373 0 .207-.17.374-.38.374z"/>
        <g>
            <path fill="#019447" d="M19.42 15.695v1.64c0 .906 2.191 1.64 4.895 1.64 2.703 0 4.895-.734 4.895-1.64v-1.64h-9.79z"/>
            <path fill="#162C53" d="M24.315 19.249c-2.505 0-5.167-.67-5.167-1.914v-1.64c0-.15.121-.273.272-.273h9.79c.15 0 .272.122.272.273v1.64c0 1.243-2.662 1.914-5.167 1.914zm-4.623-3.28v1.366c0 .571 1.759 1.367 4.623 1.367 2.864 0 4.623-.796 4.623-1.367V15.97h-9.246z"/>
            <path fill="#FFF" d="M19.42 14.055v1.64c0 .906 2.191 1.64 4.895 1.64 2.703 0 4.895-.734 4.895-1.64v-1.64h-9.79z"/>
            <path fill="#162C53" d="M24.315 17.609c-2.505 0-5.167-.67-5.167-1.914v-1.64c0-.15.121-.273.272-.273h9.79c.15 0 .272.122.272.273v1.64c0 1.243-2.662 1.914-5.167 1.914zm-4.623-3.28v1.366c0 .571 1.759 1.367 4.623 1.367 2.864 0 4.623-.796 4.623-1.367V14.33h-9.246z"/>
            <path fill="#FBB315" d="M19.42 12.415v1.64c0 .906 2.191 1.64 4.895 1.64 2.703 0 4.895-.734 4.895-1.64v-1.64h-9.79z"/>
            <path fill="#162C53" d="M24.315 15.969c-2.505 0-5.167-.67-5.167-1.914v-1.64c0-.15.121-.273.272-.273h9.79c.15 0 .272.122.272.273v1.64c0 1.243-2.662 1.914-5.167 1.914zm-4.623-3.28v1.366c0 .571 1.759 1.367 4.623 1.367 2.864 0 4.623-.796 4.623-1.367V12.69h-9.246z"/>
            <path fill="#FFF" d="M19.325 10.782v1.64c0 .906 2.192 1.64 4.895 1.64 2.703 0 4.895-.734 4.895-1.64v-1.64h-9.79z"/>
            <path fill="#162C53" d="M24.292 14.409c-2.505 0-5.167-.67-5.167-1.914v-1.64c0-.15.122-.273.272-.273h9.79c.15 0 .272.122.272.273v1.64c0 1.243-2.662 1.914-5.167 1.914zm-4.623-3.28v1.366c0 .571 1.759 1.367 4.623 1.367 2.864 0 4.623-.796 4.623-1.367V11.13h-9.246z"/>
            <path fill="#019447" d="M29.115 10.822c0-.906-2.192-1.64-4.895-1.64-2.704 0-4.895.734-4.895 1.64 0 .906 2.191 1.64 4.895 1.64 2.703 0 4.895-.734 4.895-1.64z"/>
            <path fill="#162C53" d="M24.292 12.809c-2.505 0-5.167-.67-5.167-1.914 0-1.242 2.662-1.913 5.167-1.913s5.167.67 5.167 1.913c0 1.243-2.662 1.914-5.167 1.914zm0-3.28c-2.864 0-4.623.796-4.623 1.366 0 .571 1.759 1.367 4.623 1.367 2.864 0 4.623-.796 4.623-1.367 0-.57-1.759-1.366-4.623-1.366z"/>
            <g transform="translate(25.388 13.2)">
                <mask id="b" fill="#fff">
                    <use xlink:href="#a"/>
                </mask>
                <path fill="#FFE600" d="M4.365.308C2.112.308.286 2.144.286 4.408c0 2.264 1.826 4.1 4.08 4.1 2.252 0 4.079-1.836 4.079-4.1 0-2.264-1.827-4.1-4.08-4.1z" mask="url(#b)"/>
                <path fill="#FFE600" d="M4.365 8.781c-2.399 0-4.35-1.961-4.35-4.373 0-2.411 1.951-4.373 4.35-4.373 2.4 0 4.351 1.962 4.351 4.373 0 2.412-1.952 4.373-4.35 4.373zm0-8.2C2.266.581.558 2.298.558 4.408s1.708 3.827 3.807 3.827c2.1 0 3.808-1.717 3.808-3.827S6.465.581 4.365.581z" mask="url(#b)"/>
            </g>
            <path fill="#019447" d="M29.754 14.329a3.272 3.272 0 0 0-3.264 3.28c0 1.811 1.461 3.28 3.264 3.28a3.272 3.272 0 0 0 3.263-3.28 3.272 3.272 0 0 0-3.263-3.28z"/>
            <path fill="#162C53" d="M29.754 21.162c-1.95 0-3.536-1.594-3.536-3.553 0-1.96 1.586-3.554 3.536-3.554 1.949 0 3.535 1.595 3.535 3.554 0 1.96-1.586 3.553-3.535 3.553zm0-6.56a3.002 3.002 0 0 0-2.992 3.007 3.002 3.002 0 0 0 2.992 3.006 3.002 3.002 0 0 0 2.99-3.006 3.002 3.002 0 0 0-2.99-3.007z"/>
            <text fill="#FFF" font-family="Aileron-Black, Aileron" font-size="5" font-weight="700" transform="translate(19.125 8.982)">
                <tspan x="9.129" y="10.427">P</tspan>
            </text>
        </g>
    </g>
</svg>
