<svg xmlns="http://www.w3.org/2000/svg" xmlns:xlink="http://www.w3.org/1999/xlink" width="16" height="14" viewBox="0 0 16 14">
    <defs>
        <path id="a" d="M.014.035h8.702v8.744H.014z"/>
    </defs>
    <g fill="none" fill-rule="evenodd">
        <path fill="#019447" d="M.42 7.695v1.64c0 .906 2.191 1.64 4.895 1.64 2.703 0 4.895-.734 4.895-1.64v-1.64H.42z"/>
        <path fill="#162C53" d="M5.315 11.249c-2.505 0-5.167-.67-5.167-1.914v-1.64c0-.15.121-.273.272-.273h9.79c.15 0 .272.122.272.273v1.64c0 1.243-2.662 1.914-5.167 1.914zM.692 7.969v1.366c0 .571 1.759 1.367 4.623 1.367 2.864 0 4.623-.796 4.623-1.367V7.97H.692z"/>
        <path fill="#FFF" d="M.42 6.055v1.64c0 .906 2.191 1.64 4.895 1.64 2.703 0 4.895-.734 4.895-1.64v-1.64H.42z"/>
        <path fill="#162C53" d="M5.315 9.609c-2.505 0-5.167-.67-5.167-1.914v-1.64c0-.15.121-.273.272-.273h9.79c.15 0 .272.122.272.273v1.64c0 1.243-2.662 1.914-5.167 1.914zM.692 6.329v1.366c0 .571 1.759 1.367 4.623 1.367 2.864 0 4.623-.796 4.623-1.367V6.33H.692z"/>
        <path fill="#FBB315" d="M.42 4.415v1.64c0 .906 2.191 1.64 4.895 1.64 2.703 0 4.895-.734 4.895-1.64v-1.64H.42z"/>
        <path fill="#162C53" d="M5.315 7.969c-2.505 0-5.167-.67-5.167-1.914v-1.64c0-.15.121-.273.272-.273h9.79c.15 0 .272.122.272.273v1.64c0 1.243-2.662 1.914-5.167 1.914zM.692 4.689v1.366c0 .571 1.759 1.367 4.623 1.367 2.864 0 4.623-.796 4.623-1.367V4.69H.692z"/>
        <path fill="#FFF" d="M.325 2.782v1.64c0 .906 2.192 1.64 4.895 1.64 2.703 0 4.895-.734 4.895-1.64v-1.64H.325z"/>
        <path fill="#162C53" d="M5.292 6.409c-2.505 0-5.167-.67-5.167-1.914v-1.64c0-.15.122-.273.272-.273h9.79c.15 0 .272.122.272.273v1.64c0 1.243-2.662 1.914-5.167 1.914zM.669 3.129v1.366c0 .571 1.759 1.367 4.623 1.367 2.864 0 4.623-.796 4.623-1.367V3.13H.669z"/>
        <path fill="#019447" d="M10.115 2.822c0-.906-2.192-1.64-4.895-1.64-2.704 0-4.895.734-4.895 1.64 0 .906 2.191 1.64 4.895 1.64 2.703 0 4.895-.734 4.895-1.64z"/>
        <path fill="#162C53" d="M5.292 4.809c-2.505 0-5.167-.67-5.167-1.914C.125 1.653 2.787.982 5.292.982s5.167.67 5.167 1.913c0 1.243-2.662 1.914-5.167 1.914zm0-3.28c-2.864 0-4.623.796-4.623 1.366 0 .571 1.759 1.367 4.623 1.367 2.864 0 4.623-.796 4.623-1.367 0-.57-1.759-1.366-4.623-1.366z"/>
        <g transform="translate(6.388 5.2)">
            <mask id="b" fill="#fff">
                <use xlink:href="#a"/>
            </mask>
            <path fill="#FFE600" d="M4.365.308C2.112.308.286 2.144.286 4.408c0 2.264 1.826 4.1 4.08 4.1 2.252 0 4.079-1.836 4.079-4.1 0-2.264-1.827-4.1-4.08-4.1z" mask="url(#b)"/>
            <path fill="#FFE600" d="M4.365 8.781c-2.399 0-4.35-1.961-4.35-4.373 0-2.411 1.951-4.373 4.35-4.373 2.4 0 4.351 1.962 4.351 4.373 0 2.412-1.952 4.373-4.35 4.373zm0-8.2C2.266.581.558 2.298.558 4.408s1.708 3.827 3.807 3.827c2.1 0 3.808-1.717 3.808-3.827S6.465.581 4.365.581z" mask="url(#b)"/>
        </g>
        <path fill="#019447" d="M10.754 6.329a3.272 3.272 0 0 0-3.264 3.28c0 1.811 1.461 3.28 3.264 3.28a3.272 3.272 0 0 0 3.263-3.28 3.272 3.272 0 0 0-3.263-3.28z"/>
        <path fill="#162C53" d="M10.754 13.162c-1.95 0-3.536-1.594-3.536-3.553 0-1.96 1.586-3.554 3.536-3.554 1.949 0 3.535 1.595 3.535 3.554 0 1.96-1.586 3.553-3.535 3.553zm0-6.56A3.002 3.002 0 0 0 7.762 9.61a3.002 3.002 0 0 0 2.992 3.006 3.002 3.002 0 0 0 2.99-3.006 3.002 3.002 0 0 0-2.99-3.007z"/>
        <text fill="#FFF" font-family="Aileron-Black, Aileron" font-size="5" font-weight="700" transform="translate(.125 .982)">
            <tspan x="9.129" y="10.427">P</tspan>
        </text>
    </g>
</svg>
