<svg xmlns="http://www.w3.org/2000/svg" xmlns:xlink="http://www.w3.org/1999/xlink" width="21" height="21" viewBox="0 0 21 21">
    <defs>
        <path id="a" d="M0 .043h19.978v7.925H0z"/>
    </defs>
    <g fill="none" fill-rule="evenodd">
        <path fill="#FFFFFE" d="M4.55 21H16.7v-8.1H4.55z"/>
        <path fill="#049549" d="M5.265 20.229h10.72V13.67H5.265v6.558zM16.343 21H4.907c-.197 0-.357-.173-.357-.386v-7.328c0-.213.16-.386.357-.386h11.436c.197 0 .357.173.357.386v7.328c0 .213-.16.386-.357.386z"/>
        <g transform="translate(.5 12.9)">
            <mask id="b" fill="#fff">
                <use xlink:href="#a"/>
            </mask>
            <path fill="#E6F5ED" d="M19.596 7.61H.384V3.596c0-1.763 1.684-3.192 3.76-3.192L9.99 7.611 15.836.403c2.076 0 3.76 1.43 3.76 3.192v4.016" mask="url(#b)"/>
            <path fill="#049549" d="M.768 7.25h8.447L3.957.769C2.182.85.768 2.086.768 3.595v3.656zm9.997 0h8.446V3.596c0-1.509-1.414-2.745-3.188-2.827L10.765 7.25zm8.83.721H.386C.171 7.971 0 7.81 0 7.611V3.595C0 1.636 1.86.043 4.144.043c.12 0 .233.053.306.142l5.54 6.83 5.54-6.83a.394.394 0 0 1 .306-.142c2.285 0 4.144 1.593 4.144 3.552v4.016c0 .199-.172.36-.384.36z" mask="url(#b)"/>
        </g>
        <path fill="#FFFFFE" d="M16.7 6.25v4.033c0 1.445-1.13 2.617-2.524 2.617H8.424C7.03 12.9 5.9 11.728 5.9 10.283V3.064c0-.532.416-.964.93-.964h8.94c.514 0 .93.432.93.964"/>
        <path fill="#049549" d="M13.645 12.9h-6.04c-1.684 0-3.055-1.26-3.055-2.81V3.37c0-.7.62-1.27 1.381-1.27h9.388c.761 0 1.381.57 1.381 1.27 0 .206-.181.373-.405.373-.224 0-.405-.167-.405-.373 0-.29-.256-.525-.571-.525H5.93c-.315 0-.571.235-.571.525v6.72c0 1.14 1.007 2.065 2.245 2.065h6.04c1.238 0 2.245-.926 2.245-2.064V6.335c0-.205.181-.372.405-.372.224 0 .405.167.405.372v3.756c0 1.549-1.37 2.809-3.055 2.809"/>
        <path fill="#7ED321" d="M14.02 6.15H4.55V2.48c0-.955.731-1.73 1.633-1.73H16.7v2.56c0 1.569-1.2 2.84-2.68 2.84"/>
        <path fill="#049549" d="M5.286 5.43h8.529c1.185 0 2.149-.943 2.149-2.101V1.47H6.452c-.642 0-1.166.512-1.166 1.14v2.82zm8.529.72H4.918a.364.364 0 0 1-.368-.36V2.61c0-1.026.853-1.86 1.902-1.86h9.88c.203 0 .368.161.368.36v2.219c0 1.556-1.294 2.821-2.885 2.821z"/>
        <path fill="#FFFFFE" d="M5.9 15.6v-2.7h4.05L5.9 15.6"/>
        <path fill="#049549" d="M6.73 13.636v2.169l2.991-2.169h-2.99zm-.415 3.314a.46.46 0 0 1-.177-.035.368.368 0 0 1-.238-.333v-3.314c0-.203.186-.368.415-.368h4.57c.175 0 .332.098.39.244a.343.343 0 0 1-.127.41l-4.57 3.313a.45.45 0 0 1-.263.083z"/>
        <path fill="#FFFFFE" d="M15.35 15.6v-2.7H11.3l4.05 2.7"/>
        <path fill="#049549" d="M11.529 13.636l2.99 2.169v-2.169h-2.99zm3.406 3.314a.45.45 0 0 1-.263-.083l-4.57-3.314a.343.343 0 0 1-.128-.409.416.416 0 0 1 .392-.244h4.569c.229 0 .415.165.415.368v3.314a.368.368 0 0 1-.237.333.463.463 0 0 1-.178.035z"/>
    </g>
</svg>
