<svg xmlns="http://www.w3.org/2000/svg" width="25" height="29" viewBox="0 0 25 29">
    <g fill="none" fill-rule="evenodd">
        <path fill="#7ED321" d="M21.833 4.263H3.143c-.99 0-1.792.802-1.792 1.792v20.729c0 .99.802 1.791 1.792 1.791h18.69c.99 0 1.792-.802 1.792-1.791V6.054c0-.989-.803-1.79-1.792-1.79z"/>
        <path fill="#EFEDEE" d="M3.605 25.725h17.766V6.18H3.605z"/>
        <path fill="#7ED321" d="M17.508 2.807h-2.774a2.25 2.25 0 1 0-4.492 0H7.468a.974.974 0 0 0-.974.974v2.552c0 .538.436.974.974.974h10.04a.974.974 0 0 0 .974-.974V3.781a.974.974 0 0 0-.974-.974z"/>
        <path fill="#019447" d="M13.225 2.675a.737.737 0 1 1-1.474 0 .737.737 0 0 1 1.474 0zM8.908 5.597c.235 0 .425-.19.425-.425v-.647a.425.425 0 1 0-.85 0v.647c0 .235.19.425.425.425zM16.068 5.597c.234 0 .424-.19.424-.425v-.647a.425.425 0 1 0-.85 0v.647c0 .235.191.425.426.425zM12.488 5.943c.467 0 .905-.195 1.203-.536a.425.425 0 0 0-.64-.56.745.745 0 0 1-.563.246.745.745 0 0 1-.564-.245.425.425 0 1 0-.64.559c.298.34.737.536 1.204.536zM10.13 13.515a.425.425 0 0 0-.537-.269 8.388 8.388 0 0 0-2.655 1.449v-.554a.425.425 0 0 0-.85 0v.72c0 .646.783 1.008 1.274.586a7.488 7.488 0 0 1 2.5-1.395.424.424 0 0 0 .268-.537zM12.904 14.854h5.559a.425.425 0 1 0 0-.85h-5.56a.425.425 0 0 0 0 .85zM10.13 17.003a.425.425 0 0 0-.537-.27 8.391 8.391 0 0 0-2.655 1.45v-.554a.425.425 0 1 0-.85 0v.72c0 .646.782 1.008 1.274.586a7.485 7.485 0 0 1 2.5-1.395.424.424 0 0 0 .268-.537zM12.904 18.342h5.559a.425.425 0 1 0 0-.85h-5.56a.425.425 0 1 0 0 .85zM10.13 20.49a.425.425 0 0 0-.537-.268 8.39 8.39 0 0 0-2.655 1.45v-.555a.425.425 0 1 0-.85 0v.72c0 .645.782 1.008 1.274.586a7.487 7.487 0 0 1 2.5-1.395.424.424 0 0 0 .268-.537zM12.904 21.83h5.559a.425.425 0 1 0 0-.85h-5.56a.425.425 0 1 0 0 .85z"/>
        <path fill="#019447" d="M21.833 3.838h-2.926v-.057a1.4 1.4 0 0 0-1.4-1.399h-2.36A2.679 2.679 0 0 0 12.488 0a2.679 2.679 0 0 0-2.659 2.382h-2.36a1.4 1.4 0 0 0-1.4 1.4v.056H3.143A2.219 2.219 0 0 0 .926 6.055v2.77a.425.425 0 0 0 .85 0v-2.77c0-.754.613-1.367 1.367-1.367h2.926v1.067H3.605a.425.425 0 0 0-.425.425v19.545c0 .235.19.425.425.425h13.299a.425.425 0 0 0 0-.85H4.03V6.605h2.066v.003l.002.007a1.415 1.415 0 0 0 1.37 1.117h10.04a1.422 1.422 0 0 0 1.371-1.124l.001-.003h2.066V25.3h-2.343a.425.425 0 1 0 0 .85h2.768c.234 0 .425-.19.425-.425V6.18a.425.425 0 0 0-.425-.425h-2.464V4.688h2.926c.754 0 1.367.613 1.367 1.367v20.729c0 .753-.613 1.366-1.367 1.366H3.143a1.368 1.368 0 0 1-1.367-1.366v-16.26a.425.425 0 0 0-.85 0v16.26c0 1.222.995 2.216 2.217 2.216h18.69a2.219 2.219 0 0 0 2.216-2.216V6.054a2.219 2.219 0 0 0-2.216-2.216zM6.919 3.781a.55.55 0 0 1 .55-.549h2.773c.328 0 .42-.284.42-.557 0-1.007.82-1.825 1.826-1.825 1.006 0 1.825.818 1.825 1.825 0 .272.096.557.42.557h2.775a.55.55 0 0 1 .549.55V6.18c0 .106.007.214-.025.316a.55.55 0 0 1-.524.387H7.468a.55.55 0 0 1-.524-.387c-.032-.101-.025-.21-.025-.316V3.781z"/>
    </g>
</svg>
