<svg xmlns="http://www.w3.org/2000/svg" xmlns:xlink="http://www.w3.org/1999/xlink" width="17" height="17" viewBox="0 0 17 17">
    <defs>
        <path id="a" d="M0 0h17v17H0z"/>
    </defs>
    <g fill="none" fill-rule="evenodd">
        <mask id="b" fill="#fff">
            <use xlink:href="#a"/>
        </mask>
        <path fill="#019447" d="M13.47 10.538c-.35-.362-.771-.556-1.218-.556-.443 0-.867.19-1.231.552l-1.138 1.13c-.093-.051-.187-.098-.277-.144-.13-.065-.252-.126-.357-.19-1.065-.674-2.034-1.552-2.963-2.688-.45-.567-.752-1.044-.972-1.527.296-.269.57-.549.836-.818.1-.1.201-.204.302-.304.756-.753.756-1.728 0-2.48l-.983-.979c-.111-.111-.227-.226-.335-.34a17.025 17.025 0 0 0-.676-.667C4.108 1.183 3.69 1 3.252 1c-.44 0-.864.183-1.225.527l-.007.007-1.224 1.23A2.617 2.617 0 0 0 .015 4.43c-.087 1.047.223 2.022.46 2.66.584 1.566 1.455 3.017 2.755 4.573a16.932 16.932 0 0 0 5.642 4.398c.828.39 1.933.853 3.168.932.075.004.155.007.227.007.831 0 1.53-.297 2.077-.889.004-.007.01-.01.014-.018.188-.225.404-.43.63-.648.155-.148.314-.302.468-.463.357-.369.544-.8.544-1.24 0-.444-.19-.871-.554-1.23l-1.977-1.974zm1.288 3.774c-.004 0-.004.003 0 0-.14.15-.284.287-.44.437a9.443 9.443 0 0 0-.694.717c-.364.387-.792.57-1.354.57-.054 0-.111 0-.165-.004-1.07-.068-2.063-.484-2.809-.838a15.985 15.985 0 0 1-5.314-4.144C2.755 9.577 1.934 8.215 1.39 6.753 1.055 5.86.933 5.165.987 4.509c.036-.42.198-.767.497-1.065L2.71 2.222c.177-.165.364-.254.548-.254.227 0 .41.136.525.25l.011.011c.22.205.429.416.648.642l.342.348.983.978c.382.38.382.731 0 1.111-.104.104-.205.208-.31.308-.302.309-.59.596-.903.875-.007.007-.015.01-.018.018-.31.308-.252.61-.187.813l.01.033c.256.616.616 1.197 1.163 1.889l.004.003c.994 1.219 2.041 2.169 3.197 2.896.148.094.299.169.443.24.13.065.252.126.356.19l.043.026c.123.06.238.09.357.09.299 0 .486-.187.547-.248l1.231-1.226c.123-.122.317-.269.544-.269.223 0 .407.14.518.262l1.991 1.982c.371.366.371.742.004 1.122z" mask="url(#b)"/>
        <path fill="#F79521" d="M9.39 3.938a4.44 4.44 0 0 1 2.415 1.254 4.464 4.464 0 0 1 1.254 2.416.47.47 0 0 0 .466.392c.027 0 .052-.004.08-.007a.473.473 0 0 0 .389-.546 5.402 5.402 0 0 0-1.517-2.924 5.4 5.4 0 0 0-2.923-1.517.475.475 0 0 0-.547.386.468.468 0 0 0 .382.546zM16.993 7.444a9.04 9.04 0 0 0-2.539-4.897A9.034 9.034 0 0 0 9.558.007.479.479 0 0 0 9.006.4a.483.483 0 0 0 .396.556 8.088 8.088 0 0 1 4.376 2.269A8.07 8.07 0 0 1 16.046 7.6c.039.235.242.399.473.399a.472.472 0 0 0 .474-.556z" mask="url(#b)"/>
    </g>
</svg>
