<?xml version="1.0" encoding="UTF-8"?>
<svg width="20px" height="20px" viewBox="0 0 20 20" version="1.1" xmlns="http://www.w3.org/2000/svg" xmlns:xlink="http://www.w3.org/1999/xlink">
    <!-- Generator: Sketch 60.1 (88133) - https://sketch.com -->
    <title>Filter &amp; Sort</title>
    <desc>Created with Sketch.</desc>
    <g id="Product-List" stroke="none" stroke-width="1" fill="none" fill-rule="evenodd">
        <g id="Product-List---Search-by-Category-Lv2" transform="translate(-324.000000, -194.000000)" fill="#1E50A2">
            <g id="Filter-&amp;-Sort" transform="translate(324.000000, 194.000000)">
                <g id="Filter" transform="translate(-0.000000, 0.000000)">
                    <g id="Sort">
                        <g id="levels">
                            <path d="M0.702040816,10.4530612 L9.64081633,10.4530612 C9.95510204,11.7469388 11.122449,12.7102041 12.5142857,12.7102041 C13.9061224,12.7102041 15.0693878,11.7469388 15.3877551,10.4530612 L19.2979592,10.4530612 C19.6857143,10.4530612 20,10.1387755 20,9.75102041 C20,9.36326531 19.6857143,9.05306122 19.2979592,9.05306122 L15.3877551,9.05306122 C15.0734694,7.75918367 13.9061224,6.79591837 12.5142857,6.79591837 C11.122449,6.79591837 9.95918367,7.75918367 9.64081633,9.05306122 L0.702040816,9.05306122 C0.314285714,9.05306122 0,9.36734694 0,9.75102041 C0.00408163265,10.1428571 0.318367347,10.4530612 0.702040816,10.4530612 Z M12.5142857,8.2 C13.3714286,8.2 14.0693878,8.89795918 14.0693878,9.75510204 C14.0693878,10.6122449 13.3714286,11.3102041 12.5142857,11.3102041 C11.6571429,11.3102041 10.955102,10.6122449 10.955102,9.75510204 C10.955102,8.89795918 11.6530612,8.2 12.5142857,8.2 Z" id="Shape"></path>
                            <path d="M0.702040816,17.2408163 L4.99183673,17.2408163 C5.30612245,18.5346939 6.47346939,19.4979592 7.86530612,19.4979592 C9.25714286,19.4979592 10.4204082,18.5346939 10.7387755,17.2408163 L19.2979592,17.2408163 C19.6857143,17.2408163 20,16.9265306 20,16.5428571 C20,16.155102 19.6857143,15.8408163 19.2979592,15.8408163 L10.7387755,15.8408163 C10.4244898,14.5469388 9.25714286,13.5836735 7.86530612,13.5836735 C6.47346939,13.5836735 5.31020408,14.5469388 4.99183673,15.8408163 L0.702040816,15.8408163 C0.314285714,15.8408163 0,16.155102 0,16.5428571 C0.00408163265,16.9265306 0.318367347,17.2408163 0.702040816,17.2408163 Z M7.86530612,14.9836735 C8.72244898,14.9836735 9.42040816,15.6816327 9.42040816,16.5387755 C9.42040816,17.3959184 8.72244898,18.0938776 7.86530612,18.0938776 C7.02040816,18.0938776 6.33061224,17.4163265 6.31020408,16.5714286 C6.31020408,16.5591837 6.31020408,16.5469388 6.31020408,16.5346939 C6.31020408,16.522449 6.31020408,16.5102041 6.31020408,16.4979592 C6.33061224,15.6612245 7.02040816,14.9836735 7.86530612,14.9836735 Z" id="Shape"></path>
                            <path d="M0.702040816,3.66938776 L4.99183673,3.66938776 C5.30612245,4.96326531 6.47346939,5.92653061 7.86530612,5.92653061 C9.25714286,5.92653061 10.4204082,4.96326531 10.7387755,3.66938776 L19.2979592,3.66938776 C19.6857143,3.66938776 20,3.35510204 20,2.96734694 C20,2.57959184 19.6857143,2.26938776 19.2979592,2.26938776 L10.7387755,2.26938776 C10.4244898,0.975510204 9.25714286,0.012244898 7.86530612,0.012244898 C6.47346939,0.012244898 5.31020408,0.975510204 4.99183673,2.26938776 L0.702040816,2.26938776 C0.314285714,2.26938776 0,2.58367347 0,2.96734694 C0.00408163265,3.35510204 0.318367347,3.66938776 0.702040816,3.66938776 Z M7.86530612,1.4122449 C8.72244898,1.4122449 9.42040816,2.11020408 9.42040816,2.96734694 C9.42040816,3.8244898 8.72244898,4.52244898 7.86530612,4.52244898 C7.02040816,4.52244898 6.33061224,3.84489796 6.31020408,3 C6.31020408,2.9877551 6.31020408,2.9755102 6.31020408,2.96326531 C6.31020408,2.95102041 6.31020408,2.93877551 6.31020408,2.92653061 C6.33061224,2.09387755 7.02040816,1.4122449 7.86530612,1.4122449 Z" id="Shape"></path>
                        </g>
                    </g>
                </g>
            </g>
        </g>
    </g>
</svg>