<svg xmlns="http://www.w3.org/2000/svg" xmlns:xlink="http://www.w3.org/1999/xlink" width="39" height="30" viewBox="0 0 39 30">
    <defs>
        <path id="a" d="M.006.092h22.227v22.234H.006z"/>
    </defs>
    <g fill="none" fill-rule="evenodd">
        <g transform="translate(.167 .76)">
            <mask id="b" fill="#fff">
                <use xlink:href="#a"/>
            </mask>
            <path fill="#FFF" d="M20.368 6.076A10.576 10.576 0 0 0 11.117.63C5.274.63.538 5.367.538 11.209c0 2.873 1.15 5.474 3.008 7.38l-1.421 3.198 3.188-1.739a10.524 10.524 0 0 0 5.804 1.74c5.842 0 10.578-4.737 10.578-10.579" mask="url(#b)"/>
            <path fill="#049549" d="M2.125 22.326a.538.538 0 0 1-.492-.757l1.276-2.87A11.045 11.045 0 0 1 0 11.208C0 5.079 4.987.092 11.116.092c4.035 0 7.76 2.193 9.722 5.722a.539.539 0 0 1-.94.523 10.053 10.053 0 0 0-8.782-5.168c-5.536 0-10.04 4.503-10.04 10.04a9.981 9.981 0 0 0 2.856 7.004.538.538 0 0 1 .106.595l-.775 1.746 1.793-.979a.54.54 0 0 1 .554.023 9.99 9.99 0 0 0 5.507 1.65c5.535 0 10.04-4.503 10.04-10.04a.538.538 0 1 1 1.076 0c0 6.13-4.987 11.117-11.116 11.117-2.064 0-4.071-.57-5.825-1.653l-2.91 1.588a.54.54 0 0 1-.257.066z" mask="url(#b)"/>
        </g>
        <path fill="#7ED321" d="M8.109 11.968a1.057 1.057 0 1 1-2.115 0 1.057 1.057 0 0 1 2.115 0z"/>
        <path fill="#049549" d="M7.052 13.555a1.588 1.588 0 0 1-1.587-1.587c0-.875.712-1.586 1.587-1.586s1.587.711 1.587 1.586c0 .875-.712 1.587-1.587 1.587zm0-2.116a.53.53 0 1 0 0 1.06.53.53 0 0 0 0-1.06z"/>
        <path fill="#7ED321" d="M12.34 11.968a1.057 1.057 0 1 1-2.115 0 1.057 1.057 0 0 1 2.115 0z"/>
        <path fill="#049549" d="M11.283 13.555a1.588 1.588 0 0 1-1.586-1.587c0-.875.711-1.586 1.586-1.586.875 0 1.587.711 1.587 1.586 0 .875-.712 1.587-1.587 1.587zm0-2.116a.53.53 0 1 0 0 1.059.53.53 0 0 0 0-1.059z"/>
        <path fill="#7ED321" d="M16.572 11.968a1.057 1.057 0 1 1-2.115 0 1.057 1.057 0 0 1 2.115 0z"/>
        <path fill="#049549" d="M15.515 13.555a1.588 1.588 0 0 1-1.587-1.587c0-.875.712-1.586 1.587-1.586s1.586.711 1.586 1.586c0 .875-.711 1.587-1.586 1.587zm0-2.116a.53.53 0 1 0 0 1.059.53.53 0 0 0 0-1.059z"/>
        <path fill="#FFF" d="M27.679 8.22c5.842 0 10.578 4.736 10.578 10.578 0 2.873-1.15 5.475-3.008 7.38l1.421 3.199-3.188-1.74a10.525 10.525 0 0 1-5.803 1.74c-5.842 0-10.579-4.736-10.579-10.579 0-5.842 4.737-10.578 10.579-10.578z"/>
        <path fill="#049549" d="M36.67 29.906a.525.525 0 0 1-.253-.065l-2.914-1.59a11.055 11.055 0 0 1-5.824 1.655c-6.125 0-11.107-4.983-11.107-11.108 0-6.124 4.982-11.107 11.107-11.107 6.124 0 11.107 4.983 11.107 11.107a11.04 11.04 0 0 1-2.91 7.488l1.277 2.876a.53.53 0 0 1-.483.744zM27.68 8.749c-5.542 0-10.05 4.508-10.05 10.05 0 5.54 4.508 10.049 10.05 10.049 1.963 0 3.87-.571 5.512-1.652a.527.527 0 0 1 .544-.023l1.818.992-.787-1.771a.528.528 0 0 1 .105-.584 9.995 9.995 0 0 0 2.857-7.012c0-5.541-4.508-10.049-10.05-10.049z"/>
        <path fill="#7ED321" d="M35.612 18.799a7.934 7.934 0 1 1-15.867-.001 7.934 7.934 0 0 1 15.867 0z"/>
        <text fill="#FFF" font-family="Aileron-Black, Aileron" font-size="17" font-weight="700" transform="translate(.167 .76)">
            <tspan x="22.25" y="23.461">+</tspan>
        </text>
    </g>
</svg>
