<svg xmlns="http://www.w3.org/2000/svg" width="29" height="26" viewBox="0 0 29 26">
    <g fill="none" fill-rule="evenodd">
        <path fill="#FFF" d="M15.176 6.056H27.96L25.592 16.81H6.182L5.233 6.056h7.693"/>
        <path fill="#019447" d="M25.592 17.278H6.182a.47.47 0 0 1-.472-.427L4.763 6.096a.464.464 0 0 1 .122-.356.475.475 0 0 1 .35-.152h7.692a.47.47 0 0 1 .474.468.47.47 0 0 1-.474.467H5.751l.864 9.82H25.21l2.161-9.82H15.176a.47.47 0 0 1-.473-.467.47.47 0 0 1 .473-.468H27.96c.143 0 .279.064.368.174.09.11.125.255.095.393L26.054 16.91a.473.473 0 0 1-.462.369z"/>
        <path fill="#019447" d="M5.234 6.523a.471.471 0 0 1-.47-.416l-.427-3.792H.973A.47.47 0 0 1 .5 1.848a.47.47 0 0 1 .473-.468h3.788c.241 0 .444.179.47.416l.474 4.208a.47.47 0 0 1-.471.52zM6.654 21.486a.472.472 0 0 1-.47-.416l-.474-4.208a.47.47 0 0 1 .419-.517.473.473 0 0 1 .523.413l.473 4.209a.47.47 0 0 1-.47.519z"/>
        <path fill="#EAF2EF" d="M9.022 22.889c0 1.033-.848 1.87-1.894 1.87a1.882 1.882 0 0 1-1.894-1.87c0-1.033.848-1.87 1.894-1.87 1.046 0 1.894.837 1.894 1.87z"/>
        <path fill="#019447" d="M7.128 25.227c-1.305 0-2.367-1.05-2.367-2.338 0-1.29 1.062-2.338 2.367-2.338s2.367 1.049 2.367 2.338c0 1.289-1.062 2.338-2.367 2.338zm0-3.741c-.783 0-1.42.629-1.42 1.403 0 .773.637 1.402 1.42 1.402.783 0 1.42-.629 1.42-1.402 0-.774-.637-1.403-1.42-1.403z"/>
        <path fill="#EAF2EF" d="M25.118 22.889c0 1.033-.847 1.87-1.893 1.87a1.882 1.882 0 0 1-1.894-1.87c0-1.033.848-1.87 1.894-1.87 1.046 0 1.893.837 1.893 1.87z"/>
        <path fill="#019447" d="M23.225 25.227c-1.305 0-2.368-1.05-2.368-2.338 0-1.29 1.063-2.338 2.368-2.338s2.367 1.049 2.367 2.338c0 1.289-1.062 2.338-2.367 2.338zm0-3.741c-.784 0-1.42.629-1.42 1.403 0 .773.636 1.402 1.42 1.402.783 0 1.42-.629 1.42-1.402 0-.774-.637-1.403-1.42-1.403z"/>
        <path fill="#019447" d="M21.33 23.356H9.023a.47.47 0 0 1-.474-.467.47.47 0 0 1 .474-.468H21.33a.47.47 0 0 1 .473.468.47.47 0 0 1-.473.467z"/>
        <path fill="#F79521" d="M23.24 7.853c0 3.862-3.15 6.993-7.036 6.993-3.885 0-7.035-3.131-7.035-6.993 0-3.863 3.15-6.994 7.035-6.994 3.886 0 7.036 3.131 7.036 6.994z"/>
        <path fill="#F79521" d="M16.237 15.518c-4.232 0-7.675-3.422-7.675-7.629 0-4.207 3.443-7.63 7.675-7.63 4.233 0 7.675 3.423 7.675 7.63s-3.442 7.63-7.675 7.63zm0-13.987c-3.527 0-6.396 2.852-6.396 6.358 0 3.505 2.87 6.358 6.396 6.358 3.527 0 6.396-2.853 6.396-6.358 0-3.506-2.87-6.358-6.396-6.358z"/>
        <path fill="#FFF" d="M16.223 12.328a.637.637 0 0 1-.64-.636v-7.63c0-.35.286-.635.64-.635.354 0 .64.284.64.636v7.63a.637.637 0 0 1-.64.635z"/>
        <path fill="#FFF" d="M20.084 8.552H12.41a.638.638 0 0 1-.64-.636c0-.351.287-.636.64-.636h7.675c.354 0 .64.285.64.636a.637.637 0 0 1-.64.636z"/>
    </g>
</svg>
