<svg xmlns="http://www.w3.org/2000/svg" xmlns:xlink="http://www.w3.org/1999/xlink" width="34" height="31" viewBox="0 0 34 31">
    <defs>
        <path id="a" d="M.005.027H33.86V13.68H.005z"/>
    </defs>
    <g fill="none" fill-rule="evenodd">
        <g transform="translate(.167 16.556)">
            <mask id="b" fill="#fff">
                <use xlink:href="#a"/>
            </mask>
            <path fill="#FFFFFE" d="M28.399.573h3.31c.887 0 1.605.718 1.605 1.605v9.351c0 .886-.718 1.605-1.605 1.605H2.151a1.605 1.605 0 0 1-1.605-1.605V2.178c0-.887.719-1.605 1.605-1.605h21.492" mask="url(#b)"/>
            <path fill="#019447" d="M31.71 13.68H2.15A2.153 2.153 0 0 1 0 11.529V2.178C0 .99.965.027 2.151.027h21.492a.546.546 0 1 1 0 1.092H2.151a1.06 1.06 0 0 0-1.059 1.059v9.351a1.06 1.06 0 0 0 1.059 1.059h29.558a1.06 1.06 0 0 0 1.059-1.059V2.178a1.06 1.06 0 0 0-1.059-1.06H28.4a.546.546 0 1 1 0-1.091h3.31c1.187 0 2.151.964 2.151 2.15v9.352a2.153 2.153 0 0 1-2.15 2.151" mask="url(#b)"/>
        </g>
        <path fill="#019447" d="M30.204 26.96H3.99a.546.546 0 1 1 0-1.093h26.214a.546.546 0 1 1 0 1.092M25.835 20.406h-3.277a.546.546 0 1 1 0-1.093h3.277a.546.546 0 1 1 0 1.093M30.75 20.406h-3.277a.546.546 0 1 1 0-1.093h3.277a.546.546 0 1 1 0 1.093"/>
        <path fill="#E0F4C9" d="M6.174 17.129h22.392V.745H6.174z"/>
        <path fill="#019447" d="M28.566 17.675a.546.546 0 0 1-.547-.546V1.29H6.72v15.292h18.022a.546.546 0 1 1 0 1.092H6.174a.546.546 0 0 1-.546-.546V.745c0-.302.245-.546.546-.546h22.392c.301 0 .546.244.546.546v16.384a.546.546 0 0 1-.546.546l23.2-14.746"/>
        <path fill="#019447" d="M19.827 4.022H8.905a.546.546 0 1 1 0-1.093h10.922a.546.546 0 1 1 0 1.093M19.827 8.39H8.905a.546.546 0 1 1 0-1.092h10.922a.546.546 0 1 1 0 1.093M14.366 6.206H8.905a.546.546 0 1 1 0-1.092h5.461a.546.546 0 1 1 0 1.092M1.259 24.775h31.676v-3.277H1.259z"/>
    </g>
</svg>
