<?xml version="1.0" encoding="UTF-8"?>
<svg width="20px" height="16px" viewBox="0 0 20 16" version="1.1" xmlns="http://www.w3.org/2000/svg" xmlns:xlink="http://www.w3.org/1999/xlink">
    <!-- Generator: sketchtool 58 (101010) - https://sketch.com -->
    <title>E468F273-8B00-4966-951E-9B034B6E839D</title>
    <desc>Created with sketchtool.</desc>
    <g id="Symbols" stroke="none" stroke-width="1" fill="none" fill-rule="evenodd">
        <g id="Icon-Kategori-S/SayurBuah" transform="translate(-2.000000, -2.000000)">
            <g id="016-tomato" transform="translate(2.000000, 2.500000)">
                <path d="M2.83419872,2.5 C1.06011065,3.66160944 0,5.29627738 0,7.19600912 C0,11.0061528 4.26470396,13.75 10,13.75 C15.735296,13.75 20,11.0061528 20,7.19600912 C20,5.29627738 18.9398894,3.6618252 17.1658013,2.50021576" id="Fill-1" fill="#FFFFFF"></path>
                <path d="M10,15 C4.20567121,15 0,11.9425816 0,7.73016386 C0,5.6884302 1.0181274,3.83107498 2.86666793,2.50022904 L3.29582836,2.9900344 C1.61498684,4.19988914 0.689611628,5.8832873 0.689611628,7.72993481 C0.689611628,11.5800088 4.60528227,14.374602 10,14.374602 C15.3947177,14.374602 19.3103884,11.5800088 19.3103884,7.72993481 C19.3103884,5.8832873 18.3850132,4.19988914 16.7041716,2.98980536 L17.1332689,2.5 C18.9818726,3.83107498 20,5.6884302 20,7.72993481 C20,11.9425816 15.7942657,15 10,15 Z" id="Fill-2" fill="#162C53"></path>
                <path d="M13.75,8.125 C13.75,11.2316569 10.9518036,13.75 7.49996988,13.75 C4.04843734,13.75 1.25,11.2316569 1.25,8.125 C1.25,5.01834312 4.04843734,2.5 7.49996988,2.5 C10.9518036,2.5 13.75,5.01834312 13.75,8.125 Z" id="Fill-3" fill="#EF5323"></path>
                <path d="M8.12496853,13.75 C4.33418745,13.75 1.25,11.2266418 1.25,8.125 C1.25,5.02313555 4.33418745,2.5 8.12496853,2.5 C11.9160643,2.5 15,5.02313555 15,8.125 C15,11.2266418 11.9160643,13.75 8.12496853,13.75 Z M8.12496853,3.10801331 C4.7135425,3.10801331 1.93771086,5.3584587 1.93771086,8.125 C1.93771086,10.8912629 4.7135425,13.1417083 8.12496853,13.1417083 C11.5366463,13.1417083 14.3125409,10.8912629 14.3125409,8.125 C14.3125409,5.3584587 11.5366463,3.10801331 8.12496853,3.10801331 Z" id="Fill-4" fill="#EA3457"></path>
                <polyline id="Fill-5" fill="#FBB315" points="8.75715015 1.25 2.5 3.21424648 7.2192288 3.39283099 6.23544433 5.89283099 9.22401685 3.57141549 10.5314734 6.25 12.3993233 3.75 14.8275026 5.71424648 14.2671731 3.39283099 18.75 3.39283099 12.3993233 1.25"></polyline>
                <path d="M10.5356242,6.25 C10.525585,6.25 10.5153009,6.24946149 10.5050168,6.24838448 C10.3868722,6.23653731 10.2828682,6.15636696 10.2326721,6.03776062 L9.16018857,3.51061094 L6.62699718,5.77375719 C6.50958717,5.87869889 6.34338896,5.88368009 6.22095933,5.78695063 C6.09803999,5.68961535 6.05023122,5.51453301 6.10330446,5.3591062 L6.88354846,3.07859308 L2.82114984,2.90162596 C2.65923666,2.8948273 2.52560472,2.76147932 2.50332253,2.58531996 C2.48061184,2.4091606 2.57629059,2.24060767 2.73024584,2.18514137 L8.72978722,0.0187245866 C8.90553495,-0.0440788828 9.09395414,0.0605262527 9.1516185,0.253312036 C9.20922163,0.446299761 9.11384896,0.654029135 8.93804001,0.717371112 L4.69989366,2.2477429 L7.37253239,2.3641952 C7.48014803,2.36890715 7.57888752,2.42996047 7.63795982,2.52830545 C7.69752183,2.62665043 7.7101933,2.75043991 7.67242376,2.86090131 L7.16403474,4.34677889 L9.07099859,2.64294029 C9.15088392,2.57192458 9.25562246,2.5440568 9.35650447,2.57010711 C9.45720284,2.59534967 9.54137321,2.67026956 9.58465208,2.77278798 L10.5961044,5.15642533 L12.0543025,2.91165567 C12.108294,2.82805234 12.1920358,2.77332649 12.2847763,2.76046961 C12.3778228,2.74707423 12.4710529,2.77810574 12.5420621,2.84461145 L14.1026113,4.29656304 L13.7915177,2.81411845 C13.7685621,2.70473406 13.792191,2.59009922 13.8557932,2.50252439 C13.9192118,2.41494956 14.015319,2.3636567 14.1171805,2.3636567 L16.4639115,2.3636567 L12.2149914,0.714476633 C12.0408964,0.647163161 11.9495639,0.437077815 12.0107788,0.24543636 C12.0724833,0.0542660998 12.2625553,-0.0469733621 12.4375684,0.021349812 L18.5270344,2.38472581 C18.6805611,2.44443286 18.7728731,2.61688998 18.7450815,2.79358784 C18.7175961,2.97001645 18.5786997,3.09885444 18.4158683,3.09885444 L14.5375426,3.09885444 L14.9806154,5.2087279 C15.0129368,5.36334695 14.9519669,5.52294719 14.8288027,5.60527157 C14.706373,5.68779788 14.5488061,5.67467176 14.439048,5.57208602 L12.3873723,3.66368178 L10.807724,6.09591946 C10.7446116,6.19318743 10.642995,6.25 10.5356242,6.25 Z" id="Fill-6" fill="#162C53"></path>
                <path d="M7.24527408,12.5 C4.31815686,11.4866481 2.5,9.57085973 2.5,7.5 L3.24962591,7.5 C3.24962591,9.26025705 4.87826558,10.9176151 7.5,11.8249139 L7.24527408,12.5 Z" id="Fill-7" fill="#FFFFFF"></path>
            </g>
        </g>
    </g>
</svg>