<?xml version="1.0" encoding="UTF-8"?>
<svg width="19px" height="17px" viewBox="0 0 19 17" version="1.1" xmlns="http://www.w3.org/2000/svg" xmlns:xlink="http://www.w3.org/1999/xlink">
    <!-- Generator: sketchtool 58 (101010) - https://sketch.com -->
    <title>8B956B77-0A26-4A04-AC70-4E9DDACFFF2E</title>
    <desc>Created with sketchtool.</desc>
    <defs>
        <polygon id="path-1" points="0.00325714286 0.0106876526 18.9743962 0.0106876526 18.9743962 9.69010253 0.00325714286 9.69010253"></polygon>
    </defs>
    <g id="Symbols" stroke="none" stroke-width="1" fill="none" fill-rule="evenodd">
        <g id="Icon-Kategori-S/MakananJepang" transform="translate(-2.000000, -2.000000)">
            <g id="025-sushi" transform="translate(2.000000, 2.000000)">
                <g id="Group-6" transform="translate(0.000000, 6.627907)">
                    <mask id="mask-2" fill="white">
                        <use xlink:href="#path-1"></use>
                    </mask>
                    <g id="Clip-2"></g>
                    <polygon id="Fill-1" fill="#FFE600" mask="url(#mask-2)" points="0.296454286 9.39680971 18.6778686 9.39680971 18.6778686 8.22342362 0.296454286 8.22342362"></polygon>
                    <path d="M18.6778686,9.69010253 L0.296454286,9.69010253 C0.132728571,9.69010253 0,9.55900424 0,9.39680971 L0,8.22342362 C0,8.06149762 0.132511429,7.9301308 0.296454286,7.9301308 L18.6778686,7.9301308 C18.8415943,7.9301308 18.9743229,8.0612828 18.9743229,8.22342362 L18.9743229,9.39680971 C18.9743229,9.55878941 18.8418114,9.69010253 18.6778686,9.69010253 Z M0.593125714,9.1035169 L18.3814143,9.1035169 L18.3814143,8.51671643 L0.593125714,8.51671643 L0.593125714,9.1035169 Z" id="Fill-3" fill="#162C53" mask="url(#mask-2)"></path>
                    <polyline id="Fill-4" fill="#FFFFFF" mask="url(#mask-2)" points="1.48248857 0.304195297 0.296454286 8.22342362 18.6778686 8.22342362 17.4918886 0.304195297 7.94542 0.304195297"></polyline>
                    <path d="M18.6778686,8.51671643 L0.296454286,8.51671643 C0.21014,8.51671643 0.128277143,8.47960504 0.0720914286,8.41521059 C0.0156885714,8.35038648 -0.00955428571,8.26477785 0.00320285714,8.18045818 L1.18918286,0.261176153 C1.21317714,0.100700244 1.36392857,-0.00773377875 1.52591714,0.0140711808 C1.68774286,0.0377558782 1.79968,0.18695336 1.77574,0.346999615 L0.640191429,7.9301308 L18.3341314,7.9301308 L17.2363657,0.597488115 L7.94542,0.597488115 C7.78153143,0.597488115 7.64896571,0.466174997 7.64896571,0.304195297 C7.64896571,0.142054478 7.78153143,0.0106876526 7.94542,0.0106876526 L17.4918886,0.0106876526 C17.6390571,0.0106876526 17.7637514,0.117295644 17.78514,0.261176153 L18.9711743,8.18045818 C18.9838771,8.26477785 18.9586343,8.35038648 18.9022314,8.41521059 C18.8460457,8.47960504 18.7641829,8.51671643 18.6778686,8.51671643 Z" id="Fill-5" fill="#162C53" mask="url(#mask-2)"></path>
                </g>
                <path d="M2.65116279,6.18604651 L2.65116279,10.6512193 C2.65116279,11.1135108 3.64039488,11.4883721 4.86049401,11.4883721 C6.08059315,11.4883721 7.06976744,11.1135108 7.06976744,10.6512193 L7.06976744,6.18604651 L2.65116279,6.18604651 Z" id="Fill-7" fill="#FFFFFF"></path>
                <path d="M4.63956269,11.9302326 C3.43194155,11.9302326 2.20930233,11.5254815 2.20930233,10.7520099 L2.20930233,6.03874171 C2.20930233,5.8761185 2.34513259,5.74418605 2.51305706,5.74418605 L6.76601271,5.74418605 C6.93377031,5.74418605 7.06976744,5.87590275 7.06976744,6.03874171 L7.06976744,10.7520099 C7.06976744,11.5254815 5.84718384,11.9302326 4.63956269,11.9302326 Z M2.8168118,6.33351313 L2.8168118,10.7520099 C2.8168118,10.9597793 3.50886754,11.3411212 4.63956269,11.3411212 C5.77003536,11.3411212 6.4620911,10.9597793 6.4620911,10.7520099 L6.4620911,6.33351313 L2.8168118,6.33351313 Z" id="Fill-8" fill="#019447"></path>
                <path d="M7.06976744,6.18601954 C7.06976744,6.67404171 6.08059315,7.06976744 4.86049401,7.06976744 C3.64039488,7.06976744 2.65116279,6.67404171 2.65116279,6.18601954 C2.65116279,5.69805131 3.64039488,5.30232558 4.86049401,5.30232558 C6.08059315,5.30232558 7.06976744,5.69805131 7.06976744,6.18601954 Z" id="Fill-9" fill="#EF5323"></path>
                <path d="M4.63967395,7.51162791 C3.43199752,7.51162791 2.20930233,7.0562864 2.20930233,6.18589481 C2.20930233,5.31580662 3.43199752,4.86046512 4.63967395,4.86046512 C5.84735037,4.86046512 7.06976744,5.31580662 7.06976744,6.18589481 C7.06976744,7.0562864 5.84735037,7.51162791 4.63967395,7.51162791 Z M4.63967395,5.5232103 C3.50892703,5.5232103 2.81683961,5.95245948 2.81683961,6.18589481 C2.81683961,6.41963355 3.50892703,6.84888272 4.63967395,6.84888272 C5.77019836,6.84888272 6.46228579,6.41963355 6.46228579,6.18589481 C6.46228579,5.95245948 5.77019836,5.5232103 4.63967395,5.5232103 Z" id="Fill-10" fill="#019447"></path>
                <path d="M4.1030148,13.255814 L2.52512334,13.255814 C2.35059828,13.255814 2.20930233,13.1570204 2.20930233,13.0348837 C2.20930233,12.9127066 2.35059828,12.8139535 2.52512334,12.8139535 L4.1030148,12.8139535 C4.27753986,12.8139535 4.41860465,12.9127066 4.41860465,13.0348837 C4.41860465,13.1570204 4.27753986,13.255814 4.1030148,13.255814 Z" id="Fill-11" fill="#019447"></path>
                <path d="M16.4814123,13.255814 L14.0069598,13.255814 C13.8361477,13.255814 13.6976744,13.1570566 13.6976744,13.0349646 C13.6976744,12.9128322 13.8359212,12.8139535 14.0069598,12.8139535 L16.4814123,12.8139535 C16.6523943,12.8139535 16.7906977,12.9128322 16.7906977,13.0349646 C16.7906977,13.1570566 16.6523943,13.255814 16.4814123,13.255814 Z" id="Fill-12" fill="#019447"></path>
                <path d="M11.1569995,12.372093 L9.1685819,12.372093 C8.98557151,12.372093 8.8372093,12.2733399 8.8372093,12.1511628 C8.8372093,12.0290261 8.98532879,11.9302326 9.1685819,11.9302326 L11.1569995,11.9302326 C11.3402526,11.9302326 11.4883721,12.0290261 11.4883721,12.1511628 C11.4883721,12.2733399 11.3402526,12.372093 11.1569995,12.372093 Z" id="Fill-13" fill="#019447"></path>
                <path d="M16.9378497,11.9302326 L15.759663,11.9302326 C15.596775,11.9302326 15.4651163,11.8314795 15.4651163,11.7093023 C15.4651163,11.5871657 15.596775,11.4883721 15.759663,11.4883721 L16.9378497,11.4883721 C17.1006836,11.4883721 17.2325581,11.5871657 17.2325581,11.7093023 C17.2325581,11.8314795 17.1006836,11.9302326 16.9378497,11.9302326 Z" id="Fill-14" fill="#7FB841"></path>
                <path d="M5.52328615,10.1627907 L5.08148636,10.1627907 C4.95936646,10.1627907 4.86046512,10.0639971 4.86046512,9.94186047 C4.86046512,9.81968334 4.95936646,9.72093023 5.08148636,9.72093023 L5.52328615,9.72093023 C5.6452847,9.72093023 5.74418605,9.81968334 5.74418605,9.94186047 C5.74418605,10.0639971 5.6454465,10.1627907 5.52328615,10.1627907 Z" id="Fill-15" fill="#7FB841"></path>
                <path d="M5.96514662,8.39534884 L5.52334683,8.39534884 C5.40122693,8.39534884 5.30232558,8.29655528 5.30232558,8.1744186 C5.30232558,8.05224148 5.40122693,7.95348837 5.52334683,7.95348837 L5.96514662,7.95348837 C6.08714517,7.95348837 6.18604651,8.05224148 6.18604651,8.1744186 C6.18604651,8.29655528 6.08730697,8.39534884 5.96514662,8.39534884 Z" id="Fill-15" fill="#7FB841"></path>
                <path d="M4.19770476,11.0465116 L3.75590497,11.0465116 C3.63378507,11.0465116 3.53488372,10.9477181 3.53488372,10.8255814 C3.53488372,10.7034043 3.63378507,10.6046512 3.75590497,10.6046512 L4.19770476,10.6046512 C4.31970331,10.6046512 4.41860465,10.7034043 4.41860465,10.8255814 C4.41860465,10.9477181 4.31986511,11.0465116 4.19770476,11.0465116 Z" id="Fill-15" fill="#7FB841"></path>
                <path d="M4.19770476,9.27906977 L3.75590497,9.27906977 C3.63378507,9.27906977 3.53488372,9.18027621 3.53488372,9.05813953 C3.53488372,8.93596241 3.63378507,8.8372093 3.75590497,8.8372093 L4.19770476,8.8372093 C4.31970331,8.8372093 4.41860465,8.93596241 4.41860465,9.05813953 C4.41860465,9.18027621 4.31986511,9.27906977 4.19770476,9.27906977 Z" id="Fill-15" fill="#7FB841"></path>
                <path d="M16.4961431,4.41860465 L2.94571733,4.41860465 C2.78309475,4.41860465 2.65116279,4.31984726 2.65116279,4.1977553 C2.65116279,4.0756229 2.78287899,3.97674419 2.94571733,3.97674419 L16.4961431,3.97674419 C16.6589815,3.97674419 16.7906977,4.0756229 16.7906977,4.1977553 C16.7906977,4.31984726 16.6589815,4.41860465 16.4961431,4.41860465 Z" id="Fill-16" fill="#2DA2DB"></path>
                <path d="M3.83255122,3.53488372 C3.69592041,3.53488372 3.57254891,3.43261994 3.5418288,3.28251929 C3.50668893,3.10900036 3.60834356,2.93777618 3.76881928,2.89982443 L15.9866906,0.00772454814 C16.1463479,-0.0308744412 16.3064416,0.0789796947 16.3417998,0.252498627 C16.3772125,0.4257822 16.2755033,0.597241735 16.1148093,0.635193485 L3.89693794,3.52729337 C3.87538475,3.5323536 3.85388614,3.53488372 3.83255122,3.53488372 Z" id="Fill-17" fill="#2DA2DB"></path>
            </g>
        </g>
    </g>
</svg>