<?xml version="1.0" encoding="UTF-8"?>
<svg width="19px" height="16px" viewBox="0 0 19 16" version="1.1" xmlns="http://www.w3.org/2000/svg" xmlns:xlink="http://www.w3.org/1999/xlink">
    <!-- Generator: sketchtool 58 (101010) - https://sketch.com -->
    <title>01E73EFE-43B1-4955-A661-37F6966865C8</title>
    <desc>Created with sketchtool.</desc>
    <defs>
        <polygon id="path-1" points="0.00360759494 0.0505659777 18.9857889 0.0505659777 18.9857889 7.59656975 0.00360759494 7.59656975"></polygon>
    </defs>
    <g id="Symbols" stroke="none" stroke-width="1" fill="none" fill-rule="evenodd">
        <g id="Icon-Kategori-S/PastriBakeri" transform="translate(-3.000000, -2.000000)">
            <g id="199-pie" transform="translate(3.000000, 2.000000)">
                <g id="Group-4" transform="translate(0.000000, 5.074722)">
                    <mask id="mask-2" fill="white">
                        <use xlink:href="#path-1"></use>
                    </mask>
                    <g id="Clip-2"></g>
                    <path d="M0.952164557,7.22536169 C0.952164557,7.22536169 -0.19703481,6.48304769 0.623813291,5.55518919 C1.26945253,4.8251089 2.51287025,4.81158386 4.52476582,3.33572337 C6.53666139,1.85986288 8.08840823,0.421451113 10.2036614,0.421451113 C12.3186741,0.421451113 13.3532722,2.49302504 15.2324684,3.82344038 C16.093481,4.43295072 18.0276329,4.99848768 18.5201899,5.55518919 C19.0126867,6.1118907 18.0276329,7.22536169 18.0276329,7.22536169" id="Fill-1" fill="#FFFFFF" mask="url(#mask-2)"></path>
                    <path d="M0.951924051,7.59656975 C0.896727848,7.59656975 0.84056962,7.58088672 0.789401899,7.54765183 C0.717971519,7.50177544 0.0906708861,7.07801351 0.0084778481,6.38565382 C-0.023028481,6.12011447 0.0180981013,5.71504293 0.39178481,5.29291216 C0.740278481,4.89864706 1.21004747,4.69604332 1.805,4.43906757 C2.46873734,4.15232313 3.29475633,3.79550676 4.34600949,3.02457949 C4.63137025,2.81511129 4.90735127,2.6063907 5.17719937,2.40276749 C6.84763608,1.140657 8.29019304,0.0505659777 10.2036614,0.0505659777 C11.7350253,0.0505659777 12.7261519,1.02994197 13.7755411,2.06695231 C14.2798228,2.565 14.8007595,3.08003895 15.4067152,3.50883029 C15.7698196,3.76580604 16.3673576,4.02753935 16.9453544,4.28057313 C17.7438956,4.63052504 18.4334873,4.93235771 18.7522184,5.2926403 C18.934943,5.49918601 19.1764114,5.9682806 18.7402532,6.7902496 C18.5370854,7.17282472 18.2709652,7.47520111 18.2597215,7.48791057 C18.131712,7.63260811 17.9240348,7.63287997 17.7958449,7.48818243 C17.6675949,7.3434849 17.6673544,7.10852981 17.7951234,6.96335652 C18.1089241,6.606812 18.448038,5.9987969 18.2881013,5.81746622 C18.0673165,5.56817051 17.3451361,5.25172536 16.7079146,4.97272893 C16.1014778,4.70718959 15.4741171,4.432407 15.0581614,4.13798251 C14.4078323,3.67765541 13.866693,3.1427027 13.3431709,2.62555684 C12.3477753,1.64217091 11.4881456,0.792608108 10.2034209,0.792608108 C8.48957278,0.792608108 7.12361709,1.82452107 5.54198734,3.01975397 C5.26997468,3.22555207 4.99146835,3.43576789 4.70370253,3.64713911 C3.59418671,4.46081638 2.69535443,4.84896463 2.03913291,5.13251471 C1.49727215,5.36645032 1.10554747,5.5355473 0.856082278,5.81746622 C0.633674051,6.0689368 0.653155063,6.23327623 0.659528481,6.2871725 C0.693800633,6.5764996 1.02756329,6.8467965 1.11516772,6.9033434 C1.27275949,7.00501908 1.32723418,7.2317504 1.23728481,7.40961486 C1.17667722,7.52936924 1.06586392,7.59656975 0.951924051,7.59656975 Z" id="Fill-3" fill="#162C53" mask="url(#mask-2)"></path>
                </g>
                <polygon id="Fill-5" fill="#EF5323" points="1.11764706 12.263911 18.254902 12.263911 17.2660424 15.2241653 2.10650659 15.2241653"></polygon>
                <path d="M16.9578237,15.6470588 L2.0422781,15.6470588 C1.91237016,15.6470588 1.79522739,15.5575106 1.74422605,15.4193681 L0.771282051,12.7879162 C0.728414805,12.6717994 0.738626946,12.538131 0.798652966,12.4330271 C0.858500867,12.3273725 0.960325421,12.263911 1.0693341,12.263911 L17.9305303,12.263911 C18.0395389,12.263911 18.1413635,12.3273725 18.2014489,12.4330271 C18.2612968,12.538131 18.271687,12.6717994 18.2285823,12.7879162 L17.2558758,15.4193681 C17.2048745,15.5575106 17.0877317,15.6470588 16.9578237,15.6470588 Z M2.25584249,14.8950188 L16.7442594,14.8950188 L17.4388631,13.0156757 L1.56123872,13.0156757 L2.25584249,14.8950188 Z" id="Fill-6" fill="#162C53"></path>
                <path d="M9.68627451,15.6470588 C9.48052321,15.6470588 9.31372549,15.4577339 9.31372549,15.2241944 L9.31372549,12.6867754 C9.31372549,12.4532359 9.48052321,12.263911 9.68627451,12.263911 C9.89202581,12.263911 10.0588235,12.4532359 10.0588235,12.6867754 L10.0588235,15.2241944 C10.0588235,15.4577339 9.89202581,15.6470588 9.68627451,15.6470588 Z" id="Fill-7" fill="#162C53"></path>
                <path d="M10.0588235,7.61208267 C9.85307223,7.61208267 9.68627451,7.44982271 9.68627451,7.24940345 L9.68627451,6.70581599 C9.68627451,6.50566219 9.85307223,6.34340223 10.0588235,6.34340223 C10.2645066,6.34340223 10.4313725,6.50566219 10.4313725,6.70581599 L10.4313725,7.24940345 C10.4313725,7.44982271 10.2645066,7.61208267 10.0588235,7.61208267 Z" id="Fill-8" fill="#FBB315"></path>
                <path d="M8.51550849,8.03497615 C8.43376153,8.03497615 8.35195609,7.9994677 8.28962257,7.92871628 C8.16489705,7.78714708 8.16489705,7.55770275 8.28962257,7.41613354 L8.76858493,6.87242283 C8.89331045,6.73092 9.09545583,6.73092 9.22018135,6.87242283 C9.34490687,7.01399204 9.34490687,7.24343637 9.22018135,7.38500557 L8.74121899,7.92871628 C8.678827,7.9994677 8.59731393,8.03497615 8.51550849,8.03497615 Z" id="Fill-9" fill="#FBB315"></path>
                <path d="M11.9749215,8.03497615 C11.8931745,8.03497615 11.8113691,7.9994677 11.7490356,7.92871628 L11.2700147,7.38500557 C11.1452892,7.24343637 11.1452892,7.01399204 11.2700147,6.87242283 C11.3947402,6.73092 11.5968856,6.73092 11.7216111,6.87242283 L12.2005735,7.41613354 C12.325299,7.55770275 12.325299,7.78714708 12.2005735,7.92871628 C12.13824,7.9994677 12.0566684,8.03497615 11.9749215,8.03497615 Z" id="Fill-10" fill="#FBB315"></path>
                <path d="M3.72521089,15.6470588 C3.56319466,15.6470588 3.4140033,15.5395496 3.36734263,15.3744315 L2.62227264,12.7431404 C2.56578867,12.543333 2.68012096,12.3355415 2.87808774,12.278552 C3.07612273,12.2212872 3.2823438,12.3371246 3.3385549,12.5366567 L4.08362489,15.1676724 C4.14010886,15.3674798 4.02557192,15.5755466 3.8278098,15.6325361 C3.79370112,15.6425162 3.7590467,15.6470588 3.72521089,15.6470588 Z" id="Fill-11" fill="#162C53"></path>
                <path d="M15.6472749,15.6470588 C15.6137177,15.6470588 15.5790691,15.6425161 15.5446934,15.6325357 C15.3469648,15.5755446 15.2324473,15.3674718 15.2889217,15.1679339 L16.0338654,12.5365668 C16.0903398,12.337029 16.2965259,12.2214636 16.4945273,12.2784547 C16.6921877,12.3354459 16.8067735,12.5435187 16.7502991,12.7430565 L16.0053554,15.3744236 C15.9587026,15.5395465 15.8095365,15.6470588 15.6472749,15.6470588 Z" id="Fill-12" fill="#162C53"></path>
                <path d="M13.4120937,15.6470588 C13.3782617,15.6470588 13.3436112,15.6425161 13.3095063,15.6325357 C13.1118348,15.5755446 12.9969697,15.3674718 13.0537202,15.1679339 L13.798706,12.5365668 C13.8551836,12.337029 14.0614495,12.2214636 14.2591211,12.2784547 C14.4567927,12.3357212 14.5716577,12.5435187 14.5149073,12.7430565 L13.7699215,15.3744236 C13.7233343,15.5395465 13.5740916,15.6470588 13.4120937,15.6470588 Z" id="Fill-13" fill="#162C53"></path>
                <path d="M5.58802297,15.6470588 C5.42603366,15.6470588 5.27679887,15.5395496 5.23021416,15.3744315 L4.48499511,12.7431404 C4.42852052,12.543333 4.54310665,12.3355415 4.74076771,12.278552 C4.9387016,12.2212872 5.14495663,12.3371246 5.20143122,12.5366567 L5.94637743,15.1676724 C6.00285202,15.3674798 5.8882659,15.5755466 5.69060484,15.6325361 C5.65650182,15.6425162 5.62185316,15.6470588 5.58802297,15.6470588 Z" id="Fill-14" fill="#162C53"></path>
                <path d="M7.45044728,15.6470588 C7.2681847,15.6470588 7.10884136,15.511802 7.0824433,15.3241632 L6.70966449,12.6928837 C6.68060616,12.4872107 6.82214615,12.2968186 7.02569088,12.2675645 C7.23087271,12.2389988 7.41818298,12.3810013 7.44724131,12.586399 L7.81974728,15.2179538 C7.84880561,15.4236269 7.70726562,15.6137436 7.50372088,15.6430665 C7.48584933,15.645751 7.46825062,15.6470588 7.45044728,15.6470588 Z" id="Fill-15" fill="#162C53"></path>
                <path d="M11.5495527,15.6470588 C11.5320222,15.6470588 11.5141507,15.6457511 11.4962791,15.6430669 C11.2927344,15.6140224 11.1511944,15.4233749 11.1802527,15.2179986 L11.5527587,12.5867181 C11.581817,12.3810665 11.7699458,12.2377711 11.9743091,12.2679168 C12.1778539,12.2971678 12.3193938,12.4875401 12.2903355,12.6931916 L11.9175567,15.3241968 C11.8911586,15.5118161 11.7318153,15.6470588 11.5495527,15.6470588 Z" id="Fill-16" fill="#162C53"></path>
                <path d="M3.95955805,7.18918919 C3.82554779,7.18918919 3.69695878,7.1119662 3.63441625,6.97865565 C3.54741206,6.79295112 3.62231764,6.56955848 3.80181337,6.47954479 C4.44019669,6.15916172 4.80586551,5.72769792 4.85935061,5.23125464 C4.91719914,4.69288249 4.59126399,4.08823126 3.96550818,3.57174694 C3.56162627,3.23884677 3.34986759,2.81401772 3.35297489,2.34322423 C3.36071006,1.20929798 4.59152844,0.190556424 4.73175328,0.0780393117 C4.88929962,-0.047815695 5.11553696,-0.0184039272 5.23791139,0.144318389 C5.36008749,0.307040704 5.33139462,0.541582453 5.17437718,0.668258254 C4.86966418,0.913538718 4.07862685,1.69342936 4.07505677,2.34910659 C4.07373452,2.5885047 4.18506814,2.79746505 4.41566891,2.98768395 C5.2515967,3.67728731 5.66407325,4.50341599 5.5767385,5.31381279 C5.49568444,6.06702765 4.97709716,6.72003729 4.11683993,7.15177468 C4.06626379,7.17715088 4.01251424,7.18918919 3.95955805,7.18918919 Z" id="Fill-17" fill="#FFE600"></path>
                <path d="M2.46941409,7.61208267 C2.33534081,7.61208267 2.20675476,7.53485972 2.14427979,7.40154925 C2.0572115,7.21611841 2.1323798,6.9925207 2.31160694,6.90243866 C2.94997553,6.58212416 3.31563592,6.1505922 3.36911979,5.65414918 C3.42696698,5.11605092 3.10103935,4.51112642 2.47529797,3.99471078 C2.07142538,3.66174239 1.85967159,3.23691357 1.86277881,2.76618874 C1.8705138,1.6322631 3.1013038,0.613453697 3.2415254,0.500936646 C3.39906811,0.37487651 3.62556467,0.404767057 3.74773795,0.567215687 C3.86984511,0.729937915 3.84148346,0.964547936 3.6842052,1.09115527 C3.37969756,1.3364356 2.58841403,2.11639422 2.58484403,2.77207109 C2.58352181,3.01174267 2.69485287,3.22036091 2.92544832,3.41064811 C3.76142294,4.10025109 4.17382386,4.92637932 4.08655724,5.73670729 C4.00543894,6.49019533 3.48712807,7.14293103 2.62662624,7.57466819 C2.57605126,7.60011277 2.52230295,7.61208267 2.46941409,7.61208267 Z" id="Fill-18" fill="#FFE600"></path>
            </g>
        </g>
    </g>
</svg>