<?xml version="1.0" encoding="UTF-8"?>
<svg width="37px" height="35px" viewBox="0 0 37 35" version="1.1" xmlns="http://www.w3.org/2000/svg" xmlns:xlink="http://www.w3.org/1999/xlink">
    <!-- Generator: sketchtool 58 (101010) - https://sketch.com -->
    <title>6D5373AF-EE06-4053-9795-EB67D0916E83</title>
    <desc>Created with sketchtool.</desc>
    <g id="2-AfterLogin" stroke="none" stroke-width="1" fill="none" fill-rule="evenodd">
        <g id="2-3-Wishlist" transform="translate(-85.000000, -176.000000)">
            <g id="JUDUL-Copy" transform="translate(85.000000, 176.000000)">
                <g id="Heart/Fill">
                    <path d="M24.8250157,26.1113033 L18.4758377,33.8286066 L3.45574869,15.5700492 C-0.946164921,10.2195082 2.09703403,1.7450082 8.97246597,1.04396721 C9.31446859,1.00913115 9.66021728,0.991155738 10.011377,0.991155738 C13.546144,0.991155738 16.6559398,2.80653279 18.4758377,5.55802459 C20.2946257,2.80653279 23.4049764,0.991155738 26.9402984,0.991155738 C27.2903482,0.991155738 27.6372068,1.00913115 27.9780995,1.04396721 C34.8540864,1.7450082 37.8977016,10.2195082 33.4953717,15.5700492 L28.126555,22.096377" id="Fill-10" fill="#7ED321"></path>
                    <path d="M18.4758377,34.7789344 C18.1934948,34.7789344 17.9257199,34.6526885 17.7463246,34.4332213 L2.7262356,16.175918 C0.378418848,13.3215902 -0.199863874,9.39654098 1.21629058,5.93035246 C2.56529319,2.63068033 5.42854188,0.450081967 8.87812042,0.0979590164 C9.25147906,0.0610327869 9.62872251,0.0402704918 10.0119319,0.0402704918 C13.2989031,0.0402704918 16.376788,1.49195902 18.4758377,3.97897541 C20.5748874,1.49195902 23.6526335,0.0402704918 26.9402984,0.0402704918 C27.3223979,0.0402704918 27.7000576,0.0610327869 28.073,0.0979590164 C31.5225785,0.449663934 34.3869372,2.63068033 35.7352461,5.93035246 C37.1519555,9.39654098 36.5731178,13.3215902 34.225301,16.175918 L28.857178,22.7016885 C28.5239162,23.1071803 27.9271806,23.1637541 27.5239921,22.8290492 C27.1212199,22.4943443 27.0643351,21.895582 27.3977356,21.4910656 L32.7664136,14.9652951 C34.6681702,12.6531557 35.1353194,9.4677459 33.9836099,6.65145902 C32.9051571,4.01269672 30.6239372,2.26922131 27.8827827,1.98997541 C27.573801,1.95848361 27.2584372,1.94162295 26.9402984,1.94162295 C23.8488168,1.94162295 20.9797408,3.49015574 19.2643168,6.08432787 C18.9131571,6.61341803 18.0385183,6.61341803 17.6877749,6.08432787 C15.9719346,3.49015574 13.1027199,1.94162295 10.0119319,1.94162295 C9.69268325,1.94162295 9.37842932,1.95848361 9.06778272,1.98997541 C6.3270445,2.26922131 4.04596335,4.01269672 2.9679267,6.65257377 C1.81691099,9.4677459 2.28406021,12.6531557 4.18581675,14.9652951 L18.4758377,32.3355328 L24.0955026,25.5059918 C24.4287644,25.1021721 25.0255,25.0449016 25.4281335,25.3786311 C25.8303508,25.7127787 25.8872356,26.311541 25.554945,26.7160574 L19.2059058,34.4337787 C19.0259555,34.6526885 18.7581806,34.7789344 18.4758377,34.7789344 Z" id="Fill-11" fill="#019447"></path>
                </g>
            </g>
        </g>
    </g>
</svg>