<svg xmlns="http://www.w3.org/2000/svg" xmlns:xlink="http://www.w3.org/1999/xlink" width="62" height="35" viewBox="0 0 62 35">
    <defs>
        <path id="a" d="M.01.165h61.274v9.728H.011z"/>
    </defs>
    <g fill="none" fill-rule="evenodd">
        <path fill="#00E7FF" d="M17.51 2.016H4.864a.973.973 0 0 1 0-1.946H17.51a.973.973 0 0 1 0 1.946zM17.51 6.88h-2.918a.973.973 0 1 1 0-1.946h2.918a.972.972 0 1 1 0 1.946zM11.673 6.88H1.945a.972.972 0 1 1 0-1.946h9.728a.972.972 0 1 1 0 1.946zM17.51 11.744h-3.892a.973.973 0 0 1 0-1.946h3.892a.972.972 0 1 1 0 1.946z"/>
        <path fill="#FFF" d="M56.831 29.253h-42.24v-6.81h45.72v3.33a3.48 3.48 0 0 1-3.48 3.48z"/>
        <path fill="#162C53" d="M56.831 30.226h-42.24a.973.973 0 0 1-.973-.973v-6.81c0-.537.436-.973.974-.973H60.31c.537 0 .973.436.973.974v3.33a4.458 4.458 0 0 1-4.453 4.452zM15.564 28.28h41.267a2.51 2.51 0 0 0 2.507-2.507v-2.356H15.564v4.863z"/>
        <path fill="#FFF" d="M43.775 6.88h6.905c5.32 0 9.631 4.312 9.631 9.631v5.933H43.775V6.88z"/>
        <path fill="#162C53" d="M60.311 23.417H43.775a.972.972 0 0 1-.974-.973V6.88c0-.538.436-.973.974-.973h6.905c5.847 0 10.604 4.757 10.604 10.604v5.933a.972.972 0 0 1-.973.973zM44.747 21.47h14.591v-4.96c0-4.774-3.884-8.659-8.658-8.659h-5.933v13.62z"/>
        <path fill="#019447" d="M57.393 16.607h-10.7v-5.836h4.863a5.836 5.836 0 0 1 5.837 5.836z"/>
        <path fill="#162C53" d="M57.393 17.58h-10.7a.972.972 0 0 1-.973-.973V10.77c0-.537.435-.972.973-.972h4.863a6.817 6.817 0 0 1 6.81 6.81.972.972 0 0 1-.973.972zm-9.728-1.946h8.657a4.871 4.871 0 0 0-4.765-3.89h-3.892v3.89z"/>
        <path fill="#EEE" d="M26.265 29.253a3.891 3.891 0 1 1-7.783 0 3.891 3.891 0 0 1 7.783 0z"/>
        <path fill="#162C53" d="M22.373 34.117a4.87 4.87 0 0 1-4.863-4.863 4.87 4.87 0 0 1 4.863-4.865 4.87 4.87 0 0 1 4.864 4.865 4.87 4.87 0 0 1-4.864 4.863zm0-7.782a2.921 2.921 0 0 0-2.918 2.918 2.922 2.922 0 0 0 2.918 2.919c1.61 0 2.919-1.31 2.919-2.92a2.922 2.922 0 0 0-2.919-2.917z"/>
        <path fill="#EEE" d="M56.42 29.253a3.891 3.891 0 1 1-7.783 0 3.891 3.891 0 0 1 7.783 0z"/>
        <g transform="translate(0 24.224)">
            <mask id="b" fill="#fff">
                <use xlink:href="#a"/>
            </mask>
            <path fill="#162C53" d="M52.529 9.893a4.87 4.87 0 0 1-4.864-4.863A4.87 4.87 0 0 1 52.53.165a4.87 4.87 0 0 1 4.864 4.865 4.87 4.87 0 0 1-4.864 4.863zm0-7.782a2.922 2.922 0 0 0-2.918 2.918c0 1.61 1.31 2.919 2.918 2.919 1.609 0 2.919-1.31 2.919-2.92a2.922 2.922 0 0 0-2.92-2.917z" mask="url(#b)"/>
            <path fill="#3F3F49" d="M60.311 9.893H.973a.972.972 0 1 1 0-1.945H60.31a.972.972 0 1 1 0 1.945z" mask="url(#b)"/>
        </g>
        <path fill="#F79521" d="M32.1 22.444h7.783V2.99h-7.782z"/>
        <path fill="#162C53" d="M39.883 23.417h-7.782a.972.972 0 0 1-.973-.973V2.989c0-.538.436-.974.973-.974h7.782c.537 0 .973.436.973.974v19.455a.972.972 0 0 1-.973.973zm-6.809-1.946h5.836V3.961h-5.836v17.51z"/>
        <path fill="#F79521" d="M20.428 22.444h7.782v-10.7h-7.782z"/>
        <path fill="#162C53" d="M28.21 23.417h-7.782a.972.972 0 0 1-.973-.973v-10.7c0-.538.436-.974.973-.974h7.782c.537 0 .973.436.973.974v10.7a.972.972 0 0 1-.973.973zM21.4 21.47h5.837v-8.755H21.4v8.755z"/>
        <path fill="#019447" d="M27.237 22.444h7.783V6.88h-7.783z"/>
        <path fill="#162C53" d="M35.02 23.417h-7.783a.972.972 0 0 1-.972-.973V6.88c0-.538.435-.973.972-.973h7.783c.537 0 .972.435.972.973v15.564a.972.972 0 0 1-.972.973zm-6.81-1.946h5.836V7.852H28.21v13.62z"/>
    </g>
</svg>
