<svg xmlns="http://www.w3.org/2000/svg" xmlns:xlink="http://www.w3.org/1999/xlink" width="41" height="36" viewBox="0 0 41 36">
    <defs>
        <path id="a" d="M.007.114h40.465v25.212H.007z"/>
    </defs>
    <g fill="none" fill-rule="evenodd">
        <g transform="translate(.325 10.006)">
            <mask id="b" fill="#fff">
                <use xlink:href="#a"/>
            </mask>
            <path fill="#FFF" d="M23.9.778h13.995c1.057 0 1.913.856 1.913 1.913V22.75a1.913 1.913 0 0 1-1.913 1.913H2.577A1.913 1.913 0 0 1 .663 22.75V2.69c0-1.057.857-1.913 1.914-1.913h15.535" mask="url(#b)"/>
            <path fill="#979797" d="M37.895 25.326H2.577A2.58 2.58 0 0 1 0 22.75V2.69A2.58 2.58 0 0 1 2.577.114h15.535a.663.663 0 1 1 0 1.327H2.577c-.69 0-1.25.561-1.25 1.25V22.75c0 .69.56 1.25 1.25 1.25h35.318c.69 0 1.25-.56 1.25-1.25V2.69c0-.69-.56-1.25-1.25-1.25H23.9a.663.663 0 1 1 0-1.327h13.995a2.58 2.58 0 0 1 2.577 2.577V22.75a2.58 2.58 0 0 1-2.577 2.576z" mask="url(#b)"/>
        </g>
        <path fill="#979797" d="M8.95 24.053H3.642a.663.663 0 1 1 0-1.326H8.95a.663.663 0 1 1 0 1.326zM14.258 27.371H3.642a.664.664 0 0 1 0-1.327h10.616a.663.663 0 1 1 0 1.327zM21.556 27.371h-3.98a.664.664 0 1 1 0-1.327h3.98a.663.663 0 1 1 0 1.327zM5.633 30.688h-1.99a.663.663 0 1 1 0-1.327h1.99a.663.663 0 1 1 0 1.327zM13.595 30.688h-3.317a.663.663 0 1 1 0-1.327h3.317a.663.663 0 1 1 0 1.327zM16.912 24.053h-5.307a.663.663 0 1 1 0-1.326h5.307a.663.663 0 1 1 0 1.326zM24.874 24.053h-5.308a.663.663 0 1 1 0-1.326h5.308a.663.663 0 1 1 0 1.326zM6.96 32.015a.663.663 0 0 1-.552-1.031l1.327-1.99a.663.663 0 1 1 1.104.736l-1.327 1.99a.662.662 0 0 1-.552.295z"/>
        <path fill="#DEDBD6" d="M9.95 19.409H4.634a.992.992 0 0 1-.992-.991v-3.326c0-.547.445-.99.992-.99H9.95c.547 0 .991.443.991.99v3.326a.991.991 0 0 1-.991.991z"/>
        <path fill="#979797" d="M9.95 20.073H4.634a1.657 1.657 0 0 1-1.655-1.655v-3.326c0-.912.743-1.654 1.655-1.654H9.95c.912 0 1.655.742 1.655 1.654v3.326c0 .912-.743 1.655-1.655 1.655zm-5.316-5.308a.328.328 0 0 0-.328.328v3.325c0 .18.147.328.328.328H9.95c.18 0 .328-.147.328-.328v-3.325a.328.328 0 0 0-.328-.328H4.634z"/>
        <path fill="#979797" d="M8.287 19.409a.663.663 0 0 1-.664-.663v-3.98a.663.663 0 1 1 1.327 0v3.98a.663.663 0 0 1-.663.663z"/>
        <path fill="#979797" d="M7.623 17.419H4.306a.663.663 0 1 1 0-1.327h3.317a.663.663 0 1 1 0 1.327z"/>
        <path fill="#DEDBD6" d="M33.079 18.082H24.63a1.747 1.747 0 0 1-1.746-1.747V7.887c0-.965.782-1.747 1.746-1.747h8.449c.965 0 1.747.782 1.747 1.747v8.448c0 .965-.782 1.747-1.747 1.747z"/>
        <path fill="#979797" d="M33.079 18.746H24.63a2.413 2.413 0 0 1-2.41-2.41v-8.45a2.413 2.413 0 0 1 2.41-2.41h8.449c1.33 0 2.41 1.082 2.41 2.41v8.45c0 1.329-1.081 2.41-2.41 2.41zM24.63 6.804c-.597 0-1.083.485-1.083 1.082v8.45c0 .597.486 1.083 1.083 1.083h8.449c.597 0 1.083-.486 1.083-1.084V7.886c0-.597-.486-1.082-1.083-1.082H24.63z"/>
        <path fill="#979797" d="M30.845 10.784a1.99 1.99 0 0 0-3.98 0c0 .866.555 1.594 1.326 1.869v2.775h1.327v-2.775a1.985 1.985 0 0 0 1.327-1.869zM32.759 6.791h-7.167a.74.74 0 0 1-.73-.747V4.263c0-2.264 1.798-4.107 4.008-4.107h.61c2.21 0 4.008 1.843 4.008 4.107v1.78a.739.739 0 0 1-.73.748zM26.32 5.297h5.708V4.263c0-1.44-1.143-2.612-2.55-2.612h-.61c-1.405 0-2.548 1.171-2.548 2.612v1.034z"/>
    </g>
</svg>
