<svg xmlns="http://www.w3.org/2000/svg" xmlns:xlink="http://www.w3.org/1999/xlink" width="41" height="35" viewBox="0 0 41 35">
    <defs>
        <path id="a" d="M.007.114h40.465v25.212H.007z"/>
    </defs>
    <g fill="none" fill-rule="evenodd">
        <g transform="translate(0 9.233)">
            <mask id="b" fill="#fff">
                <use xlink:href="#a"/>
            </mask>
            <path fill="#FFF" d="M23.9.778h13.995c1.057 0 1.913.856 1.913 1.913V22.75a1.913 1.913 0 0 1-1.913 1.913H2.577A1.913 1.913 0 0 1 .663 22.75V2.69c0-1.057.857-1.913 1.914-1.913h15.535" mask="url(#b)"/>
            <path fill="#162C53" d="M37.895 25.326H2.577A2.58 2.58 0 0 1 0 22.75V2.69A2.58 2.58 0 0 1 2.577.114h15.535a.663.663 0 1 1 0 1.327H2.577c-.69 0-1.25.561-1.25 1.25V22.75c0 .69.56 1.25 1.25 1.25h35.318c.69 0 1.25-.56 1.25-1.25V2.69c0-.69-.56-1.25-1.25-1.25H23.9a.663.663 0 1 1 0-1.327h13.995a2.58 2.58 0 0 1 2.577 2.577V22.75a2.58 2.58 0 0 1-2.577 2.576z" mask="url(#b)"/>
        </g>
        <path fill="#F79521" d="M8.625 23.28H3.317a.663.663 0 1 1 0-1.327h5.308a.663.663 0 1 1 0 1.327zM13.933 26.598H3.317a.664.664 0 0 1 0-1.328h10.616a.663.663 0 1 1 0 1.328zM21.231 26.598h-3.98a.664.664 0 1 1 0-1.328h3.98a.663.663 0 1 1 0 1.328zM5.308 29.915h-1.99a.663.663 0 1 1 0-1.327h1.99a.663.663 0 1 1 0 1.327zM13.27 29.915H9.952a.663.663 0 1 1 0-1.327h3.318a.663.663 0 1 1 0 1.327zM16.587 23.28h-5.308a.663.663 0 1 1 0-1.327h5.308a.663.663 0 1 1 0 1.327zM24.549 23.28H19.24a.663.663 0 1 1 0-1.327h5.308a.663.663 0 1 1 0 1.327z"/>
        <path fill="#EA3457" d="M6.634 31.242a.663.663 0 0 1-.551-1.032l1.327-1.99a.663.663 0 1 1 1.103.736l-1.326 1.99a.662.662 0 0 1-.553.296z"/>
        <path fill="#A8EB78" d="M9.624 18.636H4.31a.992.992 0 0 1-.992-.992V14.32c0-.548.444-.991.992-.991h5.315c.548 0 .992.443.992.991v3.325a.991.991 0 0 1-.992.992z"/>
        <path fill="#019447" d="M9.624 19.3H4.31a1.657 1.657 0 0 1-1.655-1.656V14.32c0-.912.742-1.655 1.655-1.655h5.315c.912 0 1.655.743 1.655 1.655v3.325c0 .913-.743 1.655-1.655 1.655zM4.31 13.991a.328.328 0 0 0-.328.328v3.325c0 .18.147.328.328.328h5.315c.181 0 .328-.148.328-.328V14.32a.328.328 0 0 0-.328-.328H4.31z"/>
        <path fill="#019447" d="M7.962 18.636a.663.663 0 0 1-.664-.664v-3.98a.663.663 0 1 1 1.327 0v3.98a.663.663 0 0 1-.663.664z"/>
        <path fill="#019447" d="M7.298 16.645H3.981a.663.663 0 1 1 0-1.327h3.317a.663.663 0 1 1 0 1.327z"/>
        <path fill="#00E7FF" d="M32.754 17.309h-8.449a1.747 1.747 0 0 1-1.747-1.747V7.113c0-.964.782-1.746 1.747-1.746h8.449c.964 0 1.746.782 1.746 1.746v8.449c0 .965-.782 1.747-1.746 1.747z"/>
        <path fill="#162C53" d="M32.754 17.972h-8.45a2.413 2.413 0 0 1-2.41-2.41V7.113a2.413 2.413 0 0 1 2.41-2.41h8.45c1.329 0 2.41 1.081 2.41 2.41v8.449c0 1.33-1.082 2.41-2.41 2.41zM24.304 6.03c-.597 0-1.082.486-1.082 1.083v8.449c0 .597.486 1.083 1.083 1.083h8.449c.597 0 1.083-.486 1.083-1.083V7.113c0-.597-.486-1.083-1.083-1.083h-8.45z"/>
        <path fill="#162C53" d="M30.52 10.01a1.99 1.99 0 0 0-3.981 0c0 .866.556 1.595 1.327 1.87v2.775h1.327V11.88a1.985 1.985 0 0 0 1.327-1.868zM31.847 6.041h-6.635a.676.676 0 0 1-.675-.675v-1.61a3.715 3.715 0 0 1 3.71-3.71h.565a3.714 3.714 0 0 1 3.71 3.71v1.61a.675.675 0 0 1-.675.675zm-5.96-1.35h5.285v-.934a2.363 2.363 0 0 0-2.36-2.36h-.565a2.363 2.363 0 0 0-2.36 2.36v.934z"/>
    </g>
</svg>
