<svg xmlns="http://www.w3.org/2000/svg" xmlns:xlink="http://www.w3.org/1999/xlink" width="38" height="35" viewBox="0 0 38 35">
    <defs>
        <path id="a" d="M.007.03h7.13v17.246H.006z"/>
    </defs>
    <g fill="none" fill-rule="evenodd">
        <path fill="#F79521" d="M15.462 28.29a5.947 5.947 0 1 1-11.894 0 5.947 5.947 0 0 1 11.894 0z"/>
        <path fill="#F79521" d="M9.515 34.833a6.549 6.549 0 0 1-6.541-6.542 6.549 6.549 0 0 1 6.541-6.541 6.549 6.549 0 0 1 6.542 6.541 6.549 6.549 0 0 1-6.542 6.542zm0-11.894a5.358 5.358 0 0 0-5.352 5.352c0 2.952 2.4 5.352 5.352 5.352 2.952 0 5.352-2.4 5.352-5.352a5.358 5.358 0 0 0-5.352-5.352z"/>
        <path fill="#FFF" d="M10.11 28.291h1.857a3.072 3.072 0 0 0 2.98 2.362l16.94.03a2.58 2.58 0 0 0 2.585-2.574l2.4-12.084a2.579 2.579 0 0 0-2.575-2.583l-11.756-.021 2.281-3.878c.5-.85.765-1.819.767-2.806l.003-1.637a2.378 2.378 0 0 0-4.757-.008 3.521 3.521 0 0 1-1.444 2.837l-5.426 3.963a5.044 5.044 0 0 0-2.005 3.316H6.542v13.083"/>
        <path fill="#162C53" d="M31.893 31.278h-.006l-16.942-.03a3.652 3.652 0 0 1-3.416-2.362h-1.42a.594.594 0 1 1 0-1.19h1.858c.275 0 .515.189.578.457a2.47 2.47 0 0 0 2.402 1.905l16.942.03h.004c.528 0 1.026-.205 1.4-.578a1.97 1.97 0 0 0 .584-1.403c0-.038.004-.077.012-.114l2.388-12.023a1.988 1.988 0 0 0-1.98-1.934l-11.757-.021a.595.595 0 0 1-.512-.896l2.281-3.877c.448-.76.684-1.626.685-2.506l.004-1.637a1.786 1.786 0 0 0-1.782-1.787h-.003c-.475 0-.922.184-1.259.52a1.772 1.772 0 0 0-.525 1.26 4.134 4.134 0 0 1-1.687 3.317l-5.426 3.963c-.96.7-1.588 1.74-1.769 2.926a.595.595 0 0 1-.588.504H7.136v12.489a.594.594 0 1 1-1.19 0V15.208c0-.329.267-.595.596-.595h4.93a5.589 5.589 0 0 1 2.142-3.201l5.427-3.964a2.937 2.937 0 0 0 1.2-2.357 2.977 2.977 0 0 1 2.973-2.969h.005a2.978 2.978 0 0 1 2.968 2.98l-.003 1.636a6.153 6.153 0 0 1-.849 3.107l-1.755 2.982 10.719.02a3.178 3.178 0 0 1 3.168 3.179.583.583 0 0 1-.012.115l-2.39 12.03a3.152 3.152 0 0 1-.931 2.181c-.6.597-1.395.926-2.24.926z"/>
        <path fill="#602F75" d="M36.276 18.776h-3.568a.595.595 0 1 1 0-1.19h3.568a.594.594 0 1 1 0 1.19zM35.087 22.939h-2.974a.594.594 0 1 1 0-1.19h2.974a.595.595 0 1 1 0 1.19zM34.492 27.102H30.33a.595.595 0 1 1 0-1.19h4.163a.594.594 0 1 1 0 1.19z"/>
        <g transform="translate(0 13.394)">
            <mask id="b" fill="#fff">
                <use xlink:href="#a"/>
            </mask>
            <path fill="#019447" d="M.595 16.681h5.947V.625H.595z" mask="url(#b)"/>
            <path fill="#162C53" d="M6.542 17.276H.595A.594.594 0 0 1 0 16.681V.625C0 .296.266.03.595.03h5.947c.328 0 .594.266.594.595V16.68a.594.594 0 0 1-.594.595zm-5.353-1.19h4.758V1.22H1.189v14.868z" mask="url(#b)"/>
        </g>
        <path fill="#00E7FF" d="M31.623 7.14l-2.483 4.302h4.966z"/>
        <path fill="#00E7FF" d="M34.106 12.036H29.14a.594.594 0 0 1-.515-.892l2.483-4.3a.594.594 0 0 1 1.03 0l2.483 4.3a.594.594 0 0 1-.515.892zm-3.936-1.19h2.906L31.623 8.33l-1.453 2.517zM31.623.599L29.14 4.9h4.966z"/>
        <path fill="#00E7FF" d="M34.106 5.495H29.14a.594.594 0 0 1-.515-.892L31.108.302a.595.595 0 0 1 1.03 0l2.483 4.3a.594.594 0 0 1-.515.893zm-3.936-1.19h2.906L31.623 1.79 30.17 4.305z"/>
    </g>
</svg>
