<svg xmlns="http://www.w3.org/2000/svg" xmlns:xlink="http://www.w3.org/1999/xlink" width="17" height="13" viewBox="0 0 17 13">
    <defs>
        <path id="a" d="M.003.033h16.981V13H.003z"/>
    </defs>
    <g fill="none" fill-rule="evenodd">
        <g>
            <mask id="b" fill="#fff">
                <use xlink:href="#a"/>
            </mask>
            <path fill="#F79521" d="M14.91.033H2.078A2.082 2.082 0 0 0 0 2.117v8.8C0 12.066.931 13 2.077 13h12.83a2.082 2.082 0 0 0 2.077-2.083V2.12A2.08 2.08 0 0 0 14.911.033zm1.129 10.884c0 .624-.506 1.131-1.128 1.131H2.077a1.131 1.131 0 0 1-1.128-1.131V2.12c0-.624.506-1.131 1.128-1.131h12.83c.622 0 1.128.507 1.128 1.131v8.797h.004z" mask="url(#b)"/>
        </g>
        <path fill="#019447" d="M10.705 6.392l4.13-3.59a.45.45 0 0 0 .036-.648.485.485 0 0 0-.668-.034L8.506 7.077l-1.111-.963c-.004-.003-.007-.006-.007-.01a.712.712 0 0 0-.077-.064L2.788 2.117a.482.482 0 0 0-.668.037.447.447 0 0 0 .039.647l4.18 3.622L2.176 10.2a.45.45 0 0 0-.02.648.481.481 0 0 0 .668.024L7.048 7.04l1.146.992a.48.48 0 0 0 .63-.003l1.177-1.023 4.201 3.869c.091.084.21.125.325.125a.479.479 0 0 0 .343-.142.45.45 0 0 0-.018-.647l-4.148-3.819z"/>
    </g>
</svg>
