<svg xmlns="http://www.w3.org/2000/svg" width="25" height="24" viewBox="0 0 25 24">
    <g fill="none" fill-rule="evenodd">
        <path fill="#162C53" stroke="#FFF" stroke-width="2" d="M20.936 14.465c1.118 1.021 1.778 2.505 1.778 4.1 0 2.989-2.305 5.435-5.18 5.435-2.874 0-5.18-2.446-5.18-5.436 0-1.594.66-3.078 1.778-4.099V4.55c0-1.948 1.51-3.55 3.402-3.55 1.893 0 3.402 1.602 3.402 3.55v9.915z"/>
        <path fill="#F3E8D7" d="M17.534 21.547c-1.591 0-2.886-1.374-2.886-3.063 0-1.283.75-2.425 1.878-2.87V4.55c0-.59.452-1.07 1.008-1.07s1.009.48 1.009 1.07v11.064c1.126.445 1.878 1.587 1.878 2.87 0 1.689-1.295 3.063-2.887 3.063z"/>
        <path fill="#69E6ED" d="M16.526 14.257v1.357c-1.127.445-1.878 1.587-1.878 2.87 0 1.689 1.295 3.063 2.886 3.063 1.592 0 2.887-1.374 2.887-3.063 0-1.283-.752-2.425-1.878-2.87v-1.357h-2.017z"/>
        <path fill="#33D8DD" d="M18.543 15.614v-1.357h-2.017v1.357s1.394.686 1.394 2.87c0 1.214-.669 2.265-1.636 2.76.378.195.802.303 1.25.303 1.592 0 2.887-1.374 2.887-3.063 0-1.283-.752-2.425-1.878-2.87z"/>
        <path fill="#0D6E9A" d="M23.264 9.392h-1.732c-.165 0-.3-.142-.3-.317 0-.175.135-.317.3-.317h1.732c.165 0 .298.142.298.317 0 .175-.133.317-.298.317zM22.318 6.823h-.786c-.165 0-.3-.142-.3-.317 0-.175.135-.316.3-.316h.786c.165 0 .299.141.299.316 0 .175-.134.317-.299.317zM22.597 4.255h-1.065c-.165 0-.3-.142-.3-.317 0-.175.135-.317.3-.317h1.065c.165 0 .298.142.298.317 0 .175-.133.317-.298.317zM22.597 14.529h-1.065c-.165 0-.3-.142-.3-.317 0-.175.135-.317.3-.317h1.065c.165 0 .298.142.298.317 0 .175-.133.317-.298.317z"/>
        <g>
            <path fill="#00E7FF" d="M7.779 4.217a.222.222 0 0 1-.122-.036L6.603 3.49a.214.214 0 0 1-.06-.3.221.221 0 0 1 .303-.06l.933.612.932-.611a.221.221 0 0 1 .304.06c.067.099.04.232-.06.299L7.9 4.18a.221.221 0 0 1-.121.036z"/>
            <path fill="#162C53" d="M7.788 5.41a.22.22 0 0 1-.114-.031L5.557 4.117a.214.214 0 0 1-.074-.296.221.221 0 0 1 .301-.073l2.003 1.194 1.985-1.194a.222.222 0 0 1 .302.072.214.214 0 0 1-.073.296l-2.1 1.262a.223.223 0 0 1-.113.032z"/>
            <path fill="#00E7FF" d="M8.832 14.226a.221.221 0 0 1-.121-.036l-.932-.612-.933.612a.221.221 0 0 1-.304-.06.213.213 0 0 1 .06-.3l1.055-.69a.222.222 0 0 1 .243 0l1.054.69c.101.067.128.2.06.3a.219.219 0 0 1-.182.096z"/>
            <g fill="#162C53">
                <path d="M9.887 13.604a.221.221 0 0 1-.114-.032L7.77 12.378l-1.985 1.194a.221.221 0 0 1-.301-.072.214.214 0 0 1 .072-.296l2.1-1.262a.222.222 0 0 1 .228 0L10 13.203a.214.214 0 0 1 .073.297.22.22 0 0 1-.187.104zM10.201 7.445a.22.22 0 0 1-.19-.108.214.214 0 0 1 .081-.294l3.335-1.887a.221.221 0 0 1 .299.08.214.214 0 0 1-.081.295L10.31 7.417a.222.222 0 0 1-.109.028zM2.022 12.071a.22.22 0 0 1-.19-.108.214.214 0 0 1 .08-.294L8.37 8.017a.221.221 0 0 1 .299.08.214.214 0 0 1-.08.294L2.13 12.043a.221.221 0 0 1-.109.028z"/>
            </g>
            <path fill="#00E7FF" d="M3.727 12.42a.217.217 0 0 1-.22-.216l.001-1.18-1.012-.495a.214.214 0 0 1-.1-.289.22.22 0 0 1 .295-.097l1.134.555a.216.216 0 0 1 .122.193v1.313a.218.218 0 0 1-.22.216z"/>
            <path fill="#162C53" d="M4.823 12.94a.217.217 0 0 1-.219-.216v-2.292L2.512 9.317a.214.214 0 0 1-.089-.293.221.221 0 0 1 .298-.087l2.207 1.177c.07.038.114.111.114.19v2.42c0 .119-.098.215-.219.215z"/>
            <path fill="#00E7FF" d="M13.07 7.018a.22.22 0 0 1-.117-.033l-1.014-.64a.215.215 0 0 1-.101-.18v-1.08c0-.119.098-.215.22-.215.12 0 .219.096.219.216v.96l.912.575a.214.214 0 0 1 .066.298.22.22 0 0 1-.184.1z"/>
            <g fill="#162C53">
                <path d="M13.048 8.228a.22.22 0 0 1-.11-.03l-2.087-1.2a.215.215 0 0 1-.109-.185l-.014-2.396c0-.12.097-.217.218-.218h.001c.12 0 .219.096.22.215l.013 2.273 1.978 1.139c.105.06.14.192.079.295a.22.22 0 0 1-.19.107zM13.536 12.071a.221.221 0 0 1-.11-.028L1.914 5.53a.214.214 0 0 1-.081-.295.221.221 0 0 1 .299-.08l11.514 6.513c.105.059.141.19.08.294a.22.22 0 0 1-.19.108z"/>
            </g>
            <path fill="#00E7FF" d="M11.838 12.35a.217.217 0 0 1-.22-.215V10.89c0-.082.048-.156.122-.193l1.126-.555a.221.221 0 0 1 .295.097.214.214 0 0 1-.099.29l-1.005.494v1.11a.217.217 0 0 1-.22.216z"/>
            <path fill="#162C53" d="M10.742 12.851a.217.217 0 0 1-.22-.215v-2.373c0-.08.046-.154.118-.191l2.2-1.136a.22.22 0 0 1 .295.09.214.214 0 0 1-.092.292l-2.082 1.075v2.243c0 .119-.098.215-.219.215z"/>
            <path fill="#00E7FF" d="M2.487 7.018a.22.22 0 0 1-.185-.1.214.214 0 0 1 .067-.297l.923-.577.026-1.045a.22.22 0 0 1 .224-.21c.121.003.217.102.214.22l-.029 1.16a.216.216 0 0 1-.101.177l-1.022.639a.223.223 0 0 1-.117.033z"/>
            <path fill="#162C53" d="M2.51 8.228a.22.22 0 0 1-.19-.107.214.214 0 0 1 .08-.295l1.985-1.139.006-2.272c0-.12.099-.215.22-.215.12 0 .219.097.219.216l-.007 2.396a.215.215 0 0 1-.109.186l-2.094 1.2a.223.223 0 0 1-.11.03zM7.673 14.945a.217.217 0 0 1-.22-.216V2.561c0-.12.099-.216.22-.216s.22.096.22.216v12.168c0 .12-.099.216-.22.216z"/>
            <path fill="#00E7FF" d="M7.965 10.018l1.525.882-.367-1.703 1.54-.859L8.98 7.8l.014-1.741-1.316 1.164-1.525-.882.367 1.703-1.54.859 1.597.539-.014 1.741z"/>
            <path fill="#162C53" d="M6.563 11.398a.215.215 0 0 1-.22-.217l.013-1.587-1.447-.488a.217.217 0 0 1-.147-.184.215.215 0 0 1 .11-.208l1.4-.78-.334-1.55a.214.214 0 0 1 .087-.22.223.223 0 0 1 .239-.01l1.387.802 1.196-1.059a.221.221 0 0 1 .237-.036c.079.035.13.113.129.199L9.2 7.643l1.53.49a.215.215 0 1 1 .04.393l-1.4.78.334 1.55a.214.214 0 0 1-.086.22.223.223 0 0 1-.24.01l-1.39-.805-1.284 1.066a.222.222 0 0 1-.141.05zM5.512 8.853l1.136.384c.09.03.149.113.148.205l-.01 1.272 1.037-.861a.222.222 0 0 1 .253-.021l1.096.634-.263-1.225a.215.215 0 0 1 .106-.232l1.107-.617-1.21-.388a.216.216 0 0 1-.151-.207l.01-1.252-.946.837a.222.222 0 0 1-.258.026L6.47 6.773l.264 1.225a.215.215 0 0 1-.106.233l-1.116.622z"/>
        </g>
    </g>
</svg>
