<svg xmlns="http://www.w3.org/2000/svg" xmlns:xlink="http://www.w3.org/1999/xlink" width="8" height="14" viewBox="0 0 8 14">
    <defs>
        <path id="a" d="M0 0h8v13H0z"/>
    </defs>
    <g fill="none" fill-rule="evenodd" transform="translate(0 .5)">
        <mask id="b" fill="#fff">
            <use xlink:href="#a"/>
        </mask>
        <path fill="#F69A03" d="M2.995 12.932l4.968-8.634a.271.271 0 0 0-.269-.406l-3.304.454.79-4.184C5.205.02 5.025-.06 4.94.054L.055 6.562c-.142.19.009.46.243.434l3.643-.387-1.194 6.229c-.029.15.172.226.248.094" mask="url(#b)"/>
        <path fill="#935904" d="M1.41 6.103c-.081.007-.135-.093-.092-.172l3.253-5.9c-.048-.043-.124-.046-.17.023L.049 6.564c-.126.19.008.46.216.435l3.246-.387-1.064 6.23c-.014.085.036.144.094.158l1.823-6.54c.086-.306-.13-.613-.412-.587l-2.542.23" mask="url(#b)"/>
    </g>
</svg>
