<svg xmlns="http://www.w3.org/2000/svg" width="25" height="24" viewBox="0 0 25 24">
    <path fill="#019447" fill-rule="evenodd" d="M12.317 23.186a.628.628 0 0 1-.486-.23L1.817 10.783C.252 8.88-.133 6.264.811 3.954 1.71 1.754 3.619.3 5.919.065a7.372 7.372 0 0 1 6.398 2.587A7.372 7.372 0 0 1 18.715.066c2.3.235 4.21 1.689 5.108 3.889.945 2.31.56 4.927-1.006 6.83l-3.579 4.35a.629.629 0 0 1-.889.085.635.635 0 0 1-.084-.892l3.58-4.35c1.267-1.542 1.579-3.665.81-5.543-.718-1.759-2.239-2.921-4.066-3.107a6.125 6.125 0 0 0-5.746 2.73c-.234.352-.817.352-1.051 0a6.126 6.126 0 0 0-5.747-2.73c-1.827.186-3.348 1.348-4.066 3.108-.768 1.877-.456 4 .812 5.542l9.526 11.58 3.747-4.553a.63.63 0 0 1 .888-.085.636.636 0 0 1 .085.892l-4.233 5.145a.63.63 0 0 1-.487.23z"/>
</svg>
