<svg xmlns="http://www.w3.org/2000/svg" width="24" height="24" viewBox="0 0 24 24">
    <g fill="none" fill-rule="evenodd">
        <path fill="#FFF" d="M12.028 22.918c-6.005 0-10.89-4.885-10.89-10.89 0-6.005 4.885-10.89 10.89-10.89 6.005 0 10.89 4.885 10.89 10.89 0 6.005-4.885 10.89-10.89 10.89"/>
        <path stroke="#387012" stroke-width=".81" d="M12.028 22.918c-6.005 0-10.89-4.885-10.89-10.89 0-6.005 4.885-10.89 10.89-10.89 6.005 0 10.89 4.885 10.89 10.89 0 6.005-4.885 10.89-10.89 10.89z"/>
        <path fill="#387012" d="M3.38 10.519c.048-.056.367-.512-.066.839-.127.397-.649 1.504.708 1.946 1.356.442 3.229.094 3.092-2.268-.148-2.533-.51-5.26.201-5.27.712-.01.642 1.037.642 1.037s.646 7.01-2.259 7.73c-2.904.72-4.065-1.992-2.318-4.014M10.79 11.665s.467-1.317-.833-2.791c-1.3-1.476-1.377-1.024-1.395.205 0 0-.05.142.986.877 1.036.736 1.063.849 1.243 1.71"/>
        <path fill="#387012" d="M6.848 14.69s4.19-.872 4.915-3.837c.724-2.965 1.436-4.352 1.719-3.61.282.74-.296 5.703.524 6.319 1.238.927 4.52-.618 3.371-1.512-1.096-.852-2.332.29-2.332.29s-.09-.92 1.214-1.2c1.446-.31 2.378 1.075 3.039 1.623.661.55 1.575.117 1.575.117s-.158 1.142-.984 1.142c-.826-.001-2.041-.164-3.768.25-1.726.416-3.36.509-3.297-3.673 0 0-.937 5.08-5.976 4.092"/>
    </g>
</svg>
