<svg xmlns="http://www.w3.org/2000/svg" xmlns:xlink="http://www.w3.org/1999/xlink" width="16" height="15" viewBox="0 0 16 15">
    <defs>
        <path id="a" d="M.004.02h15.972v3.979H.004z"/>
    </defs>
    <g fill="none" fill-rule="evenodd">
        <path fill="#FFF" d="M14.998 6.071v8.541H.978V3.667h14.02"/>
        <path fill="#019447" d="M14.998 14.944H.978a.329.329 0 0 1-.326-.332V3.667c0-.183.146-.331.326-.331h14.02c.18 0 .326.148.326.331a.329.329 0 0 1-.326.332H1.304v10.282h13.368V6.07c0-.183.146-.332.326-.332.18 0 .326.149.326.332v8.541a.329.329 0 0 1-.326.332z"/>
        <path fill="#A9EC78" d="M2.608 13.286h5.87V9.637h-5.87z"/>
        <path fill="#A9EC78" d="M8.477 13.617H2.608a.329.329 0 0 1-.326-.331V9.637c0-.183.146-.331.326-.331h5.87c.18 0 .325.148.325.331v3.649a.329.329 0 0 1-.326.331zm-5.543-.663h5.217V9.969H2.934v2.985z"/>
        <g>
            <mask id="b" fill="#fff">
                <use xlink:href="#a"/>
            </mask>
            <path fill="#019447" d="M14.535.35H1.442C.826.35.326.86.326 1.487v2.181H15.65V1.486c0-.627-.5-1.135-1.115-1.135z" mask="url(#b)"/>
            <path fill="#019447" d="M15.65 3.999H.326A.329.329 0 0 1 0 3.667V1.486C0 .677.647.019 1.442.019h13.093c.795 0 1.441.658 1.441 1.467v2.181A.329.329 0 0 1 15.65 4zM.652 3.336h14.672v-1.85a.798.798 0 0 0-.79-.804H1.443c-.436 0-.79.361-.79.804v1.85z" mask="url(#b)"/>
        </g>
        <path fill="#F79521" d="M13.042 7.648l-1.63-.996-1.63.996v-3.98h3.26z"/>
        <path fill="#019447" d="M13.042 7.98a.322.322 0 0 1-.168-.048l-1.462-.893-1.463.893a.321.321 0 0 1-.328.004.333.333 0 0 1-.166-.289v-3.98c0-.183.146-.331.326-.331h3.261c.18 0 .326.148.326.331v3.98c0 .12-.063.23-.165.289a.32.32 0 0 1-.161.043zm-1.63-1.66c.058 0 .116.017.168.048l1.136.694V3.999h-2.608v3.063l1.136-.694a.322.322 0 0 1 .168-.047z"/>
        <path fill="#602F75" d="M7.173 11.296H3.587a.329.329 0 0 1-.327-.332c0-.183.147-.332.327-.332h3.586c.18 0 .326.149.326.332a.329.329 0 0 1-.326.332zM5.217 12.29h-1.63a.329.329 0 0 1-.327-.33c0-.184.147-.333.327-.333h1.63c.18 0 .326.149.326.332a.329.329 0 0 1-.326.332z"/>
    </g>
</svg>
