<svg xmlns="http://www.w3.org/2000/svg" xmlns:xlink="http://www.w3.org/1999/xlink" width="24" height="16" viewBox="0 0 24 16">
    <defs>
        <path id="a" d="M.004.065h23.934v2.007H.004z"/>
    </defs>
    <g fill="none" fill-rule="evenodd">
        <path fill="#FFF" d="M0 5.026v2.763c0 .63.5 1.313 1.126 1.512 0 0 5.299 2.05 12.583 1.52 3.205-.233 8.103-2.29 8.103-2.29.606-.24 1.097-.942 1.097-1.572V3.273L0 5.026z"/>
        <path fill="#162C53" d="M11.606 11.982c-5.925 0-10-1.655-10.193-1.735C.66 9.992.053 9.121.053 8.273v-2.93c0-.209.156-.383.36-.4l22.701-1.857a.38.38 0 0 1 .298.105c.08.076.126.183.126.295v3.907c0 .826-.583 1.72-1.328 2.037-.194.087-4.945 2.207-8.15 2.457-.848.066-1.667.095-2.454.095zM.837 5.714v2.559c0 .497.396 1.068.847 1.222.075.03 5.283 2.137 12.315 1.592 3.074-.24 7.854-2.373 7.902-2.395.465-.197.852-.79.852-1.299V3.921L.837 5.714z"/>
        <path fill="#EA3457" d="M12.271 9.089C6.68 9.089.822 7.219.498 5.878c-.324-1.342.68-3.412 7.245-2.609 0 0 6.566-3.01 9.735-2.81 3.17.201 6.793 1.701 5.434 4.31-.653 1.254-5.467 4.318-10.64 4.32z"/>
        <path fill="#162C53" d="M12.265 9.49C6.773 9.49.53 7.683.117 5.974A2.132 2.132 0 0 1 .583 4.03C1.63 2.817 4.019 2.424 7.682 2.857c.871-.392 6.766-2.987 9.82-2.798 2.116.134 4.908.878 5.813 2.535.394.72.374 1.537-.056 2.364-.72 1.384-5.619 4.53-10.988 4.532h-.006zM5.086 3.49c-2.54 0-3.532.627-3.915 1.07a1.325 1.325 0 0 0-.292 1.22c.231.958 5.647 2.906 11.386 2.906h.006c4.907-.001 9.678-2.922 10.295-4.106.307-.59.328-1.113.064-1.596-.599-1.096-2.727-1.97-5.176-2.125-3.037-.193-9.486 2.746-9.55 2.775a.382.382 0 0 1-.208.032 21.633 21.633 0 0 0-2.61-.176z"/>
        <path fill="#FFE600" d="M6.094 6.545a.45.45 0 0 1-.318-.131L3.405 4.043a.451.451 0 1 1 .638-.638l2.37 2.37a.451.451 0 0 1-.319.77zM19.185 4.364a.45.45 0 0 1-.319-.133l-2.37-2.37a.45.45 0 1 1 .638-.638l2.37 2.37a.45.45 0 0 1-.319.77zM10.494 7.636a.414.414 0 0 1-.293-.121L6.667 3.98a.415.415 0 0 1 .587-.587l3.534 3.534a.415.415 0 0 1-.294.708zM12.676 7.636a.414.414 0 0 1-.293-.121L8.849 3.98a.415.415 0 1 1 .587-.587l3.533 3.534a.415.415 0 0 1-.293.708zM14.858 6.545a.414.414 0 0 1-.294-.121L11.031 2.89a.415.415 0 0 1 .586-.587l3.534 3.534a.415.415 0 0 1-.293.708zM17.04 6.545a.413.413 0 0 1-.294-.121L13.212 2.89a.415.415 0 1 1 .587-.587l3.534 3.534a.415.415 0 0 1-.294.708z"/>
        <g transform="translate(0 13.09)">
            <mask id="b" fill="#fff">
                <use xlink:href="#a"/>
            </mask>
            <path fill="#2DA2DB" d="M23.546.867H9.026a.397.397 0 0 1-.393-.4c0-.223.176-.402.393-.402h14.52c.217 0 .392.18.392.401a.397.397 0 0 1-.392.401zM14.912 2.072H.392A.397.397 0 0 1 0 1.67c0-.221.176-.401.392-.401h14.52c.217 0 .393.18.393.401a.397.397 0 0 1-.393.402z" mask="url(#b)"/>
        </g>
    </g>
</svg>
