<svg xmlns="http://www.w3.org/2000/svg" xmlns:xlink="http://www.w3.org/1999/xlink" width="27" height="26" viewBox="0 0 27 26">
    <defs>
        <filter id="a" width="106.7%" height="137.5%" x="-3.3%" y="-18.8%" filterUnits="objectBoundingBox">
            <feOffset dy="2" in="SourceAlpha" result="shadowOffsetOuter1"/>
            <feGaussianBlur in="shadowOffsetOuter1" result="shadowBlurOuter1" stdDeviation="2"/>
            <feColorMatrix in="shadowBlurOuter1" result="shadowMatrixOuter1" values="0 0 0 0 0 0 0 0 0 0 0 0 0 0 0 0 0 0 0.5 0"/>
            <feMerge>
                <feMergeNode in="shadowMatrixOuter1"/>
                <feMergeNode in="SourceGraphic"/>
            </feMerge>
        </filter>
        <path id="b" d="M.004.023h18.868v4.7H.004z"/>
    </defs>
    <g fill="none" fill-rule="evenodd" filter="url(#a)" transform="translate(-98 -13)">
        <path fill="#FFF" d="M119.717 22.171v10.09h-16.562V19.332h16.562"/>
        <path fill="#019447" d="M119.717 32.653h-16.562a.388.388 0 0 1-.385-.392V19.332c0-.216.173-.392.385-.392h16.562c.212 0 .385.176.385.392a.389.389 0 0 1-.385.392H103.54V31.87h15.792v-9.698c0-.216.172-.391.385-.391.212 0 .385.175.385.391v10.09a.389.389 0 0 1-.385.392z"/>
        <path fill="#A9EC78" d="M105.081 30.694h6.933v-4.31h-6.933z"/>
        <path fill="#A9EC78" d="M112.014 31.085h-6.933a.388.388 0 0 1-.385-.391v-4.31c0-.216.173-.392.385-.392h6.933c.213 0 .385.176.385.392v4.31a.388.388 0 0 1-.385.391zm-6.548-.783h6.163v-3.526h-6.163v3.526z"/>
        <g transform="translate(102 15)">
            <mask id="c" fill="#fff">
                <use xlink:href="#b"/>
            </mask>
            <path fill="#019447" d="M17.17.414H1.702c-.728 0-1.318.6-1.318 1.341v2.577h18.102V1.755c0-.74-.59-1.34-1.318-1.34z" mask="url(#c)"/>
            <path fill="#019447" d="M18.487 4.724H.385A.388.388 0 0 1 0 4.332V1.755C0 .8.764.023 1.703.023H17.17c.94 0 1.703.777 1.703 1.732v2.577a.388.388 0 0 1-.385.392zM.77 3.94h17.332V1.755a.942.942 0 0 0-.933-.949H1.703a.942.942 0 0 0-.933.95V3.94z" mask="url(#c)"/>
        </g>
        <path fill="#7ED321" d="M117.406 24.034l-1.926-1.176-1.926 1.176v-4.702h3.852z"/>
        <path fill="#019447" d="M117.406 24.425a.38.38 0 0 1-.198-.056l-1.728-1.054-1.727 1.054a.38.38 0 0 1-.388.005.393.393 0 0 1-.196-.34v-4.702c0-.216.173-.392.385-.392h3.852c.213 0 .385.176.385.392v4.701a.393.393 0 0 1-.195.341.378.378 0 0 1-.19.051zm-1.926-1.959c.069 0 .137.02.198.056l1.343.82v-3.618h-3.081v3.618l1.342-.82a.38.38 0 0 1 .198-.056zM110.473 28.343h-4.236a.389.389 0 0 1-.386-.392c0-.216.173-.392.386-.392h4.236c.213 0 .385.176.385.392a.389.389 0 0 1-.385.392zM108.162 29.518h-1.925a.388.388 0 0 1-.386-.391c0-.217.173-.392.386-.392h1.925c.213 0 .386.175.386.392a.388.388 0 0 1-.386.391z"/>
    </g>
</svg>
