<svg xmlns="http://www.w3.org/2000/svg" width="32" height="32" viewBox="0 0 32 32">
    <defs>
        <filter id="a" width="106.7%" height="137.5%" x="-3.3%" y="-18.8%" filterUnits="objectBoundingBox">
            <feOffset dy="2" in="SourceAlpha" result="shadowOffsetOuter1"/>
            <feGaussianBlur in="shadowOffsetOuter1" result="shadowBlurOuter1" stdDeviation="2"/>
            <feColorMatrix in="shadowBlurOuter1" result="shadowMatrixOuter1" values="0 0 0 0 0 0 0 0 0 0 0 0 0 0 0 0 0 0 0.5 0"/>
            <feMerge>
                <feMergeNode in="shadowMatrixOuter1"/>
                <feMergeNode in="SourceGraphic"/>
            </feMerge>
        </filter>
    </defs>
    <g fill="none" fill-rule="evenodd" filter="url(#a)" transform="translate(-162 -10)">
        <path fill="#FFF" d="M178.737 19.5h11.093l-2.054 9.409H170.93l-.821-9.408h6.676"/>
        <path fill="#019447" d="M187.776 29.318H170.93a.41.41 0 0 1-.409-.374l-.822-9.408a.408.408 0 0 1 .41-.444h6.676a.41.41 0 1 1 0 .818h-6.228l.75 8.59h16.138l1.875-8.59h-10.583a.41.41 0 1 1 0-.818h11.093a.411.411 0 0 1 .402.496l-2.054 9.407a.41.41 0 0 1-.402.323z"/>
        <path fill="#019447" d="M170.108 19.91a.41.41 0 0 1-.408-.364l-.37-3.318h-2.92a.41.41 0 1 1 0-.818h3.288a.41.41 0 0 1 .408.364l.411 3.681a.41.41 0 0 1-.409.455zM171.34 32.999a.41.41 0 0 1-.407-.364l-.411-3.681a.411.411 0 0 1 .817-.09l.41 3.68a.41.41 0 0 1-.408.455z"/>
        <path fill="#EAF2EF" d="M173.396 34.226a1.64 1.64 0 0 1-1.644 1.636 1.64 1.64 0 0 1-1.643-1.636 1.64 1.64 0 0 1 1.643-1.636 1.64 1.64 0 0 1 1.644 1.636z"/>
        <path fill="#019447" d="M171.752 36.271a2.052 2.052 0 0 1-2.054-2.045c0-1.128.921-2.045 2.054-2.045 1.133 0 2.055.917 2.055 2.045a2.052 2.052 0 0 1-2.055 2.045zm0-3.272c-.68 0-1.233.55-1.233 1.227s.554 1.227 1.233 1.227c.68 0 1.233-.55 1.233-1.227s-.553-1.227-1.233-1.227z"/>
        <path fill="#EAF2EF" d="M187.365 34.226a1.64 1.64 0 0 1-1.643 1.636 1.64 1.64 0 0 1-1.644-1.636 1.64 1.64 0 0 1 1.644-1.636 1.64 1.64 0 0 1 1.643 1.636z"/>
        <path fill="#019447" d="M185.722 36.271a2.053 2.053 0 0 1-2.055-2.045c0-1.128.922-2.045 2.055-2.045 1.132 0 2.054.917 2.054 2.045a2.052 2.052 0 0 1-2.054 2.045zm0-3.272c-.68 0-1.233.55-1.233 1.227s.553 1.227 1.233 1.227 1.232-.55 1.232-1.227-.553-1.227-1.232-1.227z"/>
        <path fill="#019447" d="M184.078 34.635h-10.682a.41.41 0 1 1 0-.818h10.682a.41.41 0 1 1 0 .818z"/>
        <path fill="#BA222D" d="M187.182 19.91c0 3.991-3.229 7.227-7.213 7.227-3.983 0-7.212-3.236-7.212-7.227s3.23-7.227 7.212-7.227c3.984 0 7.213 3.236 7.213 7.227z"/>
        <path fill="#BD202E" d="M180.348 27.768c-4.338 0-7.868-3.536-7.868-7.884 0-4.347 3.53-7.884 7.868-7.884 4.34 0 7.869 3.537 7.869 7.884 0 4.348-3.53 7.884-7.869 7.884zm0-14.454c-3.615 0-6.557 2.948-6.557 6.57 0 3.623 2.942 6.57 6.557 6.57 3.616 0 6.557-2.947 6.557-6.57 0-3.622-2.941-6.57-6.557-6.57z"/>
        <text fill="#FFF" font-family="Aileron-Regular, Aileron" font-size="9.72" transform="translate(166 12)">
            <tspan x="8.232" y="10.69">10</tspan>
        </text>
    </g>
</svg>
