<svg xmlns="http://www.w3.org/2000/svg" xmlns:xlink="http://www.w3.org/1999/xlink" width="23" height="16" viewBox="0 0 23 16">
    <defs>
        <path id="a" d="M0 .05h19.927v13.688H0z"/>
    </defs>
    <g fill="none" fill-rule="evenodd">
        <path fill="#FFE600" d="M8.178 4.089L13.8.51v7.156z"/>
        <path fill="#162C53" d="M13.934 8.178a.38.38 0 0 1-.203-.059l-5.89-3.717a.371.371 0 0 1 0-.627L13.73.058a.383.383 0 0 1 .384-.013.37.37 0 0 1 .196.326v7.435a.37.37 0 0 1-.196.326.381.381 0 0 1-.18.046zm-5.191-4.09l4.815 3.039V1.05L8.743 4.09z"/>
        <path fill="#EA3457" d="M16.867 8.689l5.622-3.578L21.35 8.69l1.138 3.578z"/>
        <path fill="#162C53" d="M22.623 13.289a.38.38 0 0 1-.203-.059l-5.89-3.717a.37.37 0 0 1 0-.626l5.89-3.717a.381.381 0 0 1 .432.018.369.369 0 0 1 .13.407L21.826 9.2l1.156 3.605a.369.369 0 0 1-.13.407.38.38 0 0 1-.229.077zM17.431 9.2l4.52 2.852-.88-2.74a.367.367 0 0 1 0-.224l.88-2.74L17.43 9.2z"/>
        <g transform="translate(0 2.044)">
            <mask id="b" fill="#fff">
                <use xlink:href="#a"/>
            </mask>
            <path fill="#FFF" d="M18.047 9.477a10.323 10.323 0 0 1-8.083 3.891c-4.342 0-8.06-2.678-9.595-6.474C1.904 3.098 5.622.42 9.964.42c4.342 0 8.06 2.678 9.595 6.474-.177.437-.382.858-.614 1.262" mask="url(#b)"/>
            <path fill="#162C53" d="M9.964 13.738c-4.39 0-8.29-2.632-9.937-6.705a.37.37 0 0 1 0-.277A10.676 10.676 0 0 1 9.964.05c4.389 0 8.29 2.631 9.936 6.705a.368.368 0 0 1 0 .277c-.18.446-.393.885-.634 1.307a.37.37 0 0 1-.641-.368c.2-.348.379-.71.534-1.078A9.94 9.94 0 0 0 9.964.79 9.938 9.938 0 0 0 .768 6.894 9.94 9.94 0 0 0 9.964 13a9.934 9.934 0 0 0 7.795-3.753.37.37 0 0 1 .576.462 10.665 10.665 0 0 1-8.371 4.03z" mask="url(#b)"/>
        </g>
        <path fill="#00E7FF" d="M1.022 8.689C1.962 6.29 4.24 4.6 6.9 4.6s4.938 1.691 5.878 4.089c-.94 2.397-3.218 4.089-5.878 4.089s-4.938-1.692-5.878-4.09z"/>
        <path fill="#00E7FF" d="M6.645 13.289c-2.698 0-5.095-1.651-6.107-4.207a.373.373 0 0 1 0-.275C1.55 6.25 3.947 4.6 6.645 4.6c2.697 0 5.094 1.651 6.106 4.207a.373.373 0 0 1 0 .275c-1.012 2.556-3.409 4.207-6.106 4.207zM1.26 8.945c.932 2.198 3.03 3.61 5.385 3.61 2.354 0 4.452-1.413 5.384-3.61-.932-2.198-3.03-3.61-5.384-3.61-2.355 0-4.453 1.412-5.385 3.61z"/>
        <path fill="#162C53" d="M4.6 7.411a.767.767 0 1 1-1.533 0 .767.767 0 0 1 1.533 0z"/>
        <path fill="#FFE600" d="M11.756 8.337l-3.067 2.907V7.667z"/>
        <path fill="#162C53" d="M8.518 11.756a.328.328 0 0 1-.136-.03.353.353 0 0 1-.204-.323V8.019c0-.106.046-.207.126-.273a.33.33 0 0 1 .285-.072l2.896.635a.346.346 0 0 1 .259.252.36.36 0 0 1-.099.352l-2.896 2.75a.335.335 0 0 1-.23.093zm.341-3.302v2.147l1.838-1.744-1.838-.403z"/>
    </g>
</svg>
