<svg xmlns="http://www.w3.org/2000/svg" xmlns:xlink="http://www.w3.org/1999/xlink" width="61" height="19" viewBox="0 0 61 19">
    <defs>
        <path id="a" d="M0 .032h14.032v5.935H0z"/>
        <path id="c" d="M.013.031h7.832v7.87H.013z"/>
    </defs>
    <g fill="none" fill-rule="evenodd">
        <text fill="#4A4A4A" font-family="Helvetica" font-size="10.8">
            <tspan x="27.867" y="11.721">12.500</tspan>
        </text>
        <path fill="#FFFFFE" d="M3.4 14.877h8.635V9.75H3.4z"/>
        <path fill="#162C53" d="M3.67 14.607h8.096V10.02H3.67v4.587zm8.365.54H3.4a.27.27 0 0 1-.27-.27V9.75c0-.15.12-.27.27-.27h8.635c.15 0 .27.12.27.27v5.127a.27.27 0 0 1-.27.27z"/>
        <g transform="translate(.701 9.448)">
            <mask id="b" fill="#fff">
                <use xlink:href="#a"/>
            </mask>
            <path fill="#00E7FF" d="M13.763 5.7H.27V2.691c0-1.32 1.182-2.39 2.64-2.39l4.106 5.397L11.122.302c1.459 0 2.641 1.07 2.641 2.39v3.007" mask="url(#b)"/>
            <path fill="#162C53" d="M.54 5.43h5.932L2.78.574C1.533.636.54 1.562.54 2.692v2.737zm7.02 0h5.933V2.691c0-1.13-.993-2.056-2.24-2.117L7.562 5.43zm6.203.54H.27A.27.27 0 0 1 0 5.7V2.691C0 1.225 1.306.032 2.91.032a.27.27 0 0 1 .216.107l3.89 5.115L10.908.139a.27.27 0 0 1 .214-.107c1.605 0 2.91 1.193 2.91 2.66v3.007a.27.27 0 0 1-.269.27z" mask="url(#b)"/>
        </g>
        <path fill="#FFFFFE" d="M11.496 4.723v2.721c0 .976-.791 1.766-1.766 1.766H5.705c-.975 0-1.766-.79-1.766-1.766v-4.87c0-.359.292-.65.651-.65h6.255c.36 0 .65.291.65.65"/>
        <path fill="#162C53" d="M9.73 9.48H5.705A2.038 2.038 0 0 1 3.67 7.444v-4.87c0-.507.412-.92.92-.92h6.255c.508 0 .92.413.92.92a.27.27 0 1 1-.54 0c0-.21-.17-.38-.38-.38H4.59c-.21 0-.38.17-.38.38v4.87c0 .825.67 1.496 1.495 1.496H9.73c.825 0 1.496-.67 1.496-1.496v-2.72a.27.27 0 0 1 .54 0v2.72A2.038 2.038 0 0 1 9.73 9.48"/>
        <path fill="#F6D42F" d="M10.46 3.813H3.94V1.429c0-.62.503-1.124 1.124-1.124h7.241v1.663a1.845 1.845 0 0 1-1.845 1.845"/>
        <path fill="#162C53" d="M4.21 3.543h6.25c.869 0 1.575-.707 1.575-1.575V.575H5.064a.856.856 0 0 0-.855.854v2.114zm6.25.54H3.94a.27.27 0 0 1-.27-.27V1.429C3.67.66 4.295.035 5.064.035h7.241c.15 0 .27.12.27.27v1.663a2.117 2.117 0 0 1-2.115 2.115z"/>
        <path fill="#019447" d="M4.75 11.639V9.21h2.968L4.749 11.64"/>
        <path fill="#162C53" d="M5.019 9.48v1.59l1.943-1.59H5.019zm-.27 2.429a.27.27 0 0 1-.27-.27V9.21c0-.149.121-.27.27-.27h2.969a.27.27 0 0 1 .17.479L4.92 11.848a.27.27 0 0 1-.17.06z"/>
        <path fill="#019447" d="M10.686 11.639V9.21H7.718l2.968 2.429"/>
        <path fill="#162C53" d="M8.474 9.48l1.942 1.59V9.48H8.474zm2.212 2.429a.27.27 0 0 1-.17-.061l-2.97-2.429a.27.27 0 0 1 .172-.479h2.968c.15 0 .27.121.27.27v2.429a.27.27 0 0 1-.27.27z"/>
        <g>
            <path fill="#019447" d="M12.865 13.226v1.476c0 .815 1.973 1.476 4.406 1.476s4.405-.661 4.405-1.476v-1.476h-8.81z"/>
            <path fill="#162C53" d="M17.27 16.424c-2.254 0-4.65-.604-4.65-1.722v-1.476c0-.136.11-.246.245-.246h8.811c.136 0 .245.11.245.246v1.476c0 1.118-2.396 1.722-4.65 1.722zm-4.16-2.952v1.23c0 .514 1.583 1.23 4.16 1.23 2.579 0 4.161-.716 4.161-1.23v-1.23h-8.32z"/>
            <path fill="#FFF" d="M12.865 11.75v1.476c0 .815 1.973 1.476 4.406 1.476s4.405-.66 4.405-1.476V11.75h-8.81z"/>
            <path fill="#162C53" d="M17.27 14.948c-2.254 0-4.65-.603-4.65-1.722V11.75c0-.136.11-.246.245-.246h8.811c.136 0 .245.11.245.246v1.476c0 1.119-2.396 1.722-4.65 1.722zm-4.16-2.952v1.23c0 .514 1.583 1.23 4.16 1.23 2.579 0 4.161-.716 4.161-1.23v-1.23h-8.32z"/>
            <path fill="#FBB315" d="M12.865 10.274v1.476c0 .815 1.973 1.476 4.406 1.476s4.405-.66 4.405-1.476v-1.476h-8.81z"/>
            <path fill="#162C53" d="M17.27 13.472c-2.254 0-4.65-.604-4.65-1.722v-1.476c0-.136.11-.246.245-.246h8.811c.136 0 .245.11.245.246v1.476c0 1.118-2.396 1.722-4.65 1.722zm-4.16-2.952v1.23c0 .513 1.583 1.23 4.16 1.23 2.579 0 4.161-.717 4.161-1.23v-1.23h-8.32z"/>
            <path fill="#FFF" d="M12.78 8.804v1.476c0 .815 1.972 1.476 4.406 1.476 2.432 0 4.405-.66 4.405-1.476V8.804H12.78z"/>
            <path fill="#162C53" d="M17.25 12.068c-2.254 0-4.65-.604-4.65-1.722V8.87c0-.136.11-.246.245-.246h8.81c.136 0 .245.11.245.246v1.476c0 1.118-2.395 1.722-4.65 1.722zm-4.16-2.952v1.23c0 .513 1.583 1.23 4.16 1.23 2.578 0 4.16-.717 4.16-1.23v-1.23h-8.32z"/>
            <path fill="#019447" d="M21.59 8.84c0-.815-1.972-1.476-4.404-1.476-2.434 0-4.406.66-4.406 1.476 0 .815 1.972 1.476 4.406 1.476 2.432 0 4.405-.66 4.405-1.476z"/>
            <path fill="#162C53" d="M17.25 10.628c-2.254 0-4.65-.604-4.65-1.722 0-1.119 2.396-1.722 4.65-1.722 2.255 0 4.65.603 4.65 1.722 0 1.118-2.395 1.722-4.65 1.722zm0-2.952c-2.577 0-4.16.716-4.16 1.23s1.583 1.23 4.16 1.23c2.578 0 4.16-.716 4.16-1.23s-1.582-1.23-4.16-1.23z"/>
            <g transform="translate(18.237 10.98)">
                <mask id="d" fill="#fff">
                    <use xlink:href="#c"/>
                </mask>
                <path fill="#FFE600" d="M3.929.277C1.9.277.258 1.93.258 3.967c0 2.038 1.643 3.69 3.67 3.69 2.028 0 3.672-1.652 3.672-3.69A3.68 3.68 0 0 0 3.93.277z" mask="url(#d)"/>
                <path fill="#FFE600" d="M3.929 7.903c-2.16 0-3.916-1.765-3.916-3.936C.013 1.797 1.77.031 3.929.031s3.916 1.766 3.916 3.936-1.757 3.936-3.916 3.936zm0-7.38C2.039.523.502 2.068.502 3.967c0 1.9 1.537 3.444 3.427 3.444 1.89 0 3.426-1.545 3.426-3.444S5.818.523 3.93.523z" mask="url(#d)"/>
            </g>
            <path fill="#019447" d="M22.166 11.996a2.944 2.944 0 0 0-2.937 2.952 2.944 2.944 0 0 0 2.937 2.952 2.945 2.945 0 0 0 2.937-2.952 2.945 2.945 0 0 0-2.937-2.952z"/>
            <path fill="#162C53" d="M22.166 18.146a3.193 3.193 0 0 1-3.182-3.198 3.194 3.194 0 0 1 3.182-3.198 3.194 3.194 0 0 1 3.181 3.198 3.194 3.194 0 0 1-3.181 3.198zm0-5.904a2.702 2.702 0 0 0-2.692 2.706 2.702 2.702 0 0 0 2.692 2.706 2.702 2.702 0 0 0 2.692-2.706 2.702 2.702 0 0 0-2.692-2.706z"/>
            <text fill="#FFF" font-family="Aileron-Black, Aileron" font-size="4.5" font-weight="700" transform="translate(12.6 7.184)">
                <tspan x="8.216" y="8.884">P</tspan>
            </text>
        </g>
    </g>
</svg>
