<svg xmlns="http://www.w3.org/2000/svg" xmlns:xlink="http://www.w3.org/1999/xlink" width="15" height="12" viewBox="0 0 15 12">
    <defs>
        <path id="a" d="M.013.031h7.832v7.87H.013z"/>
    </defs>
    <g fill="none" fill-rule="evenodd">
        <path fill="#019447" d="M.865 6.226v1.476c0 .815 1.973 1.476 4.406 1.476s4.405-.661 4.405-1.476V6.226H.866z"/>
        <path fill="#162C53" d="M5.27 9.424C3.017 9.424.62 8.82.62 7.702V6.226c0-.136.11-.246.245-.246h8.811c.136 0 .245.11.245.246v1.476c0 1.118-2.396 1.722-4.65 1.722zM1.11 6.472v1.23c0 .514 1.583 1.23 4.16 1.23 2.579 0 4.161-.716 4.161-1.23v-1.23h-8.32z"/>
        <path fill="#FFF" d="M.865 4.75v1.476c0 .815 1.973 1.476 4.406 1.476s4.405-.66 4.405-1.476V4.75H.866z"/>
        <path fill="#162C53" d="M5.27 7.948c-2.254 0-4.65-.603-4.65-1.722V4.75c0-.136.11-.246.245-.246h8.811c.136 0 .245.11.245.246v1.476c0 1.119-2.396 1.722-4.65 1.722zM1.11 4.996v1.23c0 .514 1.583 1.23 4.16 1.23 2.579 0 4.161-.716 4.161-1.23v-1.23h-8.32z"/>
        <path fill="#FBB315" d="M.865 3.274V4.75c0 .815 1.973 1.476 4.406 1.476s4.405-.66 4.405-1.476V3.274H.866z"/>
        <path fill="#162C53" d="M5.27 6.472C3.017 6.472.62 5.868.62 4.75V3.274c0-.136.11-.246.245-.246h8.811c.136 0 .245.11.245.246V4.75c0 1.118-2.396 1.722-4.65 1.722zM1.11 3.52v1.23c0 .513 1.583 1.23 4.16 1.23 2.579 0 4.161-.717 4.161-1.23V3.52h-8.32z"/>
        <path fill="#FFF" d="M.78 1.804V3.28c0 .815 1.972 1.476 4.406 1.476 2.432 0 4.405-.66 4.405-1.476V1.804H.78z"/>
        <path fill="#162C53" d="M5.25 5.068C2.996 5.068.6 4.464.6 3.346V1.87c0-.136.11-.246.245-.246h8.81c.136 0 .245.11.245.246v1.476c0 1.118-2.395 1.722-4.65 1.722zM1.09 2.116v1.23c0 .513 1.583 1.23 4.16 1.23 2.578 0 4.16-.717 4.16-1.23v-1.23H1.09z"/>
        <path fill="#019447" d="M9.59 1.84c0-.815-1.972-1.476-4.404-1.476C2.752.364.78 1.024.78 1.84c0 .815 1.972 1.476 4.406 1.476 2.432 0 4.405-.66 4.405-1.476z"/>
        <path fill="#162C53" d="M5.25 3.628C2.996 3.628.6 3.024.6 1.906.6.787 2.996.184 5.25.184c2.255 0 4.65.603 4.65 1.722 0 1.118-2.395 1.722-4.65 1.722zm0-2.952c-2.577 0-4.16.716-4.16 1.23s1.583 1.23 4.16 1.23c2.578 0 4.16-.716 4.16-1.23S7.829.676 5.25.676z"/>
        <g transform="translate(6.237 3.98)">
            <mask id="b" fill="#fff">
                <use xlink:href="#a"/>
            </mask>
            <path fill="#FFE600" d="M3.929.277C1.9.277.258 1.93.258 3.967c0 2.038 1.643 3.69 3.67 3.69 2.028 0 3.672-1.652 3.672-3.69A3.68 3.68 0 0 0 3.93.277z" mask="url(#b)"/>
            <path fill="#FFE600" d="M3.929 7.903c-2.16 0-3.916-1.765-3.916-3.936C.013 1.797 1.77.031 3.929.031s3.916 1.766 3.916 3.936-1.757 3.936-3.916 3.936zm0-7.38C2.039.523.502 2.068.502 3.967c0 1.9 1.537 3.444 3.427 3.444 1.89 0 3.426-1.545 3.426-3.444S5.818.523 3.93.523z" mask="url(#b)"/>
        </g>
        <path fill="#019447" d="M10.166 4.996a2.944 2.944 0 0 0-2.937 2.952 2.944 2.944 0 0 0 2.937 2.952 2.945 2.945 0 0 0 2.937-2.952 2.945 2.945 0 0 0-2.937-2.952z"/>
        <path fill="#162C53" d="M10.166 11.146a3.193 3.193 0 0 1-3.182-3.198 3.194 3.194 0 0 1 3.182-3.198 3.194 3.194 0 0 1 3.181 3.198 3.194 3.194 0 0 1-3.181 3.198zm0-5.904a2.702 2.702 0 0 0-2.692 2.706 2.702 2.702 0 0 0 2.692 2.706 2.702 2.702 0 0 0 2.692-2.706 2.702 2.702 0 0 0-2.692-2.706z"/>
        <text fill="#FFF" font-family="Aileron-Black, Aileron" font-size="4.5" font-weight="700" transform="translate(.6 .184)">
            <tspan x="8.216" y="8.884">P</tspan>
        </text>
    </g>
</svg>
