<svg xmlns="http://www.w3.org/2000/svg" xmlns:xlink="http://www.w3.org/1999/xlink" width="78" height="16" viewBox="0 0 78 16">
    <defs>
        <path id="a" d="M0 .009h77.708v15.61H0z"/>
    </defs>
    <g fill="none" fill-rule="evenodd">
        <path fill="#F79521" d="M19.033 3v5.635l2.425-2.762h2.133v.098l-2.937 3.138L24 12.624v.126h-2.148l-2.82-3.11v3.11H17.25V3zM24 12.75h1.5V3H24z"/>
        <g>
            <mask id="b" fill="#fff">
                <use xlink:href="#a"/>
            </mask>
            <path fill="#F79521" d="M26.713 13.007h1.665v-7.23h-1.665v7.23zm1.815-9.231c0 1.387-1.966 1.387-1.966 0 0-1.388 1.966-1.388 1.966 0zM31.176 2.797v5.901l2.266-2.892h1.993v.102L32.69 9.195l3.126 3.68v.132H33.81L31.176 9.75v3.257h-1.665V2.797z" mask="url(#b)"/>
            <path fill="#019447" d="M37.919 2.782v4.002c.6-.832 1.338-1.08 2.102-1.08 1.91 0 2.757 1.387 2.757 3.505v3.798h-1.665V9.224c0-1.315-.642-1.87-1.529-1.87-.983 0-1.665.891-1.665 1.972v3.681h-1.665V2.782h1.665zM45.208 9.414c0 1.095.614 2.118 1.829 2.118 1.215 0 1.829-1.023 1.829-2.118 0-1.081-.71-2.133-1.829-2.133-1.2 0-1.829 1.052-1.829 2.133m5.337 0c0 2.074-1.324 3.754-3.508 3.754s-3.494-1.68-3.494-3.754c0-2.06 1.337-3.754 3.48-3.754 2.144 0 3.522 1.694 3.522 3.754M52.906 5.806l.124.833c.518-.892 1.214-1.023 1.897-1.023.696 0 1.365.292 1.733.687l-.75 1.548c-.342-.307-.656-.468-1.202-.468-.873 0-1.678.497-1.678 1.826v3.798h-1.666V5.806h1.542zM62.038 8.567c-.109-.935-.792-1.403-1.747-1.403-.901 0-1.638.468-1.884 1.403h3.631zm-3.658 1.475c.11.891.833 1.534 2.006 1.534.614 0 1.42-.249 1.802-.672l1.065 1.125c-.71.788-1.87 1.168-2.894 1.168-2.32 0-3.699-1.534-3.699-3.842 0-2.19 1.393-3.768 3.576-3.768 2.252 0 3.658 1.49 3.399 4.455H58.38zM70.364 12.087c-.778.818-1.597 1.14-2.593 1.14-1.952 0-3.576-1.257-3.576-3.813S65.819 5.6 67.77 5.6c.955 0 1.692.293 2.43 1.067L69.15 7.85a1.972 1.972 0 0 0-1.352-.57c-1.12 0-1.938.877-1.938 2.133 0 1.373.874 2.103 1.911 2.103.532 0 1.065-.16 1.474-.599l1.12 1.169zM72.07 9.4c0 1.372.888 2.19 1.994 2.19 2.62 0 2.62-4.367 0-4.367-1.106 0-1.993.803-1.993 2.176zm4.04-3.594h1.598v7.201h-1.57l-.082-1.051c-.382.847-1.433 1.256-2.183 1.27-1.993.015-3.467-1.3-3.467-3.827 0-2.483 1.542-3.783 3.507-3.769.901 0 1.761.453 2.143 1.17l.055-.994zM10.124 11.08l-.5-.203v.041l.472.23zM5.647 5.74l.07.335.022-.015-.046-.33z" mask="url(#b)"/>
            <path fill="#BD202E" d="M7.733 3.978c-.038.046-.66.218-.622.453.025.16.553.072.685.065.132-.007.123.056.115.125-.01.07-.675.302-.647.454.028.152.74.199.783.236.04.037.002.071.002.071-1.237.366-1.476-.247-1.476-.247l-.687.066.184-.68.367.014c.35-.723 1.155-.654 1.21-.645.112.018.11.058.086.088M12.433 9.273l-.545.603a.316.316 0 0 1-.064.054l-.042-.849s-.68-.179-.722-.668c-.043-.489.197-1.242.621-1.336.424-.095.883.4 1.009.682.126.281.26.798-.282 1.171l.025.343z" mask="url(#b)"/>
            <path fill="#F1F1F1" d="M11.786 7.332s.465.049.67.53c.322.749-.265.964-.366.967-.854.026-.75-.662-.704-.945.046-.283.163-.554.4-.552" mask="url(#b)"/>
            <path fill="#F79521" d="M7.142 8.157a.529.529 0 0 1-1.034.218.528.528 0 0 1 1.034-.218" mask="url(#b)"/>
            <path fill="#C2986C" d="M9.189 4.604c.226.25.255.59.065.761-.19.17-.528.106-.754-.144-.226-.25-.255-.59-.065-.76.19-.171.528-.107.754.143" mask="url(#b)"/>
            <path fill="#019447" d="M13.35 6.844a.434.434 0 1 1-.849.18.434.434 0 1 1 .849-.18M12.907 3.803a.419.419 0 0 1-.832-.11.419.419 0 0 1 .832.11" mask="url(#b)"/>
            <path fill="#F79521" d="M13.245 5.146a.263.263 0 1 1-.523.061.263.263 0 1 1 .523-.061M10.046 4.137c.01.166-.094.321-.23.346-.135.026-.253-.088-.263-.255-.009-.166.094-.32.23-.346.136-.026.254.089.263.255" mask="url(#b)"/>
            <path fill="#019447" d="M5.634 7.996a.257.257 0 0 1-.51-.068.257.257 0 0 1 .51.068M7.867 2.95a.267.267 0 0 1-.531-.07.268.268 0 0 1 .53.07" mask="url(#b)"/>
            <path fill="#BD202E" d="M8.298 10.972a.288.288 0 0 1-.572-.076.289.289 0 0 1 .572.076M12.322 6.08a.215.215 0 0 1-.426-.057.215.215 0 0 1 .426.056" mask="url(#b)"/>
            <path fill="#C2986C" d="M15.009 5.271a.322.322 0 0 1-.25.382c-.175.037-.452-.09-.49-.264-.037-.174.18-.33.355-.367a.324.324 0 0 1 .385.249" mask="url(#b)"/>
            <path fill="#019447" d="M8.07 10.024c-.03-.016-.557-.304-.61-.904-.053-.6.233-.685.233-.685.157.737.799.6.67 1.339-.04.232-.076.307-.076.307l-.273-.396.175.403-.12-.064zM8.606 8.554c.006-.025.11-.458.551-.678.442-.22.41-.159.41-.159s-.147.807-.71.952c-.183.047-.248.044-.248.044l.24-.3-.266.239.023-.098zM9.016 3.122c-.007-.025-.134-.452.14-.86.273-.41.276-.342.276-.342s.275.774-.14 1.177a1.043 1.043 0 0 1-.193.161l.058-.38-.112.34-.029-.096z" mask="url(#b)"/>
            <path fill="#BD202E" d="M10.847 5.136s-.522-.164-1.199.42c-.443.382-1.272.411-1.17.782.102.37.451.616.858.524.406-.092 1.363.11 1.57.126.209.015.61-.383.675-.754.066-.371-.127-1.052-.734-1.098" mask="url(#b)"/>
            <path fill="#991B28" d="M11.08 6.404a.5.5 0 0 1-.701.07.493.493 0 0 1-.071-.697.5.5 0 0 1 .7-.07.493.493 0 0 1 .071.697" mask="url(#b)"/>
            <path fill="#BD202E" d="M9.745 10.666s-.983-.222-1.104-.359c-.12-.137-.114.075-.1.079.014.003.3.42.65.573.262.115.423.18.564.029.105-.112.173-.224-.01-.322" mask="url(#b)"/>
            <path fill="#F79521" d="M7.476 5.806s-.764.395-.81.833c-.038.38.496.277.496.277s.65-.08.83-.218c.123-.094.448-.41.087-.829-.195-.226-.603-.063-.603-.063" mask="url(#b)"/>
            <path fill="#FAB042" d="M7.475 5.805s-.768.375-.82.776c-.046.348.487.244.487.244s.649-.086.831-.215c.125-.088.454-.382.102-.758-.19-.203-.6-.047-.6-.047" mask="url(#b)"/>
            <path fill="#F79521" d="M8.066 6.145a.285.285 0 0 1-.557.118.285.285 0 0 1 .557-.118" mask="url(#b)"/>
            <path fill="#991B28" d="M5.416 6.625s.316.736.704.807c.335.06.268-.443.268-.443s-.042-.609-.155-.786c-.078-.12-.343-.442-.733-.134-.21.166-.084.556-.084.556" mask="url(#b)"/>
            <path fill="#019447" d="M5.716 5.953s-.012-.115.076-.166c.088-.051.177-.037.177-.037s.008.193-.253.203" mask="url(#b)"/>
            <path fill="#991B28" d="M8.584 6.09s.03.286.365.445c.336.159 1.597.146 1.758.189.16.042.453-.03.576-.194.124-.164.256-.54.289-.582.03.274-.02.43-.02.43s-.068.194-.22.379c-.105.127-.153.276-.381.273-.229-.004-.203-.036-.43.011-.228.047-.596-.036-.851-.103-.255-.068-.606.029-.784-.054-.59-.273-.416-.698-.416-.698l.114-.096z" mask="url(#b)"/>
            <path fill="#C2986C" d="M7.195 7.81c.006-.022-.233-.627.376-.707.476-.063.668.25.97.278.301.03.741-.151.741-.151s.171-.176.333-.135c.162.041.181.272.034.342s-.253.035-.302.045c-.05.01-.667 0-.804.16-.136.16-.45.469-.858.491-.48.027-.49-.323-.49-.323" mask="url(#b)"/>
            <path fill="#019447" d="M8.964 13.286c-1.324 0-2.665-.441-3.898-1.311C2.06 9.854 3.513 5.35 4.434 3.219L.367 3.046l.07-1.631 6.621.283-.63 1.15c-.032.057-3.114 5.889-.412 7.795 1.596 1.127 3.406 1.313 4.965.512 1.497-.769 2.464-2.276 2.464-3.84h1.641c0 2.168-1.315 4.244-3.352 5.29a6.027 6.027 0 0 1-2.77.68M10.818 15.06a.536.536 0 0 1-.537-.534c0-.296.24-.535.537-.535a.536.536 0 0 1 0 1.07m.016-1.628c-.607 0-1.1.489-1.1 1.093 0 .603.493 1.093 1.1 1.093.607 0 1.1-.49 1.1-1.093 0-.604-.493-1.093-1.1-1.093M3.26 12.874a.536.536 0 1 1 0-1.07c.297 0 .537.24.537.535 0 .296-.24.535-.537.535m0-1.628c-.607 0-1.1.49-1.1 1.093 0 .604.493 1.093 1.1 1.093.607 0 1.099-.49 1.099-1.093 0-.604-.492-1.093-1.1-1.093" mask="url(#b)"/>
            <path fill="#FEFEFE" d="M8.536 4.609s.44.18.485.343c.045.163.363.308.363.308l-.086.115s-.26-.201-.318-.373c-.04-.121-.444-.393-.444-.393" mask="url(#b)"/>
            <path fill="#C2986C" d="M5.337 9.16a.37.37 0 0 1 .226-.33c.119-.05.286-.066.494.052.44.249.425.605.623.672.199.066.533.077.679.281.145.205.156.863-.205.858-.36-.005-.611-.703-.823-.785-.211-.082-.63-.057-.886-.347-.096-.11-.113-.275-.108-.402" mask="url(#b)"/>
            <path fill="#FAB042" d="M10.667 7.971l.148.953.068.437.097.628-2.041-.821.407-.282.355-.246z" mask="url(#b)"/>
            <path fill="#F79521" d="M10.98 9.989l-.105.653-2.03-1.08.094-.394.127-.027.883.391a.312.312 0 1 0 .57.253l.46.204zM10.815 8.924l.068.437h-.001a.223.223 0 0 1-.264-.17.222.222 0 0 1 .171-.263c.01-.002.017-.004.026-.004M10.57 8.473a.12.12 0 0 1-.234.05.118.118 0 0 1 .092-.142.12.12 0 0 1 .141.092M9.785 8.773a.225.225 0 0 1-.175.267.227.227 0 0 1-.264-.154l.355-.246c.04.031.072.078.084.133" mask="url(#b)"/>
            <path fill="#DA8127" d="M10.52 9.785a.312.312 0 1 1-.57-.253l.57.253z" mask="url(#b)"/>
            <path fill="#F79521" d="M10.54 9.594a.308.308 0 0 1-.02.19l-.57-.252a.312.312 0 0 1 .59.062" mask="url(#b)"/>
            <path fill="#FAB042" d="M10.187 3.921l.356-.119.164-.054.235-.078-.182.83-.135-.137-.118-.118z" mask="url(#b)"/>
            <path fill="#F79521" d="M10.942 3.67l.258-.003-.282.843-.158-.01-.018-.047.092-.361c.024.005.05.004.075-.005a.12.12 0 0 0-.015-.23l.048-.187zM10.543 3.802l.164-.054a.086.086 0 1 1-.164.054M10.386 3.925a.046.046 0 1 1 .034.086.046.046 0 0 1-.06-.026.046.046 0 0 1 .026-.06M10.553 4.204a.088.088 0 0 1 .114.049.087.087 0 0 1-.042.11l-.118-.118a.091.091 0 0 1 .046-.041" mask="url(#b)"/>
            <path fill="#DA8127" d="M10.894 3.858c.036.01.068.035.083.072a.12.12 0 0 1-.068.157.122.122 0 0 1-.075.004l.06-.233z" mask="url(#b)"/>
            <path fill="#F79521" d="M10.82 3.863a.124.124 0 0 1 .074-.005l-.06.233a.12.12 0 0 1-.015-.228" mask="url(#b)"/>
            <path fill="#019447" d="M.913.044l-.208 4.19.208-4.19zM1.41 4.269L0 4.199.208.01l1.41.07zM3.196.158l-.208 4.19.208-4.19zM3.694 4.383l-1.411-.069.208-4.19L3.9.192zM28.824 3.584a1.308 1.308 0 0 1-2.558.54 1.3 1.3 0 0 1 1.008-1.542c.706-.15 1.4.299 1.55 1.002" mask="url(#b)"/>
        </g>
    </g>
</svg>
