<svg xmlns="http://www.w3.org/2000/svg" width="30" height="26" viewBox="0 0 30 26">
    <g fill="none" fill-rule="evenodd">
        <path fill="#FFF" d="M15.725 5.26H29.42l-2.536 11.615H6.087L5.072 5.26h8.243"/>
        <path fill="#019447" d="M26.884 17.38H6.087a.506.506 0 0 1-.505-.462L4.567 5.304a.504.504 0 0 1 .505-.549h8.243a.506.506 0 1 1 0 1.01h-7.69l.927 10.605h19.923L28.79 5.765H15.725a.506.506 0 1 1 0-1.01H29.42a.508.508 0 0 1 .496.613L27.38 16.982a.507.507 0 0 1-.496.398z"/>
        <path fill="#019447" d="M5.072 5.765a.506.506 0 0 1-.504-.45L4.111 1.22H.507a.506.506 0 1 1 0-1.01h4.058c.259 0 .476.194.505.45l.507 4.544a.506.506 0 0 1-.505.561zM6.594 21.925a.507.507 0 0 1-.504-.45l-.507-4.545a.507.507 0 0 1 1.009-.112l.506 4.546a.506.506 0 0 1-.504.56z"/>
        <path fill="#EAF2EF" d="M9.13 23.44c0 1.115-.908 2.02-2.029 2.02a2.025 2.025 0 0 1-2.029-2.02c0-1.116.909-2.02 2.03-2.02 1.12 0 2.028.904 2.028 2.02z"/>
        <path fill="#019447" d="M7.101 25.965a2.534 2.534 0 0 1-2.536-2.525 2.533 2.533 0 0 1 2.536-2.525 2.534 2.534 0 0 1 2.537 2.525A2.534 2.534 0 0 1 7.1 25.965zm0-4.04A1.52 1.52 0 0 0 5.58 23.44 1.52 1.52 0 0 0 7.1 24.954c.84 0 1.522-.679 1.522-1.514a1.52 1.52 0 0 0-1.522-1.515z"/>
        <path fill="#EAF2EF" d="M26.377 23.44c0 1.115-.908 2.02-2.03 2.02-1.12 0-2.028-.905-2.028-2.02 0-1.116.908-2.02 2.029-2.02 1.12 0 2.029.904 2.029 2.02z"/>
        <path fill="#019447" d="M24.348 25.965a2.534 2.534 0 0 1-2.537-2.525 2.534 2.534 0 0 1 2.537-2.525 2.533 2.533 0 0 1 2.536 2.525 2.534 2.534 0 0 1-2.536 2.525zm0-4.04c-.84 0-1.522.68-1.522 1.515a1.52 1.52 0 0 0 1.522 1.514c.839 0 1.521-.679 1.521-1.514a1.52 1.52 0 0 0-1.521-1.515z"/>
        <path fill="#019447" d="M22.319 23.944H9.13a.506.506 0 1 1 0-1.01H22.32a.506.506 0 1 1 0 1.01z"/>
    </g>
</svg>
