<svg xmlns="http://www.w3.org/2000/svg" width="31" height="21" viewBox="0 0 31 21">
    <g fill="none" fill-rule="evenodd">
        <path fill="#7ED321" d="M3.176 1.413h24.518c1.083 0 1.961.878 1.961 1.961v14.711a1.961 1.961 0 0 1-1.961 1.962H3.176a1.961 1.961 0 0 1-1.962-1.962V3.375c0-1.084.878-1.962 1.962-1.962"/>
        <path fill="#049549" d="M15.435 10.731a2.913 2.913 0 0 1-1.5-.416L4.8 4.835a.417.417 0 0 1 .43-.715l9.133 5.48c.66.397 1.485.397 2.144 0l9.134-5.48a.417.417 0 1 1 .43.714l-9.135 5.48a2.914 2.914 0 0 1-1.5.417M4.015 17.398a.417.417 0 0 1-.417-.417V6.144a.417.417 0 0 1 .834 0v10.837c0 .23-.187.417-.417.417M26.856 17.398a.417.417 0 0 1-.417-.417V6.144a.417.417 0 0 1 .833 0v10.837c0 .23-.186.417-.416.417"/>
        <path fill="#049549" d="M29.165 18.085c0 .813-.659 1.471-1.471 1.471H3.176a1.471 1.471 0 0 1-1.471-1.47V3.373c0-.812.658-1.47 1.47-1.47h24.519c.812 0 1.47.658 1.47 1.47v14.711zM27.694.922H3.176A2.455 2.455 0 0 0 .724 3.374v14.711a2.455 2.455 0 0 0 2.452 2.452h24.518a2.455 2.455 0 0 0 2.452-2.452V3.375A2.455 2.455 0 0 0 27.694.921z"/>
    </g>
</svg>
