<svg xmlns="http://www.w3.org/2000/svg" xmlns:xlink="http://www.w3.org/1999/xlink" width="12" height="21" viewBox="0 0 12 21">
    <defs>
        <path id="a" d="M0 0h12v20H0z"/>
    </defs>
    <g fill="none" fill-rule="evenodd" transform="translate(0 .41)">
        <mask id="b" fill="#fff">
            <use xlink:href="#a"/>
        </mask>
        <path fill="#F9C962" d="M4.493 19.895l7.452-13.283c.168-.3-.071-.67-.404-.624l-4.957.698L7.77.249c.04-.217-.23-.341-.36-.165L.084 10.096c-.213.291.013.706.364.668l5.465-.596-1.792 9.583c-.043.23.259.348.373.144" mask="url(#b)"/>
        <path fill="#F3B253" d="M2.115 9.39c-.122.01-.203-.144-.138-.265L6.857.048c-.072-.067-.187-.071-.256.035L.074 10.099c-.19.292.011.707.324.668l4.869-.595-1.596 9.586c-.022.13.053.22.14.242L6.548 9.94c.128-.472-.196-.945-.62-.905l-3.812.354" mask="url(#b)"/>
    </g>
</svg>
