<svg xmlns="http://www.w3.org/2000/svg" width="12" height="13" viewBox="0 0 12 13">
    <g fill="#019447" fill-rule="evenodd">
        <path d="M11.594 13H.283A.276.276 0 0 1 0 12.732V11.3c0-1.124 1.107-2.04 2.473-2.05l1.775-.276c.155-.023.3.075.325.22a.27.27 0 0 1-.233.308l-1.798.28a.308.308 0 0 1-.046.004c-1.064 0-1.93.68-1.93 1.514v1.164H11.31V11.3c0-.835-.867-1.514-1.931-1.514a.308.308 0 0 1-.046-.004L7.61 9.514a.27.27 0 0 1-.234-.308.282.282 0 0 1 .325-.22l1.704.264c1.365.01 2.472.926 2.472 2.05v1.432a.276.276 0 0 1-.282.268"/>
        <path d="M4.524 9.052c.9.243 1.929.243 2.828 0V8.18H4.524v.873zm1.414.717a5.98 5.98 0 0 1-1.786-.265.27.27 0 0 1-.193-.254V7.91c0-.147.126-.267.283-.267h3.393c.156 0 .283.12.283.268V9.25a.27.27 0 0 1-.194.254 5.982 5.982 0 0 1-1.786.265z"/>
        <path d="M7.597 8.179H4.28c-.8 0-1.451-.617-1.451-1.375V3.307c0-.148.127-.268.283-.268.156 0 .282.12.282.268v3.497c0 .462.398.839.886.839h3.318c.489 0 .886-.377.886-.84V2.019c0-.148.127-.268.283-.268.156 0 .283.12.283.268v4.786c0 .758-.651 1.375-1.452 1.375"/>
        <path d="M2.545 1.214v.58c0 .862.74 1.563 1.65 1.563h4.288V2.063c0-.468-.402-.849-.895-.849H2.545zm6.22 2.679h-4.57c-1.222 0-2.216-.942-2.216-2.1V.947c0-.147.127-.267.283-.267h5.326c.805 0 1.46.62 1.46 1.384v1.562a.276.276 0 0 1-.282.268z"/>
    </g>
</svg>
