<svg xmlns="http://www.w3.org/2000/svg" width="24" height="25" viewBox="0 0 24 25">
    <g fill="none" fill-rule="evenodd">
        <path fill="#2CB742" d="M.424 24.245L2.44 18.2a11.446 11.446 0 0 1-1.612-5.874C.828 5.964 5.984.808 12.346.808c6.36 0 11.515 5.156 11.515 11.518 0 6.36-5.156 11.517-11.515 11.517-1.936 0-3.76-.48-5.36-1.324L.425 24.245z"/>
        <path fill="#FFF" d="M19.05 16.426c-.514-.97-2.41-2.08-2.41-2.08-.429-.247-.946-.274-1.19.163 0 0-.616.739-.773.845-.716.485-1.378.466-2.048-.204l-3.11-3.11c-.668-.668-.687-1.332-.203-2.047.107-.156.845-.773.845-.773.435-.246.408-.763.164-1.192 0 0-1.112-1.895-2.083-2.408a1.062 1.062 0 0 0-1.251.188l-.687.687c-2.178 2.178-1.106 4.637 1.072 6.815l3.983 3.982c2.178 2.178 4.639 3.252 6.817 1.074l.687-.687c.33-.332.406-.84.187-1.253z"/>
    </g>
</svg>
