<svg xmlns="http://www.w3.org/2000/svg" xmlns:xlink="http://www.w3.org/1999/xlink" width="56" height="32" viewBox="0 0 56 32">
    <defs>
        <path id="a" d="M.01.117H11v1.82H.01z"/>
    </defs>
    <g fill="none" fill-rule="evenodd">
        <path fill="#FFF" d="M13 17.202V5.424C13 2.98 14.952 1 17.36 1h18.28C38.047 1 40 2.98 40 5.424V21.96a.04.04 0 0 1-.039.039H13"/>
        <path fill="#162C53" d="M40.087 22H13.875a.877.877 0 0 1-.875-.88c0-.487.392-.88.875-.88H39.25V5.144c0-1.865-1.51-3.384-3.364-3.384H18.114c-1.855 0-3.364 1.519-3.364 3.384v11.352c0 .487-.392.88-.875.88a.878.878 0 0 1-.875-.88V5.144C13 2.308 15.294 0 18.114 0h17.772C38.706 0 41 2.308 41 5.144v15.939c0 .486-.43.917-.913.917z"/>
        <path fill="#64C3D7" d="M10.1 3H2.9C2.403 3 2 2.552 2 2s.403-1 .9-1h7.2c.497 0 .9.448.9 1s-.403 1-.9 1z"/>
        <g transform="translate(0 6)">
            <mask id="b" fill="#fff">
                <use xlink:href="#a"/>
            </mask>
            <path fill="#00E7FF" d="M10.153 1.937H7.615c-.467 0-.846-.407-.846-.91 0-.503.379-.91.846-.91h2.538c.468 0 .846.407.846.91 0 .503-.378.91-.846.91zM5.077 1.937H.847C.378 1.937 0 1.53 0 1.027c0-.503.379-.91.846-.91h4.231c.467 0 .846.407.846.91 0 .503-.379.91-.846.91z" mask="url(#b)"/>
        </g>
        <path fill="#64C3D7" d="M10.167 12H6.833C6.373 12 6 11.552 6 11s.373-1 .833-1h3.334c.46 0 .833.448.833 1s-.373 1-.833 1z"/>
        <path fill="#F79521" d="M51.956 27H15v-6h40v2.934C55 25.627 53.637 27 51.956 27z"/>
        <path fill="#162C53" d="M51.983 29H13.877a.883.883 0 0 1-.877-.889V21.89c0-.492.393-.889.877-.889h41.245c.484 0 .878.397.878.889v3.042C56 27.174 54.198 29 51.983 29zm-37.228-1.778h37.228c1.247 0 2.262-1.028 2.262-2.291v-2.153h-39.49v4.444z"/>
        <path fill="#019447" d="M40 7h6.264C51.089 7 55 10.879 55 15.663V21H40V7z"/>
        <path fill="#162C53" d="M55.105 22h-15.21a.891.891 0 0 1-.895-.889V6.89c0-.491.4-.889.895-.889h6.351C51.624 6 56 10.347 56 15.69v5.421a.892.892 0 0 1-.895.889zm-14.316-1.778H54.21V15.69c0-4.362-3.573-7.912-7.964-7.912H40.79v12.444z"/>
        <path fill="#FFF" d="M53 16H43v-5h4.545C50.558 11 53 13.238 53 16z"/>
        <path fill="#162C53" d="M52.154 17h-9.308c-.467 0-.846-.391-.846-.875v-5.25c0-.483.379-.875.846-.875h4.23C50.344 10 53 12.748 53 16.125c0 .484-.379.875-.846.875zm-8.462-1.75h7.53c-.392-1.994-2.102-3.5-4.145-3.5h-3.385v3.5z"/>
        <path fill="#FFF" d="M24 27.5a3.5 3.5 0 1 1-7 0 3.5 3.5 0 0 1 7 0z"/>
        <path fill="#162C53" d="M21.5 32c-2.481 0-4.5-2.019-4.5-4.5s2.019-4.5 4.5-4.5 4.5 2.019 4.5 4.5-2.019 4.5-4.5 4.5zm0-7.2a2.703 2.703 0 0 0-2.7 2.7c0 1.489 1.211 2.7 2.7 2.7s2.7-1.211 2.7-2.7-1.211-2.7-2.7-2.7z"/>
        <path fill="#FFF" d="M52 27.5a3.5 3.5 0 1 1-7 0 3.5 3.5 0 0 1 7 0z"/>
        <path fill="#162C53" d="M48.5 32a4.506 4.506 0 0 1-4.5-4.5c0-2.481 2.02-4.5 4.5-4.5 2.481 0 4.5 2.019 4.5 4.5S50.981 32 48.5 32zm0-7.2a2.704 2.704 0 0 0-2.7 2.7c0 1.489 1.211 2.7 2.7 2.7s2.7-1.211 2.7-2.7-1.211-2.7-2.7-2.7z"/>
        <path fill="#162C53" d="M55.126 32H1.873C1.391 32 1 31.553 1 31c0-.553.39-1 .873-1h53.253c.483 0 .874.447.874 1 0 .553-.391 1-.874 1z"/>
    </g>
</svg>
