<svg xmlns="http://www.w3.org/2000/svg" width="15" height="15" viewBox="0 0 15 15">
    <g fill="none" fill-rule="evenodd">
        <path fill="#2CB742" d="M0 15l1.29-3.87A7.37 7.37 0 1 1 15 7.37a7.371 7.371 0 0 1-10.8 6.525L0 15z"/>
        <path fill="#FFF" d="M11.92 9.996c-.328-.622-1.541-1.332-1.541-1.332-.275-.158-.606-.175-.762.105 0 0-.394.472-.495.54-.458.31-.882.299-1.31-.13L5.82 7.188c-.427-.427-.439-.852-.129-1.31.068-.1.54-.494.54-.494.28-.157.262-.488.106-.763 0 0-.712-1.213-1.333-1.542a.68.68 0 0 0-.801.121l-.44.44C2.37 5.034 3.056 6.607 4.45 8L7 10.55c1.393 1.394 2.968 2.08 4.362.687l.44-.44a.683.683 0 0 0 .12-.801z"/>
    </g>
</svg>
