<svg xmlns="http://www.w3.org/2000/svg" xmlns:xlink="http://www.w3.org/1999/xlink" width="68" height="74" viewBox="0 0 68 74">
    <defs>
        <path id="a" d="M0 .154h67.087v28.374H0z"/>
    </defs>
    <g fill="none" fill-rule="evenodd">
        <path fill="#FFFFFE" d="M13.813 71.166H55.1V46.65H13.813z"/>
        <path fill="#049549" d="M15.103 69.875H53.81V47.941H15.103v21.934zm39.997 2.58H13.813a1.29 1.29 0 0 1-1.29-1.29V46.652c0-.713.577-1.29 1.29-1.29H55.1c.713 0 1.29.577 1.29 1.29v24.515a1.29 1.29 0 0 1-1.29 1.29z"/>
        <g transform="translate(.91 45.207)">
            <mask id="b" fill="#fff">
                <use xlink:href="#a"/>
            </mask>
            <path fill="#E6F5ED" d="M65.802 27.249H1.29V12.87c0-6.311 5.653-11.427 12.626-11.427l19.63 25.805 19.63-25.805c6.973 0 12.626 5.116 12.626 11.427v14.378" mask="url(#b)"/>
            <path fill="#049549" d="M2.58 25.959h28.364L13.288 2.749C7.328 3.042 2.58 7.47 2.58 12.871v13.088zm33.569 0h28.363V12.87c0-5.401-4.748-9.83-10.707-10.122L36.149 25.96zm29.653 2.58H1.29A1.29 1.29 0 0 1 0 27.249V12.87C0 5.858 6.243.154 13.916.154c.403 0 .783.188 1.027.509l18.603 24.455L52.15.663a1.29 1.29 0 0 1 1.027-.509c7.673 0 13.916 5.704 13.916 12.717v14.378a1.29 1.29 0 0 1-1.29 1.29z" mask="url(#b)"/>
        </g>
        <path fill="#FFFFFE" d="M52.52 22.618v13.01a8.443 8.443 0 0 1-8.443 8.442h-19.24a8.443 8.443 0 0 1-8.444-8.443V12.344a3.11 3.11 0 0 1 3.11-3.11H49.41a3.11 3.11 0 0 1 3.11 3.11"/>
        <path fill="#049549" d="M44.076 45.36h-19.24c-5.367 0-9.733-4.366-9.733-9.733V12.344c0-2.427 1.973-4.4 4.4-4.4H49.41c2.426 0 4.4 1.973 4.4 4.4a1.29 1.29 0 1 1-2.58 0c0-1.003-.817-1.82-1.82-1.82H19.502c-1.003 0-1.82.817-1.82 1.82v23.283a7.16 7.16 0 0 0 7.153 7.153h19.24a7.16 7.16 0 0 0 7.154-7.153v-13.01a1.29 1.29 0 0 1 2.58 0v13.01c0 5.367-4.367 9.734-9.734 9.734"/>
        <path fill="#7ED321" d="M47.57 18.266H16.394V6.869a5.377 5.377 0 0 1 5.377-5.376h34.62v7.952a8.82 8.82 0 0 1-8.82 8.82"/>
        <path fill="#049549" d="M17.683 16.975h29.888c4.151 0 7.53-3.378 7.53-7.53V2.783H21.77a4.091 4.091 0 0 0-4.087 4.086v10.106zm29.888 2.58H16.393a1.29 1.29 0 0 1-1.29-1.29V6.87A6.674 6.674 0 0 1 21.77.202h34.62c.713 0 1.29.578 1.29 1.29v7.953c0 5.575-4.535 10.11-10.11 10.11z"/>
        <path fill="#FFFFFE" d="M20.264 55.683V44.07h14.192L20.264 55.683"/>
        <path fill="#049549" d="M21.554 45.36v7.6l9.288-7.6h-9.288zm-1.29 11.613a1.289 1.289 0 0 1-1.29-1.29V44.07c0-.712.577-1.29 1.29-1.29h14.192a1.29 1.29 0 0 1 .818 2.289L21.08 56.68a1.292 1.292 0 0 1-.817.292z"/>
        <path fill="#FFFFFE" d="M48.65 55.683V44.07H34.455L48.65 55.683"/>
        <path fill="#049549" d="M38.07 45.36l9.289 7.6v-7.6H38.07zm10.58 11.613c-.293 0-.583-.1-.818-.292L33.64 45.07a1.29 1.29 0 0 1 .818-2.288h14.192c.713 0 1.29.577 1.29 1.29v11.612a1.291 1.291 0 0 1-1.29 1.29z"/>
    </g>
</svg>
