<svg xmlns="http://www.w3.org/2000/svg" xmlns:xlink="http://www.w3.org/1999/xlink" width="17" height="19" viewBox="0 0 17 19">
    <defs>
        <path id="a" d="M.002 0h16.894v4.608H.002z"/>
    </defs>
    <g fill="none" fill-rule="evenodd">
        <path fill="#7ED321" d="M2.304 3.84h12.288v12.288c0 .849-.687 1.536-1.536 1.536H3.84a1.536 1.536 0 0 1-1.536-1.536V3.84"/>
        <path fill="#019447" d="M3.072 4.608v11.52c0 .424.345.768.768.768h9.216a.768.768 0 0 0 .768-.768V4.608H3.072zm9.984 13.824H3.84a2.307 2.307 0 0 1-2.304-2.304V3.84c0-.424.344-.768.768-.768h12.288c.425 0 .768.344.768.768v12.288a2.307 2.307 0 0 1-2.304 2.304z"/>
        <g>
            <mask id="b" fill="#fff">
                <use xlink:href="#a"/>
            </mask>
            <path fill="#019447" d="M6.144 3.072h4.608V1.536H6.144v1.536zm5.376 1.536H5.376a.768.768 0 0 1-.768-.768V.768c0-.424.344-.768.768-.768h6.144c.425 0 .768.344.768.768V3.84a.768.768 0 0 1-.768.768z" mask="url(#b)"/>
            <path fill="#019447" d="M16.128 4.608H.768a.768.768 0 0 1 0-1.536h15.36a.768.768 0 1 1 0 1.536" mask="url(#b)"/>
        </g>
        <path fill="#019447" d="M6.144 14.592a.768.768 0 0 1-.768-.768V6.912a.768.768 0 0 1 1.536 0v6.912a.768.768 0 0 1-.768.768M10.752 14.592a.767.767 0 0 1-.768-.768V6.912a.768.768 0 1 1 1.536 0v6.912a.767.767 0 0 1-.768.768"/>
    </g>
</svg>
