<svg xmlns="http://www.w3.org/2000/svg" xmlns:xlink="http://www.w3.org/1999/xlink" width="19" height="19" viewBox="0 0 19 19">
    <defs>
        <path id="a" d="M.002.025h18.43v18.153H.002z"/>
    </defs>
    <g fill="none" fill-rule="evenodd">
        <g>
            <mask id="b" fill="#fff">
                <use xlink:href="#a"/>
            </mask>
            <path fill="#019447" d="M12.536 18.18h-9.85A2.69 2.69 0 0 1 0 15.494V3.854a2.69 2.69 0 0 1 2.686-2.687H7.89a.896.896 0 0 1 0 1.791H2.686a.897.897 0 0 0-.895.895v11.64c0 .495.402.896.895.896h9.85a.896.896 0 0 0 .895-.895v-2.812a.895.895 0 1 1 1.791 0v2.812a2.689 2.689 0 0 1-2.686 2.686" mask="url(#b)"/>
            <path fill="#7ED321" d="M16.798 1.687a2.534 2.534 0 0 0-3.582 0L7.163 7.74a3.805 3.805 0 0 0-1.11 2.687v2.005h2.006c1.007 0 1.972-.399 2.686-1.11l6.053-6.053a2.534 2.534 0 0 0 0-3.582" mask="url(#b)"/>
            <path fill="#019447" d="M6.948 11.537h1.11c.776 0 1.506-.302 2.055-.848l6.052-6.052a1.64 1.64 0 0 0 0-2.316 1.642 1.642 0 0 0-2.316 0L7.796 8.373a2.89 2.89 0 0 0-.848 2.054v1.11zm1.11 1.79H6.054a.895.895 0 0 1-.895-.895v-2.004a4.67 4.67 0 0 1 1.371-3.319l6.054-6.054a3.433 3.433 0 0 1 4.848 0 3.435 3.435 0 0 1 0 4.847l-6.053 6.054a4.672 4.672 0 0 1-3.32 1.372z" mask="url(#b)"/>
            <path fill="#FFFFFE" d="M15.374 6.666l1.424-1.424a2.534 2.534 0 0 0-3.582-3.581L11.918 2.95" mask="url(#b)"/>
            <path fill="#019447" d="M16.007 7.299l-1.266-1.266 1.424-1.424a1.64 1.64 0 0 0-.001-2.315 1.642 1.642 0 0 0-2.316 0l-1.299 1.29-1.262-1.27 1.298-1.29a3.435 3.435 0 0 1 4.846.003 3.435 3.435 0 0 1 0 4.847L16.008 7.3" mask="url(#b)"/>
        </g>
        <path fill="#019447" d="M15.374 7.58a.893.893 0 0 1-.633-.263L11.16 3.735a.894.894 0 1 1 1.267-1.266l3.581 3.582a.894.894 0 0 1-.633 1.528"/>
    </g>
</svg>
