<svg xmlns="http://www.w3.org/2000/svg" width="25" height="24" viewBox="0 0 25 24">
    <g fill="none" fill-rule="evenodd">
        <path fill="#FFF" d="M3.023 17.83h18v-7h-18z"/>
        <path fill="#162C53" d="M20.601 17.83H2.446c-.234 0-.423-.163-.423-.364v-6.273c0-.2.19-.363.423-.363.233 0 .422.162.422.363v5.91h17.311v-5.91c0-.2.189-.363.422-.363.234 0 .422.162.422.363v6.273c0 .201-.188.364-.422.364z"/>
        <path fill="#EEE" d="M19.411 20.83H4.636c-.89 0-1.613-.74-1.613-1.65v-1.35h18v1.35c0 .91-.721 1.65-1.612 1.65z"/>
        <path fill="#162C53" d="M18.975 21.83H4.072c-1.13 0-2.049-.968-2.049-2.157v-1.4c0-.244.19-.443.423-.443H20.6c.234 0 .422.198.422.444v1.4c0 1.188-.918 2.156-2.048 2.156zM2.868 18.718v.955c0 .699.54 1.268 1.204 1.268h14.903c.664 0 1.204-.569 1.204-1.268v-.955H2.868z"/>
        <path fill="#FFF" d="M14.023 22.83h-5l1.454-2h2.093z"/>
        <path fill="#162C53" d="M14.617 23.83H9.43c-.147 0-.283-.099-.355-.257a.6.6 0 0 1 .01-.506l1.507-3c.074-.148.205-.237.346-.237h2.171c.141 0 .272.09.346.237l1.508 3a.6.6 0 0 1 .009.506c-.072.158-.208.257-.355.257zm-4.457-1h3.727l-1.005-2h-1.717l-1.005 2z"/>
        <path fill="#00E7FF" d="M16.5 16.83a.476.476 0 0 1-.337-.816l3.045-3.045a.478.478 0 1 1 .676.676l-3.045 3.044a.477.477 0 0 1-.338.14z"/>
        <path fill="#162C53" d="M16.574 23.83H6.472c-.248 0-.449-.224-.449-.5 0-.277.201-.5.45-.5h10.101c.249 0 .45.223.45.5 0 .276-.201.5-.45.5z"/>
        <path fill="#FFE600" d="M6.023 8.83c-1.104 0-2-.717-2-1.6V.83h4v6.4c0 .883-.895 1.6-2 1.6z"/>
        <path fill="#162C53" d="M6.023 9.83c-1.102 0-2-.918-2-2.046V1.24c0-.227.18-.41.4-.41h3.2c.222 0 .4.183.4.41v6.545c0 1.128-.897 2.046-2 2.046zm-1.2-8.182v6.136c0 .677.539 1.227 1.2 1.227.662 0 1.2-.55 1.2-1.227V1.648h-2.4z"/>
        <path fill="#F79521" d="M9.023 8.83c-1.104 0-2-.717-2-1.6V.83h4v6.4c0 .883-.895 1.6-2 1.6z"/>
        <path fill="#162C53" d="M9.023 9.83c-1.102 0-2-.918-2-2.046V1.24c0-.227.18-.41.4-.41h3.2c.221 0 .4.183.4.41v6.545c0 1.128-.897 2.046-2 2.046zm-1.2-8.182v6.136c0 .677.539 1.227 1.2 1.227.662 0 1.2-.55 1.2-1.227V1.648h-2.4z"/>
        <path fill="#F79521" d="M2.023 8.83c-1.104 0-2-.717-2-1.6l1-6.4h3v6.4c0 .883-.895 1.6-2 1.6z"/>
        <path fill="#162C53" d="M2.023 9.83c-1.102 0-2-.918-2-2.046 0-.017.002-.034.004-.05l.8-6.546A.404.404 0 0 1 1.223.83h2.4c.222 0 .4.182.4.409v6.545c0 1.128-.897 2.046-2 2.046zM.824 7.808c.012.666.546 1.203 1.2 1.203.661 0 1.2-.55 1.2-1.227V1.648H1.575l-.752 6.16z"/>
        <path fill="#FFE600" d="M12.024 8.83c-1.105 0-2-.717-2-1.6V.83h4v6.4c0 .883-.896 1.6-2 1.6z"/>
        <path fill="#162C53" d="M12.023 9.83c-1.102 0-2-.918-2-2.046V1.24c0-.227.18-.41.4-.41h3.2c.221 0 .4.183.4.41v6.545c0 1.128-.897 2.046-2 2.046zm-1.2-8.182v6.136c0 .677.539 1.227 1.2 1.227.662 0 1.2-.55 1.2-1.227V1.648h-2.4z"/>
        <path fill="#F79521" d="M15.024 8.83c-1.105 0-2-.717-2-1.6V.83h4v6.4c0 .883-.896 1.6-2 1.6z"/>
        <path fill="#162C53" d="M15.024 9.83c-1.103 0-2-.918-2-2.046V1.24c0-.227.179-.41.4-.41h3.2c.22 0 .4.183.4.41v6.545c0 1.128-.898 2.046-2 2.046zm-1.2-8.182v6.136c0 .677.538 1.227 1.2 1.227.661 0 1.2-.55 1.2-1.227V1.648h-2.4z"/>
        <path fill="#F79521" d="M22.023 8.83c-1.104 0-2-.717-2-1.6V.83h3l1 6.4c0 .883-.895 1.6-2 1.6z"/>
        <path fill="#162C53" d="M22.023 9.83c-1.102 0-2-.918-2-2.046V1.24c0-.227.18-.41.4-.41h2.4c.202 0 .372.154.397.359l.8 6.545a.441.441 0 0 1 .003.051c0 1.128-.897 2.046-2 2.046zm-1.2-8.182v6.136c0 .677.539 1.227 1.2 1.227.654 0 1.188-.537 1.2-1.203l-.753-6.16h-1.647z"/>
        <path fill="#FFE600" d="M18.024 8.83c-1.105 0-2-.717-2-1.6V.83h4v6.4c0 .883-.896 1.6-2 1.6z"/>
        <path fill="#162C53" d="M18.024 9.83c-1.103 0-2-.918-2-2.046V1.24c0-.227.178-.41.4-.41h3.2c.22 0 .4.183.4.41v6.545c0 1.128-.898 2.046-2 2.046zm-1.2-8.182v6.136c0 .677.538 1.227 1.2 1.227.661 0 1.2-.55 1.2-1.227V1.648h-2.4z"/>
    </g>
</svg>
