<svg xmlns="http://www.w3.org/2000/svg" xmlns:xlink="http://www.w3.org/1999/xlink" width="16" height="23" viewBox="0 0 16 23">
    <defs>
        <path id="a" d="M.006.031H15.62v3.343H.006z"/>
    </defs>
    <g fill="none" fill-rule="evenodd">
        <g transform="translate(0 18.643)">
            <mask id="b" fill="#fff">
                <use xlink:href="#a"/>
            </mask>
            <path fill="#019447" d="M15.248 1.704c0-.718-3.33-1.3-7.435-1.3-4.107 0-7.436.582-7.436 1.3 0 .72 3.33 1.302 7.436 1.302s7.435-.583 7.435-1.302z" mask="url(#b)"/>
            <path fill="#019447" d="M7.813 3.377c-.8 0-7.807-.047-7.807-1.673C.006.078 7.013.031 7.813.031c.799 0 7.807.047 7.807 1.673 0 1.626-7.008 1.673-7.807 1.673zM.787 1.704c.41.344 2.754.93 7.026.93 4.27 0 6.615-.586 7.025-.93-.41-.343-2.754-.929-7.025-.929-4.272 0-6.616.586-7.026.93z" mask="url(#b)"/>
        </g>
        <path fill="#F79521" d="M11.658 14.684c1.51-2.251 2.846-4.722 2.846-6.418a7.063 7.063 0 1 0-14.127 0c0 3.9 7.064 11.896 7.064 11.896s1.425-1.613 2.994-3.743l1.223-1.735zm-4.217-2.33a4.09 4.09 0 1 1 0-8.178 4.09 4.09 0 0 1 0 8.179z"/>
        <path fill="#162C53" d="M7.44 20.533a.371.371 0 0 1-.278-.125C6.87 20.078.006 12.26.006 8.266.006 4.166 3.34.83 7.44.83s7.435 3.336 7.435 7.436c0 1.518-.979 3.748-2.91 6.625a.372.372 0 1 1-.616-.414c1.82-2.714 2.782-4.862 2.782-6.211a6.7 6.7 0 0 0-6.691-6.692A6.7 6.7 0 0 0 .749 8.266c0 3.285 5.393 9.805 6.692 11.327.49-.573 1.559-1.853 2.695-3.395a.372.372 0 0 1 .598.441 61.384 61.384 0 0 1-3.015 3.769.371.371 0 0 1-.278.125zm0-7.806a4.466 4.466 0 0 1-4.46-4.461 4.466 4.466 0 0 1 4.46-4.461c2.46 0 4.462 2 4.462 4.46a4.466 4.466 0 0 1-4.461 4.462zm0-8.179a3.722 3.722 0 0 0-3.717 3.718 3.722 3.722 0 0 0 3.718 3.717 3.722 3.722 0 0 0 3.717-3.717 3.722 3.722 0 0 0-3.717-3.718z"/>
        <path fill="#019447" d="M9.3 8.266a1.859 1.859 0 1 1-3.718 0 1.859 1.859 0 0 1 3.718 0z"/>
    </g>
</svg>
