<svg xmlns="http://www.w3.org/2000/svg" xmlns:xlink="http://www.w3.org/1999/xlink" width="23" height="22" viewBox="0 0 23 22">
    <defs>
        <path id="a" d="M.012.006H6.35v6.335H.012z"/>
        <path id="c" d="M.023.006H6.36v6.335H.023z"/>
        <path id="e" d="M.043.008h14.084v9.506H.043z"/>
    </defs>
    <g fill="none" fill-rule="evenodd">
        <g transform="translate(13.72 15.078)">
            <mask id="b" fill="#fff">
                <use xlink:href="#a"/>
            </mask>
            <path fill="#019447" d="M3.181.358a2.817 2.817 0 1 1 0 5.634 2.817 2.817 0 0 1 0-5.634l22.091-17.715 3.334 1.104h2.21" mask="url(#b)"/>
            <path fill="#162C53" d="M3.181.71A2.468 2.468 0 0 0 .717 3.175 2.468 2.468 0 0 0 3.18 5.64a2.468 2.468 0 0 0 2.465-2.465A2.468 2.468 0 0 0 3.181.71zm0 5.634A3.172 3.172 0 0 1 .012 3.175 3.172 3.172 0 0 1 3.182.006a3.173 3.173 0 0 1 3.168 3.17 3.172 3.172 0 0 1-3.169 3.168z" mask="url(#b)"/>
        </g>
        <path fill="#019447" d="M13.732 5.225h3.52V.734h-3.52z"/>
        <path fill="#162C53" d="M17.253 5.577a.352.352 0 0 1-.352-.352V1.086h-2.817v4.139a.352.352 0 0 1-.704 0V.734c0-.194.157-.352.352-.352h3.52c.195 0 .353.158.353.352v4.491a.352.352 0 0 1-.352.352"/>
        <path fill="#FFFFFE" d="M3.873 6.633h3.169v7.109a4.513 4.513 0 0 0-.823-.076 4.417 4.417 0 0 0-3.55 1.77H.705v-5.68c0-1.717 1.426-3.123 3.17-3.123"/>
        <path fill="#162C53" d="M1.056 15.084h1.442a4.813 4.813 0 0 1 4.192-1.747V6.985H3.873c-1.553 0-2.817 1.243-2.817 2.77v5.329zm1.614.704H.704a.352.352 0 0 1-.352-.352v-5.68c0-1.916 1.58-3.475 3.521-3.475h3.169c.194 0 .352.158.352.352v7.109a.352.352 0 0 1-.416.346c-1.53-.283-3.115.338-4.026 1.559a.352.352 0 0 1-.282.141z"/>
        <path fill="#F6D42F" d="M10.915 5.225h3.521V2.408h-3.52z"/>
        <path fill="#162C53" d="M14.436 5.577a.352.352 0 0 1-.352-.352V2.76h-2.817v2.465a.352.352 0 1 1-.704 0V2.408c0-.194.158-.352.352-.352h3.521c.195 0 .352.158.352.352v2.817a.352.352 0 0 1-.352.352"/>
        <path fill="#F79521" d="M16.197 5.225h3.52V2.408c-1.76-.47-2.934-.47-3.52 0-.587.47-.587 1.409 0 2.817z"/>
        <path fill="#162C53" d="M19.718 5.577a.352.352 0 0 1-.352-.352V2.76h-2.817v2.465a.352.352 0 1 1-.704 0V2.408c0-.194.157-.352.352-.352h3.52c.195 0 .353.158.353.352v2.817a.352.352 0 0 1-.352.352"/>
        <g transform="translate(3.146 15.078)">
            <mask id="d" fill="#fff">
                <use xlink:href="#c"/>
            </mask>
            <path fill="#019447" d="M3.192.358a2.817 2.817 0 1 1 0 5.634 2.817 2.817 0 0 1 0-5.634" mask="url(#d)"/>
            <path fill="#162C53" d="M3.192.71A2.468 2.468 0 0 0 .727 3.175 2.468 2.468 0 0 0 3.192 5.64a2.468 2.468 0 0 0 2.464-2.465A2.468 2.468 0 0 0 3.192.71zm0 5.634a3.172 3.172 0 0 1-3.17-3.169A3.172 3.172 0 0 1 3.193.006a3.173 3.173 0 0 1 3.168 3.17 3.172 3.172 0 0 1-3.168 3.168z" mask="url(#d)"/>
        </g>
        <path fill="#162C53" d="M3.521 18.253H.352a.352.352 0 1 1 0-.705h3.169a.352.352 0 0 1 0 .705M13.732 18.253H9.155a.352.352 0 1 1 0-.705h4.577a.352.352 0 0 1 0 .705M21.126 18.253h-1.408a.352.352 0 1 1 0-.705h1.408a.352.352 0 0 1 0 .705"/>
        <g transform="translate(8.407 4.865)">
            <mask id="f" fill="#fff">
                <use xlink:href="#e"/>
            </mask>
            <path fill="#FFFFFE" d="M.395.36h13.38l-1.33 8.802-10.839-.025L.396.36" mask="url(#f)"/>
            <path fill="#162C53" d="M1.913 8.786l10.229.023L13.366.712H.799l1.114 8.074zm10.531.728L1.605 9.49a.352.352 0 0 1-.348-.304L.047.408a.352.352 0 0 1 .348-.4h13.38a.352.352 0 0 1 .348.405l-1.33 8.802a.352.352 0 0 1-.349.3z" mask="url(#f)"/>
        </g>
        <path fill="#E0DED9" d="M11.971 12.267a.352.352 0 0 1-.352-.352V7.338a.352.352 0 0 1 .704 0v4.577a.352.352 0 0 1-.352.352M18.661 12.267a.352.352 0 0 1-.352-.352V7.338a.352.352 0 1 1 .704 0v4.577a.352.352 0 0 1-.352.352M16.549 12.267a.352.352 0 0 1-.352-.352V7.338a.352.352 0 1 1 .704 0v4.577a.352.352 0 0 1-.352.352M14.084 12.267a.352.352 0 0 1-.352-.352V7.338a.352.352 0 0 1 .704 0v4.577a.352.352 0 0 1-.352.352"/>
        <path fill="#162C53" d="M14.788 16.492H8.45a.352.352 0 0 1 0-.704h6.338a.352.352 0 1 1 0 .704M21.478 16.492h-2.465a.352.352 0 0 1 0-.704h2.465a.352.352 0 1 1 0 .704M4.225 11.915H.705a.352.352 0 1 1 0-.704h3.168V6.633a.352.352 0 0 1 .704 0v4.93a.352.352 0 0 1-.352.352"/>
    </g>
</svg>
