<svg xmlns="http://www.w3.org/2000/svg" xmlns:xlink="http://www.w3.org/1999/xlink" width="16" height="18" viewBox="0 0 16 18">
    <defs>
        <path id="a" d="M0 .036h15.591V6.63H0z"/>
    </defs>
    <g fill="none" fill-rule="evenodd">
        <path fill="#FFFFFE" d="M2.999 16.921h9.595v-5.697H2.999z"/>
        <path fill="#162C53" d="M3.298 16.621h8.996v-5.097H3.298v5.097zm9.296.6H2.999a.3.3 0 0 1-.3-.3v-5.697a.3.3 0 0 1 .3-.3h9.595a.3.3 0 0 1 .3.3v5.697a.3.3 0 0 1-.3.3z"/>
        <g transform="translate(0 10.889)">
            <mask id="b" fill="#fff">
                <use xlink:href="#a"/>
            </mask>
            <path fill="#F79521" d="M15.292 6.333H.3V2.99C.3 1.525 1.614.336 3.234.336l4.562 5.997L12.358.336c1.62 0 2.934 1.189 2.934 2.655v3.342" mask="url(#b)"/>
            <path fill="#162C53" d="M.6 6.033H7.19L3.088.639C1.703.707.6 1.736.6 2.99v3.042zm7.8 0h6.592V2.99c0-1.255-1.103-2.284-2.488-2.352L8.401 6.033zm6.892.6H.3a.3.3 0 0 1-.3-.3V2.99C0 1.361 1.45.036 3.234.036a.3.3 0 0 1 .239.118l4.323 5.683L12.119.154a.3.3 0 0 1 .24-.118c1.782 0 3.233 1.325 3.233 2.955v3.342a.3.3 0 0 1-.3.3z" mask="url(#b)"/>
        </g>
        <path fill="#FFFFFE" d="M11.994 5.639v3.023a1.962 1.962 0 0 1-1.962 1.962H5.56a1.962 1.962 0 0 1-1.962-1.962v-5.41c0-.4.324-.723.723-.723h6.95c.4 0 .723.323.723.722"/>
        <path fill="#162C53" d="M10.032 10.924H5.56a2.265 2.265 0 0 1-2.262-2.262v-5.41c0-.565.459-1.023 1.023-1.023h6.95c.564 0 1.023.458 1.023 1.022a.3.3 0 1 1-.6 0 .424.424 0 0 0-.423-.423h-6.95a.423.423 0 0 0-.423.423v5.411c0 .917.746 1.663 1.662 1.663h4.472c.916 0 1.662-.746 1.662-1.663V5.64a.3.3 0 0 1 .6 0v3.023a2.265 2.265 0 0 1-2.262 2.262"/>
        <path fill="#7ED321" d="M10.844 4.627H3.598V1.98c0-.69.56-1.25 1.25-1.25h8.046v1.849a2.05 2.05 0 0 1-2.05 2.05"/>
        <path fill="#162C53" d="M3.898 4.328h6.946c.965 0 1.75-.785 1.75-1.75V1.029H4.848a.95.95 0 0 0-.95.95v2.349zm6.946.6H3.598a.3.3 0 0 1-.3-.3v-2.65c0-.853.695-1.548 1.55-1.548h8.046a.3.3 0 0 1 .3.3v1.848a2.352 2.352 0 0 1-2.35 2.35z"/>
        <path fill="#019447" d="M4.498 13.323v-2.699h3.298l-3.298 2.7"/>
        <path fill="#162C53" d="M4.798 10.924v1.766l2.158-1.766H4.798zm-.3 2.699a.3.3 0 0 1-.3-.3v-2.699a.3.3 0 0 1 .3-.3h3.298a.3.3 0 0 1 .19.532l-3.298 2.7a.3.3 0 0 1-.19.067z"/>
        <path fill="#019447" d="M11.094 13.323v-2.699H7.796l3.298 2.7"/>
        <path fill="#162C53" d="M8.636 10.924l2.159 1.766v-1.766H8.636zm2.458 2.699a.3.3 0 0 1-.19-.068l-3.298-2.698a.3.3 0 0 1 .19-.532h3.298a.3.3 0 0 1 .3.3v2.698a.3.3 0 0 1-.3.3z"/>
    </g>
</svg>
