<svg xmlns="http://www.w3.org/2000/svg" xmlns:xlink="http://www.w3.org/1999/xlink" width="16" height="15" viewBox="0 0 16 15">
    <defs>
        <path id="a" d="M.002.002H15.36V14.67H.002z"/>
    </defs>
    <g fill="none" fill-rule="evenodd">
        <path fill="#F9C962" d="M14.783 5.395l-4.83-.448L8.036.492a.387.387 0 0 0-.71 0L5.406 4.947l-4.829.448a.387.387 0 0 0-.22.676l3.644 3.2-1.066 4.732a.387.387 0 0 0 .575.417l4.17-2.476 4.17 2.476a.387.387 0 0 0 .575-.417L11.36 9.27l3.643-3.2a.387.387 0 0 0-.22-.676"/>
        <g transform="translate(0 .031)">
            <mask id="b" fill="#fff">
                <use xlink:href="#a"/>
            </mask>
            <path fill="#F3B253" d="M8.035.461a.387.387 0 0 0-.71 0L5.406 4.915l-4.829.448a.387.387 0 0 0-.22.676L4.002 9.24l-1.066 4.731a.387.387 0 0 0 .575.418l.93-.552C4.57 8.534 7.034 4.8 8.985 2.664L8.035.46" mask="url(#b)"/>
            <path fill="#162C53" d="M15.329 5.56a.604.604 0 0 0-.526-.42l-4.696-.436-.93-2.162a.225.225 0 1 0-.414.178l.984 2.284a.225.225 0 0 0 .186.135l4.829.448c.096.01.13.081.14.112.009.03.024.108-.048.171L11.21 9.071a.225.225 0 0 0-.07.219l1.066 4.73a.157.157 0 0 1-.063.167.157.157 0 0 1-.178.009l-4.17-2.476a.225.225 0 0 0-.23 0l-4.17 2.476a.157.157 0 0 1-.178-.009.157.157 0 0 1-.063-.166l.55-2.442a.225.225 0 0 0-.438-.1l-.55 2.443a.604.604 0 0 0 .237.63.604.604 0 0 0 .672.03l4.055-2.407 4.055 2.408a.609.609 0 0 0 .672-.031.604.604 0 0 0 .238-.63l-1.037-4.6 3.543-3.114a.604.604 0 0 0 .178-.648" mask="url(#b)"/>
            <path fill="#162C53" d="M3.483 10.518a.225.225 0 1 0 .439.099L4.22 9.29a.225.225 0 0 0-.071-.219l-3.644-3.2a.157.157 0 0 1-.047-.172.157.157 0 0 1 .14-.112l4.828-.448a.225.225 0 0 0 .186-.135L7.531.55A.157.157 0 0 1 7.68.452c.032 0 .11.01.149.098l.52 1.21a.225.225 0 0 0 .414-.178L8.242.372a.604.604 0 0 0-.562-.37.604.604 0 0 0-.562.37L5.253 4.704l-4.696.435a.604.604 0 0 0-.526.42.604.604 0 0 0 .178.65L3.752 9.32l-.27 1.197" mask="url(#b)"/>
        </g>
    </g>
</svg>
