<svg xmlns="http://www.w3.org/2000/svg" xmlns:xlink="http://www.w3.org/1999/xlink" width="45" height="29" viewBox="0 0 45 29">
    <defs>
        <path id="a" d="M.008.119h44.876v3.68H.008z"/>
    </defs>
    <g fill="none" fill-rule="evenodd">
        <path fill="#FFF" d="M.834 9.797v5.37c0 1.222.929 2.552 2.092 2.938 0 0 9.845 3.984 23.379 2.954 5.955-.453 15.056-4.449 15.056-4.449 1.125-.468 2.037-1.832 2.037-3.056V6.391L.834 9.797z"/>
        <path fill="#162C53" d="M21.761 21.967c-11.109 0-18.75-3.034-19.111-3.18-1.412-.468-2.552-2.066-2.552-3.62v-5.37c0-.384.295-.703.677-.734L43.34 5.657a.736.736 0 0 1 .795.733v7.163c0 1.515-1.095 3.156-2.492 3.735-.363.16-9.27 4.047-15.282 4.505a60.29 60.29 0 0 1-4.6.174zM1.57 10.477v4.69c0 .911.742 1.958 1.59 2.24.14.055 9.904 3.92 23.09 2.919 5.763-.439 14.725-4.35 14.815-4.39.872-.363 1.599-1.45 1.599-2.382V7.188L1.569 10.476z"/>
        <path fill="#EA3457" d="M23.008 16.662c-10.484.002-21.467-3.428-22.074-5.886-.608-2.46 1.273-6.255 13.584-4.783 0 0 12.31-5.518 18.254-5.15 5.943.367 12.735 3.118 10.188 7.9-1.224 2.299-10.251 7.917-19.952 7.92z"/>
        <path fill="#162C53" d="M22.997 17.398C12.7 17.398.994 14.086.219 10.953c-.321-1.298-.01-2.564.874-3.564 1.965-2.224 6.444-2.946 13.31-2.15C16.038 4.519 27.09-.238 32.819.108c3.966.246 9.2 1.61 10.898 4.647.738 1.32.701 2.818-.106 4.334-1.351 2.537-10.534 8.307-20.601 8.309h-.012zM9.537 6.401c-4.764 0-6.623 1.149-7.342 1.962-.71.804-.69 1.66-.547 2.236.433 1.755 10.588 5.327 21.349 5.327h.011c9.2-.002 18.147-5.358 19.303-7.528.576-1.083.616-2.04.12-2.925-1.123-2.01-5.114-3.612-9.704-3.896-5.695-.354-17.787 5.033-17.908 5.087a.732.732 0 0 1-.389.06c-1.9-.228-3.518-.323-4.893-.323z"/>
        <path fill="#FFE600" d="M11.961 12.786a.733.733 0 0 1-.52-.216L7.574 8.703a.736.736 0 1 1 1.04-1.04l3.868 3.867a.736.736 0 0 1-.521 1.256zM34.771 8.371a.733.733 0 0 1-.52-.216l-3.867-3.867a.736.736 0 1 1 1.04-1.04l3.867 3.867a.736.736 0 0 1-.52 1.256zM19.51 15.184a.734.734 0 0 1-.52-.216l-6.266-6.265a.736.736 0 0 1 1.04-1.04l6.266 6.265a.736.736 0 0 1-.52 1.256zM23.925 14.448a.734.734 0 0 1-.52-.216l-6.266-6.265a.736.736 0 1 1 1.04-1.04l6.266 6.265a.736.736 0 0 1-.52 1.256zM28.34 12.976a.734.734 0 0 1-.52-.215l-6.266-6.266a.736.736 0 0 1 1.04-1.04l6.266 6.265a.736.736 0 0 1-.52 1.256zM32.754 11.505a.732.732 0 0 1-.52-.216L25.97 5.024a.736.736 0 1 1 1.04-1.04l6.266 6.265a.736.736 0 0 1-.52 1.256z"/>
        <g transform="translate(0 24.251)">
            <mask id="b" fill="#fff">
                <use xlink:href="#a"/>
            </mask>
            <path fill="#2DA2DB" d="M44.149 1.59H16.923a.736.736 0 0 1 0-1.471H44.15a.736.736 0 0 1 0 1.471zM27.96 3.798H.737a.736.736 0 0 1 0-1.472H27.96a.736.736 0 0 1 0 1.472z" mask="url(#b)"/>
        </g>
    </g>
</svg>
