<svg xmlns="http://www.w3.org/2000/svg" xmlns:xlink="http://www.w3.org/1999/xlink" width="41" height="40" viewBox="0 0 41 40">
    <defs>
        <path id="a" d="M.007.11h4.88v4.771H.007z"/>
    </defs>
    <g fill="none" fill-rule="evenodd">
        <path fill="#FFF" d="M28 4l3-.576L28.577 1z"/>
        <path fill="#162C53" d="M27.681 5a.68.68 0 0 1-.669-.81l.7-3.637A.68.68 0 0 1 28.861.2L31.8 3.138a.681.681 0 0 1-.352 1.15l-3.638.7A.727.727 0 0 1 27.68 5zm1.126-2.928L28.54 3.46l1.388-.267-1.12-1.121z"/>
        <path fill="#EF5323" d="M4.331 27.718a4.264 4.264 0 0 1 0-6.19l17.91-17.246c1.774-1.71 4.652-1.71 6.428 0a4.264 4.264 0 0 1 0 6.191l-17.91 17.245c-1.774 1.71-4.652 1.71-6.428 0z"/>
        <path fill="#162C53" d="M7.14 30a5.107 5.107 0 0 1-3.634-1.506A5.106 5.106 0 0 1 2 24.86c0-1.373.534-2.664 1.506-3.635l17.719-17.72A5.105 5.105 0 0 1 24.86 2c1.373 0 2.663.534 3.634 1.506A5.107 5.107 0 0 1 30 7.14a5.108 5.108 0 0 1-1.506 3.635l-17.719 17.72A5.105 5.105 0 0 1 7.14 30zM24.86 3.285c-1.03 0-1.999.401-2.727 1.13L4.414 22.133a3.83 3.83 0 0 0-1.129 2.726c0 1.03.401 1.998 1.13 2.726a3.832 3.832 0 0 0 2.725 1.13 3.83 3.83 0 0 0 2.727-1.13l17.718-17.72a3.83 3.83 0 0 0 1.13-2.726c0-1.03-.401-1.998-1.13-2.726a3.829 3.829 0 0 0-2.725-1.129z"/>
        <g transform="translate(0 27)">
            <mask id="b" fill="#fff">
                <use xlink:href="#a"/>
            </mask>
            <path fill="#FFF" d="M4.221.761l-.683 3.47L.666 1.429z" mask="url(#b)"/>
            <path fill="#162C53" d="M3.538 4.881a.676.676 0 0 1-.471-.19L.195 1.887a.64.64 0 0 1-.166-.65A.66.66 0 0 1 .54.789L4.095.123A.67.67 0 0 1 4.692.3a.64.64 0 0 1 .183.583l-.683 3.47a.656.656 0 0 1-.654.527zM2.025 1.835l1.096 1.07.26-1.325-1.356.255z" mask="url(#b)"/>
        </g>
        <path fill="#FFE600" d="M5.64 23a.638.638 0 0 1-.453-1.091L21.91 5.187a.64.64 0 0 1 .904.904L6.09 22.813a.637.637 0 0 1-.452.187z"/>
        <path fill="#FFF" d="M37 11l3-.577L37.577 8z"/>
        <path fill="#162C53" d="M36.681 12a.681.681 0 0 1-.669-.81l.7-3.637a.682.682 0 0 1 1.15-.353l2.938 2.938a.681.681 0 0 1-.352 1.15l-3.638.7a.685.685 0 0 1-.129.012zm1.126-2.928l-.266 1.387 1.387-.266-1.121-1.121z"/>
        <path fill="#FBB315" d="M27.128 27.623l-7.368 7.095c-1.775 1.71-4.653 1.71-6.429 0a4.265 4.265 0 0 1 0-6.19L31.24 11.281c1.775-1.71 4.653-1.71 6.429 0a4.265 4.265 0 0 1 0 6.19l-3.224 3.105"/>
        <path fill="#162C53" d="M16.14 37a5.106 5.106 0 0 1-3.634-1.506A5.106 5.106 0 0 1 11 31.86c0-1.374.534-2.664 1.506-3.635l17.72-17.72A5.105 5.105 0 0 1 33.86 9c1.373 0 2.664.534 3.634 1.506A5.105 5.105 0 0 1 39 14.14a5.106 5.106 0 0 1-1.506 3.635l-3.19 3.19a.642.642 0 1 1-.907-.909l3.189-3.19a3.83 3.83 0 0 0 1.129-2.726 3.83 3.83 0 0 0-1.13-2.725 3.828 3.828 0 0 0-2.725-1.13c-1.03 0-1.998.401-2.727 1.13L13.414 29.133a3.83 3.83 0 0 0-1.129 2.727c0 1.03.4 1.998 1.13 2.726a3.83 3.83 0 0 0 2.725 1.129 3.83 3.83 0 0 0 2.726-1.13l7.29-7.29a.642.642 0 1 1 .91.91l-7.291 7.29A5.106 5.106 0 0 1 16.14 37z"/>
        <path fill="#602F75" d="M27.637 27a.637.637 0 0 1-.45-1.087l4.725-4.726a.637.637 0 1 1 .901.9l-4.726 4.727a.635.635 0 0 1-.45.186z"/>
        <path fill="#FFF" d="M13 36l-.577 3L10 36.576z"/>
        <path fill="#162C53" d="M12.62 40a.682.682 0 0 1-.482-.2L9.2 36.862a.68.68 0 0 1 .353-1.15l3.637-.7a.679.679 0 0 1 .798.798l-.7 3.637a.68.68 0 0 1-.668.553zm-1.548-3.193l1.121 1.121.267-1.387-1.388.266z"/>
        <path fill="#EF5323" d="M14.639 31a.64.64 0 0 1-.452-1.091L30.91 13.187a.64.64 0 1 1 .904.904L15.09 30.813a.638.638 0 0 1-.452.187z"/>
    </g>
</svg>
