<svg xmlns="http://www.w3.org/2000/svg" width="35" height="34" viewBox="0 0 35 34">
    <g fill="none" fill-rule="evenodd">
        <path fill="#FFE600" d="M5 8h7V6H5z"/>
        <path fill="#162C53" d="M12.429 8H5.57C5.256 8 5 7.731 5 7.4V5.6c0-.331.256-.6.571-.6h6.858c.316 0 .571.269.571.6v1.8c0 .331-.255.6-.571.6zM6.143 6.8h5.714v-.6H6.143v.6z"/>
        <path fill="#FFE600" d="M5 17h7v-2H5z"/>
        <path fill="#162C53" d="M12.429 18H5.57C5.256 18 5 17.731 5 17.4v-1.8c0-.331.256-.6.571-.6h6.858c.316 0 .571.269.571.6v1.8c0 .331-.255.6-.571.6zm-6.286-1.2h5.714v-.6H6.143v.6z"/>
        <path fill="#019447" d="M5 20.4V33H1V0h4v16.8"/>
        <path fill="#162C53" d="M5.4 34H.6a.598.598 0 0 1-.6-.596V.596C0 .267.268 0 .6 0h4.8c.332 0 .6.267.6.596v16.702c0 .33-.268.596-.6.596a.598.598 0 0 1-.6-.596V1.193H1.2v31.614h3.6v-11.93c0-.33.268-.596.6-.596.332 0 .6.267.6.596v12.527c0 .329-.268.596-.6.596z"/>
        <path fill="#FFF" d="M12 24h22V1H12"/>
        <path fill="#162C53" d="M34.41 24H12.59a.587.587 0 0 1-.59-.585V.585c0-.323.264-.585.59-.585h21.82c.326 0 .59.262.59.585v22.83a.587.587 0 0 1-.59.585zm-21.23-1.17h20.64V1.17H13.18v21.66z"/>
        <path fill="#00E7FF" d="M13 23h21v-8H13z"/>
        <path fill="#162C53" d="M18.5 22c-.276 0-.5-.269-.5-.6V4.6c0-.331.223-.6.5-.6.276 0 .5.269.5.6v16.8c0 .331-.224.6-.5.6zM24.5 22c-.276 0-.5-.269-.5-.6V4.6c0-.331.224-.6.5-.6.277 0 .5.269.5.6v16.8c0 .331-.223.6-.5.6z"/>
        <path fill="#162C53" d="M18.5 10C17.12 10 16 8.923 16 7.6v-3c0-.331.28-.6.625-.6.346 0 .625.269.625.6v3c0 .662.56 1.2 1.25 1.2s1.25-.538 1.25-1.2v-3c0-.331.28-.6.625-.6s.625.269.625.6v3c0 1.323-1.122 2.4-2.5 2.4zM28.5 22c-.276 0-.5-.269-.5-.6V10.6c0-.331.224-.6.5-.6s.5.269.5.6v10.8c0 .331-.224.6-.5.6zM24.4 14h-1.8a.594.594 0 0 1-.6-.588v-7.06C22 5.057 23.076 4 24.4 4c.332 0 .6.263.6.588v8.824a.594.594 0 0 1-.6.588zm-1.2-1.176h.6v-7.49c-.359.204-.6.584-.6 1.019v6.47z"/>
        <path fill="#162C53" d="M28.5 11C27.098 11 26 9.463 26 7.5 26 5.538 27.098 4 28.5 4S31 5.538 31 7.5c0 1.963-1.098 3.5-2.5 3.5zm.5-6c-.472 0-1 1.069-1 2.5 0 1.43.528 2.5 1 2.5s1-1.07 1-2.5c0-1.431-.528-2.5-1-2.5z"/>
    </g>
</svg>
