<svg xmlns="http://www.w3.org/2000/svg" xmlns:xlink="http://www.w3.org/1999/xlink" width="45" height="31" viewBox="0 0 45 31">
    <defs>
        <path id="a" d="M0 .099h38.989v26.78H0z"/>
    </defs>
    <g fill="none" fill-rule="evenodd">
        <path fill="#FFE600" d="M16 8l11-7v14z"/>
        <path fill="#162C53" d="M27.263 16a.745.745 0 0 1-.397-.115L15.34 8.613a.728.728 0 0 1-.34-.614c0-.247.128-.478.34-.612L26.866.114a.75.75 0 0 1 .751-.025.725.725 0 0 1 .383.638v14.545c0 .266-.147.511-.383.638a.746.746 0 0 1-.354.09zM17.105 8l9.42 5.944V2.054L17.106 8z"/>
        <path fill="#EA3457" d="M33 17l11-7-2.226 7L44 24z"/>
        <path fill="#162C53" d="M44.263 26a.743.743 0 0 1-.398-.115L32.34 18.613A.727.727 0 0 1 32 18c0-.248.128-.478.34-.613l11.525-7.272c.262-.165.6-.151.846.035a.722.722 0 0 1 .254.797L42.703 18l2.262 7.053a.721.721 0 0 1-.254.797c-.131.1-.29.15-.448.15zm-10.158-8l8.841 5.579-1.72-5.36a.717.717 0 0 1 0-.438l1.72-5.36L34.105 18z"/>
        <g transform="translate(0 4)">
            <mask id="b" fill="#fff">
                <use xlink:href="#a"/>
            </mask>
            <path fill="#FFF" d="M35.31 18.541c-3.71 4.642-9.416 7.614-15.816 7.614C11 26.155 3.725 20.916.722 13.49 3.725 6.06 10.999.822 19.494.822c8.496 0 15.77 5.24 18.773 12.667a20.2 20.2 0 0 1-1.2 2.469" mask="url(#b)"/>
            <path fill="#162C53" d="M19.494 26.878c-8.588 0-16.22-5.15-19.441-13.118a.724.724 0 0 1 0-.542C3.275 5.248 10.906.099 19.494.099s16.219 5.15 19.441 13.119a.72.72 0 0 1 0 .542c-.352.872-.77 1.732-1.241 2.557a.723.723 0 0 1-1.254-.719c.391-.682.741-1.39 1.045-2.11-3.062-7.265-10.092-11.944-17.99-11.944-7.9 0-14.93 4.678-17.992 11.945 3.063 7.265 10.092 11.944 17.991 11.944 5.962 0 11.521-2.677 15.252-7.343a.723.723 0 0 1 1.126.904c-4.005 5.01-9.975 7.884-16.378 7.884z" mask="url(#b)"/>
        </g>
        <path fill="#00E7FF" d="M2 17c1.84-4.691 6.295-8 11.5-8s9.66 3.309 11.5 8c-1.84 4.69-6.295 8-11.5 8S3.84 21.69 2 17z"/>
        <path fill="#00E7FF" d="M13 26c-5.278 0-9.968-3.23-11.948-8.23a.729.729 0 0 1 0-.54C3.032 12.23 7.722 9 13 9c5.278 0 9.968 3.23 11.948 8.23a.729.729 0 0 1 0 .54C22.968 22.77 18.278 26 13 26zM2.465 17.5C4.29 21.8 8.394 24.563 13 24.563S21.711 21.8 23.535 17.5C21.71 13.2 17.607 10.438 13 10.438S4.29 13.2 2.465 17.5z"/>
        <path fill="#162C53" d="M9 14.5a1.5 1.5 0 1 1-3 0 1.5 1.5 0 0 1 3 0z"/>
        <path fill="#FFE600" d="M23 16.31L17 22v-7z"/>
        <path fill="#162C53" d="M16.667 23a.641.641 0 0 1-.268-.058.69.69 0 0 1-.399-.632v-6.62c0-.208.09-.405.247-.535a.647.647 0 0 1 .558-.14l5.667 1.24c.244.054.439.245.504.494a.706.706 0 0 1-.192.69l-5.667 5.38a.656.656 0 0 1-.45.181zm.666-6.459v4.2l3.595-3.413-3.595-.787z"/>
    </g>
</svg>
