<svg xmlns="http://www.w3.org/2000/svg" xmlns:xlink="http://www.w3.org/1999/xlink" width="43" height="37" viewBox="0 0 43 37">
    <defs>
        <path id="a" d="M.007.024h42.935V21.93H.007z"/>
    </defs>
    <g fill="none" fill-rule="evenodd">
        <g transform="translate(0 15)">
            <mask id="b" fill="#fff">
                <use xlink:href="#a"/>
            </mask>
            <path fill="#FFE600" d="M.67 21.266h41.601v-2.655H.671z" mask="url(#b)"/>
            <path fill="#162C53" d="M42.271 21.93H.671A.667.667 0 0 1 0 21.266v-2.655c0-.367.3-.664.67-.664h41.601c.37 0 .67.297.67.664v2.655c0 .367-.299.664-.67.664zM1.342 20.603H41.6v-1.328H1.342v1.328z" mask="url(#b)"/>
            <path fill="#FFF" d="M3.355.688L.671 18.611h41.6L39.587.688H17.982" mask="url(#b)"/>
            <path fill="#162C53" d="M42.271 19.275H.671a.674.674 0 0 1-.508-.23.659.659 0 0 1-.156-.531L2.691.59a.673.673 0 0 1 .762-.56c.367.054.62.392.566.754l-2.57 17.162h40.044L39.009 1.352H17.982a.667.667 0 0 1-.671-.664c0-.367.3-.664.67-.664h21.606c.333 0 .615.241.664.567l2.684 17.923a.66.66 0 0 1-.156.531.674.674 0 0 1-.508.23z" mask="url(#b)"/>
        </g>
        <path fill="#FFF" d="M6 14v10.105C6 25.152 8.239 26 11 26s5-.848 5-1.895V14H6z"/>
        <path fill="#019447" d="M10.5 27C7.767 27 5 26.084 5 24.333V13.667c0-.368.307-.667.687-.667h9.626c.38 0 .687.298.687.667v10.666C16 26.084 13.233 27 10.5 27zM6.375 14.334v10c0 .47 1.566 1.333 4.125 1.333s4.125-.863 4.125-1.334v-10h-8.25z"/>
        <path fill="#EF5323" d="M16 14c0 1.104-2.239 2-5 2s-5-.896-5-2 2.239-2 5-2 5 .896 5 2z"/>
        <path fill="#019447" d="M10.5 17C7.767 17 5 15.97 5 14s2.767-3 5.5-3 5.5 1.03 5.5 3-2.767 3-5.5 3zm0-4.5c-2.559 0-4.125.971-4.125 1.5s1.566 1.5 4.125 1.5 4.125-.971 4.125-1.5-1.566-1.5-4.125-1.5zM9.286 30H5.715C5.32 30 5 29.776 5 29.5c0-.277.32-.5.715-.5h3.57c.396 0 .715.223.715.5 0 .276-.32.5-.714.5zM37.3 30h-5.6c-.387 0-.7-.224-.7-.5s.313-.5.7-.5h5.6c.387 0 .7.224.7.5s-.313.5-.7.5zM25.25 28h-4.5c-.414 0-.75-.223-.75-.5 0-.276.335-.5.75-.5h4.5c.415 0 .75.224.75.5 0 .277-.335.5-.75.5z"/>
        <path fill="#7FB841" d="M38.333 27h-2.666c-.369 0-.667-.223-.667-.5 0-.276.298-.5.667-.5h2.666c.369 0 .667.224.667.5 0 .277-.298.5-.667.5zM12.5 23h-1a.5.5 0 1 1 0-1h1a.5.5 0 1 1 0 1zM13.5 19h-1a.5.5 0 1 1 0-1h1a.5.5 0 1 1 0 1zM9.5 25h-1a.5.5 0 1 1 0-1h1a.5.5 0 1 1 0 1zM9.5 21h-1a.5.5 0 1 1 0-1h1a.5.5 0 1 1 0 1z"/>
        <path fill="#2DA2DB" d="M37.333 10H6.667C6.299 10 6 9.776 6 9.5s.298-.5.667-.5h30.666c.369 0 .667.224.667.5s-.298.5-.667.5zM8.674 8c-.31 0-.589-.231-.658-.571-.08-.393.15-.78.513-.866L36.18.017c.362-.087.724.162.804.554.08.393-.15.78-.514.867L8.82 7.983A.636.636 0 0 1 8.673 8z"/>
    </g>
</svg>
