<svg xmlns="http://www.w3.org/2000/svg" width="39" height="41" viewBox="0 0 39 41">
    <g fill="none" fill-rule="evenodd">
        <path fill="#FFF" d="M33 28.48v8.638C33 38.71 31.697 40 30.1 40H6.9A2.894 2.894 0 0 1 4 37.118V22h29"/>
        <path fill="#162C53" d="M30.31 41H6.69C4.656 41 3 39.338 3 37.294V21.741c0-.41.33-.741.738-.741h29.524c.408 0 .738.331.738.74 0 .41-.33.741-.738.741H4.476v14.813c0 1.227.994 2.224 2.214 2.224h23.62c1.22 0 2.214-.998 2.214-2.224v-8.887a.739.739 0 1 1 1.476 0v8.887C34 39.338 32.344 41 30.31 41z"/>
        <path fill="#FBB315" d="M10 40h17V22H10z"/>
        <path fill="#162C53" d="M27.27 41H9.73a.736.736 0 0 1-.73-.741V21.74c0-.41.327-.741.73-.741h17.54c.403 0 .73.331.73.74v18.52c0 .408-.327.74-.73.74zM10.46 39.519H26.54V22.48H10.46V39.52z"/>
        <path fill="#162C53" d="M.752 26C.336 26 0 25.679 0 25.283v-3.566C0 21.321.336 21 .752 21h34.496c.415 0 .752.32.752.717v2.263c0 .397-.336.717-.752.717s-.752-.32-.752-.717v-1.546H1.504v2.849c0 .396-.337.717-.752.717z"/>
        <path fill="#FFF" d="M29 14a3 3 0 1 1-6 0 3 3 0 0 1 6 0z"/>
        <path fill="#2DA2DB" d="M25.994 18a3.98 3.98 0 0 1-1.993-.537 3.974 3.974 0 0 1-1.863-2.429 3.973 3.973 0 0 1 .4-3.035A4.003 4.003 0 0 1 28 10.535a3.974 3.974 0 0 1 1.862 2.43 3.972 3.972 0 0 1-.4 3.034 3.974 3.974 0 0 1-2.427 1.863 3.98 3.98 0 0 1-1.04.138zm.011-6.4a2.4 2.4 0 0 0-1.204 4.477 2.4 2.4 0 0 0 2.399-4.156 2.385 2.385 0 0 0-1.195-.32z"/>
        <path fill="#00E7FF" d="M12.561 8.677c.806-1.425 2.594-1.911 3.986-1.09l20.217 11.915c1.395.823 1.872 2.647 1.067 4.07l-1.459 2.58-25.27-14.895 1.46-2.58z"/>
        <path fill="#162C53" d="M36.372 26.896a.714.714 0 0 1-.364-.1l-25.27-14.894a.757.757 0 0 1-.268-1.017l1.46-2.58a3.634 3.634 0 0 1 2.216-1.735 3.556 3.556 0 0 1 2.766.371l20.216 11.916a3.69 3.69 0 0 1 1.7 2.263c.25.96.122 1.963-.364 2.824l-1.46 2.58a.727.727 0 0 1-.632.372zM12.1 10.984l24.007 14.15 1.094-1.935a2.26 2.26 0 0 0 .218-1.695 2.211 2.211 0 0 0-1.02-1.357L16.184 8.232a2.13 2.13 0 0 0-1.66-.223 2.179 2.179 0 0 0-1.33 1.04L12.1 10.984z"/>
        <path fill="#FFE600" d="M3.375 15.725a.71.71 0 0 1-.415-.134.754.754 0 0 1-.185-1.035c.026-.039 2.611-3.908 1.088-6.237C1.94 5.38 1.069 3.692 3.919.343A.718.718 0 0 1 4.947.268c.304.27.337.74.072 1.05-2.25 2.648-1.67 3.536.056 6.174 2.077 3.172-.97 7.721-1.101 7.913a.724.724 0 0 1-.6.32z"/>
        <path fill="#FFE600" d="M7.022 15.725a.71.71 0 0 1-.415-.134.755.755 0 0 1-.185-1.035c.027-.039 2.612-3.908 1.088-6.237C5.587 5.38 4.716 3.692 7.566.343A.718.718 0 0 1 8.595.268c.304.27.337.74.072 1.05-2.251 2.648-1.67 3.536.056 6.174 2.076 3.172-.971 7.721-1.101 7.913a.725.725 0 0 1-.6.32zM13 39h8V23h-8z"/>
    </g>
</svg>
