<svg xmlns="http://www.w3.org/2000/svg" xmlns:xlink="http://www.w3.org/1999/xlink" width="35" height="37" viewBox="0 0 35 37">
    <defs>
        <path id="a" d="M.006.061h12.971v8.836H.007z"/>
    </defs>
    <g fill="none" fill-rule="evenodd">
        <path fill="#FFF" d="M19.239 14.226l.757 14.199C20.07 29.82 19.156 31 18 31c-1.155 0-2.07-1.18-1.996-2.575L16.934 11h2.133"/>
        <path fill="#162C53" d="M17.5 31c-.688 0-1.353-.348-1.824-.955-.47-.607-.715-1.432-.67-2.262l.916-17.188c.018-.335.248-.595.526-.595h2.105c.29 0 .526.284.526.636 0 .352-.235.637-.526.637H16.94l-.885 16.592a1.96 1.96 0 0 0 .388 1.31c.554.713 1.559.713 2.112 0 .276-.357.415-.822.388-1.31l-.747-14.005c-.018-.35.201-.653.491-.676.285-.012.541.242.56.594l.747 14.005c.044.83-.2 1.655-.67 2.262-.471.607-1.137.955-1.825.955z"/>
        <path fill="#019447" d="M26 10.335C26 5.18 22.195 1 17.5 1 12.806 1 9 5.18 9 10.335c0 5.155 3.806 1.244 8.5 1.244 4.695 0 8.5 3.911 8.5-1.244z"/>
        <path fill="#162C53" d="M24.718 14c-.771 0-1.683-.284-2.727-.61-1.345-.42-2.868-.894-4.491-.894-1.623 0-3.146.475-4.49.894-1.738.542-3.112.97-4.074.162C8.298 13.016 8 12.053 8 10.523 8 4.721 12.262 0 17.5 0S27 4.72 27 10.523c0 1.53-.298 2.493-.936 3.03-.384.321-.834.447-1.346.447zM17.5 11.18c1.787 0 3.464.524 4.812.944 1.365.425 2.543.792 3.035.38.309-.26.465-.926.465-1.98 0-5.078-3.728-9.208-8.312-9.208s-8.312 4.13-8.312 9.207c0 1.055.157 1.721.465 1.98.493.415 1.67.046 3.035-.38 1.348-.42 3.025-.942 4.812-.942z"/>
        <path fill="#FFF" d="M7.285 24.666l.71 8.673C8.07 34.78 7.156 36 6 36c-1.155 0-2.07-1.22-1.996-2.661L4.934 22h2.133"/>
        <path fill="#162C53" d="M6.5 37c-.688 0-1.352-.357-1.824-.979-.47-.622-.715-1.467-.67-2.318l.918-11.117c.028-.333.254-.586.524-.586h2.105c.291 0 .527.292.527.652 0 .36-.236.652-.527.652h-1.63l-.869 10.507c-.024.475.114.952.39 1.317.554.732 1.56.732 2.113 0 .277-.365.414-.842.388-1.341l-.7-8.461c-.03-.358.181-.679.47-.716.29-.031.548.225.578.583l.701 8.486c.047.874-.198 1.72-.67 2.342-.47.622-1.135.979-1.823.979z"/>
        <g transform="translate(0 15)">
            <mask id="b" fill="#fff">
                <use xlink:href="#a"/>
            </mask>
            <path fill="#2DA2DB" d="M12.405 6.614c0-3.3-2.649-5.975-5.916-5.975C3.22.64.573 3.314.573 6.614s2.648.797 5.916.797c3.267 0 5.916 2.503 5.916-.797z" mask="url(#b)"/>
            <path fill="#162C53" d="M11.285 8.897c-.547 0-1.177-.178-1.861-.374-.882-.25-1.882-.534-2.935-.534-1.054 0-2.053.284-2.935.534-1.155.33-2.152.612-2.862.069C.072 8.118 0 7.236 0 6.614 0 3.001 2.911.061 6.489.061c3.577 0 6.488 2.94 6.488 6.553 0 .622-.072 1.504-.692 1.978-.289.22-.625.305-1 .305zM6.489 6.832c1.211 0 2.339.321 3.245.579.788.223 1.602.455 1.86.26.071-.056.238-.269.238-1.057 0-2.976-2.397-5.397-5.343-5.397-2.947 0-5.344 2.421-5.344 5.397 0 .788.167 1.001.238 1.056.258.197 1.072-.035 1.86-.26.906-.257 2.034-.578 3.246-.578z" mask="url(#b)"/>
        </g>
        <path fill="#FFF" d="M30.325 25.151l.67 8.188C31.07 34.779 30.156 36 29 36c-1.155 0-2.07-1.22-1.996-2.661L27.934 22h2.133"/>
        <path fill="#162C53" d="M28.5 37c-.687 0-1.353-.357-1.824-.979-.47-.622-.715-1.467-.67-2.318l.918-11.117c.028-.333.254-.586.524-.586h2.106c.29 0 .526.292.526.652 0 .36-.235.652-.526.652h-1.631l-.869 10.507c-.024.475.114.952.39 1.317.554.732 1.56.732 2.113 0 .276-.365.414-.842.388-1.341l-.66-7.986c-.03-.358.18-.678.47-.715.281-.037.548.224.578.582l.662 8.01c.045.876-.2 1.721-.67 2.343-.47.622-1.136.979-1.824.979z"/>
        <path fill="#FBB315" d="M34 22.001C34 18.135 31.314 15 28 15s-6 3.134-6 7.001c0 3.867 2.686.933 6 .933s6 2.934 6-.933z"/>
        <path fill="#162C53" d="M33.305 24c-.548 0-1.179-.182-1.864-.38-.884-.256-1.886-.545-2.94-.545-1.056 0-2.058.29-2.941.544-1.156.335-2.155.623-2.866.07-.622-.483-.694-1.38-.694-2.014C22 17.995 24.916 15 28.5 15s6.5 2.994 6.5 6.675c0 .633-.072 1.531-.693 2.014-.29.225-.627.31-1.002.31zM28.5 21.897c1.214 0 2.344.327 3.25.59.79.227 1.607.464 1.864.264.072-.057.24-.273.24-1.076 0-3.031-2.402-5.497-5.354-5.497s-5.353 2.466-5.353 5.497c0 .803.167 1.02.239 1.076.259.199 1.074-.037 1.863-.265.907-.262 2.037-.59 3.251-.59z"/>
        <path fill="#FFF" d="M10.533 9a.479.479 0 0 1-.195-.043c-.274-.121-.409-.471-.3-.78.604-1.728 1.729-3.184 3.167-4.1.256-.163.581-.06.726.23.145.288.054.656-.203.82-1.225.78-2.183 2.02-2.698 3.492-.083.237-.284.381-.497.381z"/>
        <path fill="#162C53" d="M2.533 21a.476.476 0 0 1-.195-.043c-.274-.121-.409-.471-.3-.78.604-1.728 1.728-3.184 3.166-4.1.257-.163.582-.06.727.23.145.288.054.656-.203.82-1.225.78-2.183 2.02-2.698 3.492-.083.237-.284.381-.497.381z"/>
        <path fill="#FFF" d="M24.533 21a.476.476 0 0 1-.195-.043c-.274-.121-.409-.47-.3-.78.604-1.728 1.729-3.184 3.166-4.099.258-.164.582-.06.727.23.145.288.054.656-.203.819-1.225.78-2.183 2.02-2.698 3.492-.083.237-.284.381-.497.381z"/>
    </g>
</svg>
