<svg xmlns="http://www.w3.org/2000/svg" xmlns:xlink="http://www.w3.org/1999/xlink" width="45" height="37" viewBox="0 0 45 37">
    <defs>
        <path id="a" d="M.009.12h44.957v17.843H.01z"/>
    </defs>
    <g fill="none" fill-rule="evenodd">
        <g transform="translate(0 12)">
            <mask id="b" fill="#fff">
                <use xlink:href="#a"/>
            </mask>
            <path fill="#FFF" d="M2.255 17.086s-2.722-1.756-.778-3.95c1.53-1.726 4.475-1.758 9.24-5.248 4.765-3.49 8.44-6.891 13.45-6.891 5.009 0 7.46 4.898 11.91 8.044 2.04 1.441 6.62 2.779 7.787 4.095 1.166 1.317-1.167 3.95-1.167 3.95" mask="url(#b)"/>
            <path fill="#162C53" d="M2.255 17.963a.704.704 0 0 1-.385-.115C1.7 17.739.215 16.738.02 15.1c-.075-.628.023-1.586.908-2.584.825-.932 1.938-1.411 3.347-2.02 1.572-.677 3.528-1.52 6.018-3.344.676-.495 1.33-.989 1.969-1.47C16.218 2.697 19.635.12 24.167.12c3.626 0 5.974 2.315 8.46 4.768 1.194 1.177 2.427 2.395 3.863 3.41.86.607 2.275 1.226 3.644 1.824 1.891.828 3.524 1.541 4.28 2.393.432.489 1.004 1.598-.03 3.542a9.497 9.497 0 0 1-1.137 1.65.716.716 0 0 1-1.099 0 .96.96 0 0 1-.002-1.241c.744-.843 1.547-2.28 1.168-2.71-.523-.59-2.233-1.337-3.743-1.997-1.436-.628-2.922-1.278-3.907-1.974-1.54-1.089-2.822-2.354-4.062-3.576-2.357-2.326-4.393-4.335-7.436-4.335-4.06 0-7.294 2.44-11.04 5.267-.644.486-1.304.983-1.986 1.483-2.627 1.924-4.756 2.842-6.31 3.513-1.284.553-2.212.953-2.802 1.62-.527.594-.481.983-.466 1.11.081.684.872 1.323 1.08 1.457.372.24.501.777.288 1.197-.143.283-.406.442-.675.442z" mask="url(#b)"/>
        </g>
        <path fill="#EF5323" d="M2.647 29h40.588l-2.342 7H4.99z"/>
        <path fill="#162C53" d="M40.163 37H4.837c-.308 0-.585-.212-.706-.538l-2.304-6.223a1.01 1.01 0 0 1 .065-.84c.141-.249.382-.399.64-.399h39.935c.258 0 .5.15.642.4.141.248.166.565.064.84l-2.304 6.222c-.12.326-.398.538-.706.538zm-34.82-1.778h34.314l1.646-4.444H3.698l1.645 4.444z"/>
        <path fill="#162C53" d="M22.941 37c-.487 0-.882-.448-.882-1v-6c0-.552.395-1 .882-1s.883.448.883 1v6c0 .552-.396 1-.883 1z"/>
        <path fill="#FBB315" d="M23.824 18a.87.87 0 0 1-.883-.858v-1.285a.87.87 0 0 1 .883-.857.87.87 0 0 1 .882.857v1.285a.87.87 0 0 1-.882.858zM20.168 19a.712.712 0 0 1-.535-.251.94.94 0 0 1 0-1.212l1.135-1.286a.695.695 0 0 1 1.07 0 .94.94 0 0 1 0 1.212l-1.135 1.286a.711.711 0 0 1-.535.251zM28.362 19a.712.712 0 0 1-.535-.251l-1.135-1.286a.94.94 0 0 1 0-1.212.695.695 0 0 1 1.07 0l1.134 1.286a.94.94 0 0 1 0 1.212.711.711 0 0 1-.534.251z"/>
        <path fill="#162C53" d="M8.823 37a.883.883 0 0 1-.848-.645l-1.764-6.222a.889.889 0 0 1 .606-1.098.88.88 0 0 1 1.09.61l1.765 6.221A.89.89 0 0 1 8.822 37zM37.06 37a.89.89 0 0 1-.849-1.133l1.764-6.222a.882.882 0 1 1 1.697.488l-1.765 6.222a.883.883 0 0 1-.848.645zM31.765 37a.89.89 0 0 1-.849-1.133l1.765-6.222a.881.881 0 1 1 1.696.488l-1.764 6.222a.883.883 0 0 1-.848.645zM13.235 37a.883.883 0 0 1-.848-.645l-1.765-6.222a.89.89 0 0 1 .606-1.098.881.881 0 0 1 1.091.61l1.765 6.221a.89.89 0 0 1-.85 1.134zM17.646 37a.884.884 0 0 1-.872-.764l-.883-6.222a.888.888 0 0 1 .749-1.005.883.883 0 0 1 .998.754l.882 6.222A.887.887 0 0 1 17.646 37zM27.354 37a.887.887 0 0 1-.875-1.015l.883-6.222a.88.88 0 0 1 .998-.754c.482.07.818.52.749 1.006l-.883 6.222a.884.884 0 0 1-.872.763z"/>
        <path fill="#FFE600" d="M9.378 17a.852.852 0 0 1-.77-.498.896.896 0 0 1 .396-1.18c1.512-.758 2.378-1.778 2.505-2.952.137-1.273-.635-2.703-2.117-3.924-.957-.787-1.458-1.792-1.45-2.905C7.96 2.86 10.874.45 11.206.185a.838.838 0 0 1 1.199.156c.289.385.221.94-.15 1.24-.723.58-2.596 2.423-2.605 3.974-.003.566.261 1.06.807 1.51 1.98 1.63 2.957 3.584 2.75 5.5-.192 1.781-1.42 3.326-3.458 4.347a.83.83 0 0 1-.372.088z"/>
        <path fill="#FFE600" d="M5.849 18a.852.852 0 0 1-.77-.498.897.897 0 0 1 .396-1.18c1.512-.758 2.378-1.778 2.504-2.952.138-1.272-.634-2.703-2.116-3.924-.957-.787-1.459-1.792-1.451-2.905.018-2.681 2.933-5.09 3.265-5.356a.838.838 0 0 1 1.2.156c.288.385.221.94-.151 1.24-.721.58-2.596 2.424-2.604 3.974-.003.567.26 1.06.807 1.51 1.98 1.63 2.956 3.584 2.75 5.5-.192 1.782-1.42 3.326-3.458 4.347a.827.827 0 0 1-.372.088z"/>
    </g>
</svg>
