<svg xmlns="http://www.w3.org/2000/svg" width="52" height="41" viewBox="0 0 52 41">
    <g fill="none" fill-rule="evenodd">
        <path fill="#FFF" d="M29 11.138V8h17v25H29V20.5"/>
        <path fill="#162C53" d="M46.24 34H28.76c-.42 0-.76-.237-.76-.53V21c0-.293.34-.53.76-.53s.76.237.76.53V32.94h15.96V9.062H29.52v2.6c0 .292-.34.53-.76.53s-.76-.237-.76-.53V8.53c0-.293.34-.531.76-.531h17.48c.42 0 .76.238.76.531v24.938c0 .294-.34.531-.76.531z"/>
        <path fill="#FFF" d="M46.037 8H29l2.963-4H49z"/>
        <path fill="#162C53" d="M45.38 9H28.723c-.25 0-.483-.09-.616-.237-.132-.148-.144-.332-.032-.487l2.897-4c.123-.17.374-.276.648-.276h16.655c.25 0 .484.09.616.237s.144.332.031.486l-2.896 4c-.123.17-.373.277-.648.277zM29.895 8h15.036l2.172-3H32.068l-2.172 3z"/>
        <path fill="#FFE600" d="M39 33h6V9h-6z"/>
        <path fill="#00E7FF" d="M32 3h17V0H32z"/>
        <path fill="#162C53" d="M49.24 4H31.76c-.42 0-.76-.224-.76-.5v-3c0-.277.34-.5.76-.5h17.48c.42 0 .76.223.76.5v3c0 .276-.34.5-.76.5zM32.52 3h15.96V1H32.52v2z"/>
        <path fill="#FFF" d="M45 33V7.76L48 4l3 3.76V33z"/>
        <path fill="#162C53" d="M51.3 34h-5.6c-.386 0-.7-.248-.7-.554V7.411c0-.096.032-.19.092-.274l2.8-3.878c.25-.345.967-.345 1.216 0l2.8 3.878c.06.083.092.178.092.274v26.035c0 .306-.313.554-.7.554zm-4.9-1.108h4.2V7.558L48.5 4.65l-2.1 2.908v25.334z"/>
        <path fill="#EA3457" d="M31 23h11v-5H31z"/>
        <path fill="#162C53" d="M42.294 23H31.706c-.39 0-.706-.223-.706-.5v-5c0-.277.316-.5.706-.5h10.588c.39 0 .706.223.706.5v5c0 .277-.316.5-.706.5zm-9.882-1h9.176v-4h-9.176v4z"/>
        <g>
            <path fill="#FFF" d="M15.136 39l-11.16-2.981.791-11.434s-5.012-4.937 1.847-7.535C13.473 14.45 26 17.495 26 17.495L15.136 39z"/>
            <path fill="#162C53" d="M14.634 39a.546.546 0 0 1-.137-.018L3.362 36.006a.52.52 0 0 1-.387-.536l.774-11.187c-.536-.59-2.12-2.548-1.67-4.635.327-1.513 1.627-2.711 3.864-3.559 6.918-2.623 19.14.3 19.657.425a.525.525 0 0 1 .351.286.51.51 0 0 1-.006.448l-10.84 21.465a.527.527 0 0 1-.47.287zm-10.58-3.884l10.301 2.754 10.35-20.494c-2.625-.566-12.647-2.492-18.384-.319-1.884.714-2.964 1.658-3.212 2.807-.41 1.903 1.534 3.844 1.553 3.863a.513.513 0 0 1 .153.402l-.76 10.987z"/>
            <path fill="#7FB841" d="M11 12.5a1.5 1.5 0 1 1-3 0 1.5 1.5 0 0 1 3 0z"/>
            <path fill="#7FB841" d="M9 14c-1.103 0-2-.897-2-2s.897-2 2-2 2 .897 2 2-.897 2-2 2zm0-3A1 1 0 1 0 9.002 13 1 1 0 0 0 9 11z"/>
            <path fill="#00E7FF" d="M13 26.5a1.5 1.5 0 1 1-3 0 1.5 1.5 0 0 1 3 0z"/>
            <path fill="#00E7FF" d="M12 28c-1.103 0-2-.897-2-2s.897-2 2-2 2 .897 2 2-.897 2-2 2zm0-3a1.001 1.001 0 0 0 0 2 1.001 1.001 0 0 0 0-2z"/>
            <path fill="#EA3457" d="M4 38.5a1.5 1.5 0 1 1-3 0 1.5 1.5 0 0 1 3 0z"/>
            <path fill="#EA3457" d="M2 41c-1.103 0-2-.897-2-2s.897-2 2-2 2 .897 2 2-.897 2-2 2zm0-3a1 1 0 0 0 0 2 1.001 1.001 0 0 0 0-2z"/>
            <path fill="#FBB315" d="M15.592 24.863c-1-.821-1.592-1.84-1.592-2.945C14 19.202 17.582 17 22 17s8 2.202 8 4.918c0 1.102-.59 2.12-1.588 2.94L30 36.671 14.533 39l1.06-14.137z"/>
            <path fill="#162C53" d="M15.063 39a.54.54 0 0 1-.36-.137.51.51 0 0 1-.17-.417l1.036-13.86C14.54 23.665 14 22.578 14 21.425 14 18.436 17.813 16 22.5 16c4.687 0 8.5 2.435 8.5 5.427 0 1.144-.534 2.225-1.55 3.141l1.545 11.522a.52.52 0 0 1-.445.578l-15.406 2.326a.55.55 0 0 1-.081.006zM22.5 17.034c-4.101 0-7.437 1.97-7.437 4.393 0 1.153.76 2.02 1.398 2.546a.51.51 0 0 1 .187.432L15.64 37.873l14.234-2.15L28.36 24.43a.509.509 0 0 1 .183-.461c.636-.524 1.394-1.39 1.394-2.542 0-2.423-3.337-4.393-7.438-4.393z"/>
            <path fill="#FFF" d="M21 21a1 1 0 1 1-2 0 1 1 0 0 1 2 0zM27 27a1 1 0 1 1-2 0 1 1 0 0 1 2 0zM21 31a1 1 0 1 1-2 0 1 1 0 0 1 2 0zM26 22.5a.5.5 0 1 1-1 0 .5.5 0 0 1 1 0zM25 30.5a.5.5 0 1 1-1 0 .5.5 0 0 1 1 0z"/>
        </g>
    </g>
</svg>
