<svg xmlns="http://www.w3.org/2000/svg" width="39" height="31" viewBox="0 0 39 31">
    <g fill="none" fill-rule="evenodd">
        <path fill="#FFF" d="M5.385 5C2.015 7.581 0 11.214 0 15.436 0 23.903 8.103 30 19 30s19-6.097 19-14.564C38 11.214 35.986 7.582 32.615 5"/>
        <path fill="#162C53" d="M19.5 31C8.201 31 0 24.396 0 15.297 0 10.887 1.985 6.875 5.59 4l.837 1.058c-3.278 2.614-5.082 6.25-5.082 10.239 0 8.316 7.635 14.352 18.155 14.352 10.52 0 18.155-6.036 18.155-14.352 0-3.99-1.804-7.625-5.082-10.239L33.41 4C37.015 6.875 39 10.887 39 15.297 39 24.396 30.799 31 19.5 31z"/>
        <path fill="#EF5323" d="M29 15.5C29 21.851 23.18 27 16 27S3 21.851 3 15.5 8.82 4 16 4s13 5.149 13 11.5z"/>
        <path fill="#EA3457" d="M16.5 28C9.056 28 3 22.393 3 15.5S9.056 3 16.5 3 30 8.607 30 15.5 23.944 28 16.5 28zm0-23.649C9.8 4.351 4.35 9.352 4.35 15.5c0 6.147 5.451 11.148 12.15 11.148 6.7 0 12.15-5 12.15-11.148S23.2 4.351 16.5 4.351z"/>
        <path fill="#FBB315" d="M15.937 1L4 4.928l9.003.358-1.877 5 5.701-4.643L19.322 11l3.563-5 4.632 3.928-1.069-4.642H35L22.885 1"/>
        <path fill="#162C53" d="M19.318 11a.678.678 0 0 1-.615-.374L16.525 6.18l-5.144 3.983a.705.705 0 0 1-.825.023.63.63 0 0 1-.239-.753l1.585-4.014-8.25-.311a.666.666 0 0 1-.645-.557.645.645 0 0 1 .46-.704L15.652.033c.357-.11.74.074.857.413a.64.64 0 0 1-.434.817L7.467 3.956l5.428.205c.219.008.419.116.539.289a.62.62 0 0 1 .07.585L12.472 7.65l3.872-2.998a.7.7 0 0 1 .58-.129.67.67 0 0 1 .463.357l2.054 4.195 2.962-3.95a.684.684 0 0 1 .468-.267.694.694 0 0 1 .522.149l3.17 2.555-.633-2.61a.623.623 0 0 1 .131-.548.692.692 0 0 1 .53-.244h4.766L22.73 1.257a.64.64 0 0 1-.415-.825.687.687 0 0 1 .867-.394l12.366 4.16c.312.104.5.408.443.719a.67.67 0 0 1-.669.537h-7.876l.9 3.713a.634.634 0 0 1-.308.698.704.704 0 0 1-.792-.058L23.08 6.448l-3.208 4.28a.69.69 0 0 1-.553.272z"/>
        <path fill="#FFF" d="M12.541 26C7.273 24.176 4 20.728 4 17h1.35c0 3.168 2.93 6.152 7.65 7.785L12.541 26z"/>
    </g>
</svg>
