<svg xmlns="http://www.w3.org/2000/svg" xmlns:xlink="http://www.w3.org/1999/xlink" width="37" height="37" viewBox="0 0 37 37">
    <defs>
        <path id="a" d="M.007.034h36.9v36.913H.006z"/>
    </defs>
    <g fill="none" fill-rule="evenodd">
        <g>
            <mask id="b" fill="#fff">
                <use xlink:href="#a"/>
            </mask>
            <path fill="#7ED321" d="M19.635 1.556c.397-1.381 2.415-1.088 2.411.35-.003 1.244 1.605 1.72 2.268.672.767-1.212 2.622-.357 2.216 1.022-.35 1.192 1.06 2.106 1.988 1.29 1.075-.946 2.615.402 1.841 1.61-.668 1.044.429 2.322 1.547 1.802 1.295-.601 2.398 1.13 1.318 2.07-.933.81-.237 2.35.981 2.168 1.41-.208 1.985 1.766.687 2.36-1.122.513-.884 2.187.336 2.36 1.412.201 1.412 2.259 0 2.46-1.22.174-1.458 1.848-.336 2.36 1.298.595.724 2.569-.687 2.36-1.218-.18-1.915 1.358-.981 2.17 1.08.938-.023 2.67-1.318 2.068-1.118-.52-2.215.759-1.547 1.803.774 1.208-.766 2.556-1.841 1.61-.928-.817-2.338.098-1.988 1.29.406 1.379-1.449 2.234-2.216 1.021-.663-1.047-2.271-.571-2.268.672.004 1.439-2.014 1.731-2.411.35-.344-1.194-2.02-1.194-2.363 0-.398 1.381-2.416 1.089-2.412-.35.003-1.243-1.604-1.72-2.267-.672-.768 1.213-2.622.358-2.217-1.021.35-1.192-1.059-2.107-1.987-1.29-1.075.946-2.616-.402-1.842-1.61.669-1.044-.428-2.322-1.547-1.803-1.295.602-2.398-1.13-1.318-2.069.934-.811.237-2.35-.981-2.169-1.41.209-1.985-1.765-.686-2.36 1.121-.512.883-2.186-.337-2.36-1.412-.201-1.412-2.258 0-2.46 1.22-.173 1.458-1.847.337-2.36-1.299-.594-.724-2.568.686-2.36 1.219.18 1.915-1.358.981-2.169-1.08-.939.023-2.67 1.318-2.069 1.119.52 2.216-.758 1.547-1.802-.774-1.208.767-2.556 1.842-1.61.928.816 2.338-.098 1.987-1.29-.405-1.38 1.45-2.234 2.217-1.022.663 1.048 2.27.572 2.267-.671-.004-1.44 2.014-1.732 2.412-.35.343 1.193 2.019 1.193 2.363 0z" mask="url(#b)"/>
            <path fill="#7ED321" d="M16.11 36.946c-.093 0-.188-.007-.283-.021-.937-.136-1.59-.898-1.587-1.854a.594.594 0 0 0-.439-.592.585.585 0 0 0-.686.259c-.51.805-1.467 1.09-2.327.694-.862-.398-1.275-1.314-1.006-2.23a.597.597 0 0 0-.255-.694.587.587 0 0 0-.731.054c-.714.629-1.711.63-2.427.003a1.842 1.842 0 0 1-.342-2.424.6.6 0 0 0-.052-.74.587.587 0 0 0-.716-.155c-.861.4-1.818.116-2.33-.687a1.843 1.843 0 0 1 .35-2.425.6.6 0 0 0 .156-.723.59.59 0 0 0-.644-.353c-.939.14-1.777-.405-2.044-1.321-.266-.917.15-1.833 1.012-2.228a.596.596 0 0 0 .352-.648.593.593 0 0 0-.519-.522C.654 20.205 0 19.445 0 18.489c0-.954.655-1.715 1.592-1.849a.593.593 0 0 0 .52-.521.597.597 0 0 0-.353-.65C.897 15.076.48 14.16.748 13.243c.266-.916 1.106-1.464 2.043-1.32.422.06.6-.256.644-.354a.599.599 0 0 0-.157-.723 1.844 1.844 0 0 1-.348-2.424c.511-.804 1.469-1.087 2.33-.687a.588.588 0 0 0 .716-.156.6.6 0 0 0 .05-.739 1.842 1.842 0 0 1 .343-2.425 1.8 1.8 0 0 1 2.427.004c.32.282.641.111.732.053a.597.597 0 0 0 .254-.693c-.269-.916.145-1.833 1.006-2.23.861-.398 1.818-.112 2.328.694.228.362.583.29.686.259a.594.594 0 0 0 .438-.593C14.238.953 14.89.19 15.827.055c.939-.139 1.776.41 2.04 1.326a.59.59 0 0 0 .586.445.59.59 0 0 0 .587-.445c.264-.916 1.103-1.463 2.04-1.326.937.135 1.59.898 1.586 1.853a.594.594 0 0 0 .439.593c.103.03.457.103.686-.259.51-.806 1.467-1.091 2.328-.694.861.397 1.275 1.314 1.005 2.23a.598.598 0 0 0 .255.693.586.586 0 0 0 .731-.053 1.8 1.8 0 0 1 2.427-.004c.716.626.856 1.623.343 2.425a.6.6 0 0 0 .051.739c.07.082.33.335.716.156.861-.4 1.818-.117 2.33.687.512.803.368 1.8-.349 2.424a.6.6 0 0 0-.157.723.591.591 0 0 0 .644.353c.939-.142 1.777.405 2.044 1.321.266.918-.15 1.833-1.011 2.228a.597.597 0 0 0-.353.649.594.594 0 0 0 .52.521c.937.134 1.591.895 1.591 1.85 0 .955-.654 1.715-1.592 1.85a.593.593 0 0 0-.519.521.597.597 0 0 0 .353.648c.862.395 1.277 1.311 1.011 2.228-.267.916-1.108 1.461-2.044 1.322a.589.589 0 0 0-.644.353.599.599 0 0 0 .157.722c.717.625.86 1.622.349 2.425-.512.804-1.47 1.087-2.33.687a.587.587 0 0 0-.716.156.6.6 0 0 0-.051.739c.513.802.372 1.799-.343 2.424-.715.626-1.713.626-2.427-.003a.585.585 0 0 0-.731-.054.598.598 0 0 0-.256.694c.27.916-.143 1.833-1.004 2.23-.862.397-1.819.111-2.328-.694a.586.586 0 0 0-.686-.26.593.593 0 0 0-.439.594c.003.955-.65 1.717-1.587 1.853-.937.14-1.776-.41-2.04-1.327a.59.59 0 0 0-.586-.445.59.59 0 0 0-.586.445c-.237.824-.938 1.348-1.757 1.348zm-2.503-3.748c.179 0 .362.026.544.08.81.24 1.331.946 1.329 1.797-.002.51.436.599.524.612.086.01.532.05.672-.438.236-.818.933-1.347 1.777-1.347.844 0 1.541.529 1.777 1.347.14.488.586.45.673.438.088-.013.525-.102.524-.612a1.828 1.828 0 0 1 1.328-1.796c.81-.242 1.626.069 2.08.786.272.43.689.266.77.229.08-.037.474-.248.33-.736a1.838 1.838 0 0 1 .774-2.102 1.8 1.8 0 0 1 2.216.163c.382.336.734.06.8.001.067-.058.388-.372.114-.8a1.845 1.845 0 0 1 .155-2.237 1.8 1.8 0 0 1 2.172-.473c.458.212.72-.152.769-.227.047-.075.267-.467-.116-.8a1.842 1.842 0 0 1-.475-2.19c.351-.775 1.114-1.198 1.952-1.072.502.069.649-.35.674-.436.025-.086.126-.525-.334-.735a1.857 1.857 0 0 1-1.067-1.967c.12-.843.738-1.464 1.573-1.582.5-.072.525-.522.525-.61 0-.09-.025-.54-.525-.611-.835-.119-1.453-.74-1.573-1.582-.118-.83.31-1.621 1.067-1.967.46-.21.36-.65.334-.736-.025-.085-.174-.505-.674-.435-.835.126-1.601-.297-1.952-1.072a1.842 1.842 0 0 1 .476-2.19c.382-.333.162-.726.115-.8-.048-.076-.31-.44-.77-.227a1.801 1.801 0 0 1-2.17-.473 1.845 1.845 0 0 1-.156-2.238c.274-.427-.047-.741-.113-.8-.067-.058-.42-.333-.8.002a1.801 1.801 0 0 1-2.217.163 1.838 1.838 0 0 1-.773-2.102c.143-.488-.252-.699-.332-.736-.08-.037-.497-.201-.768.23-.455.717-1.272 1.026-2.08.786a1.828 1.828 0 0 1-1.33-1.798c.002-.509-.435-.598-.523-.61-.087-.014-.533-.053-.673.437-.235.818-.933 1.347-1.777 1.347-.844 0-1.541-.529-1.777-1.347-.14-.489-.585-.45-.672-.438-.088.013-.526.102-.524.611a1.83 1.83 0 0 1-1.33 1.798c-.81.241-1.625-.07-2.08-.787-.27-.43-.688-.266-.768-.229-.08.037-.475.248-.331.736.24.816-.064 1.641-.774 2.102a1.8 1.8 0 0 1-2.216-.163c-.38-.336-.733-.06-.8-.002-.067.059-.388.373-.114.8a1.844 1.844 0 0 1-.155 2.238 1.8 1.8 0 0 1-2.172.473c-.459-.215-.72.151-.768.226-.048.075-.267.468.115.8.64.556.826 1.417.475 2.191-.35.775-1.113 1.198-1.952 1.072-.504-.074-.649.35-.674.435-.025.087-.126.525.334.736a1.858 1.858 0 0 1 1.067 1.967 1.822 1.822 0 0 1-1.573 1.582c-.5.072-.525.521-.525.61 0 .09.025.54.526.61.835.12 1.452.74 1.572 1.583.119.83-.31 1.62-1.067 1.967-.46.21-.359.649-.334.735.025.086.177.504.675.436.834-.126 1.6.297 1.951 1.071.35.775.164 1.635-.475 2.191-.383.333-.163.725-.115.8.048.075.31.44.769.227a1.802 1.802 0 0 1 2.171.473c.553.643.614 1.521.155 2.237-.274.428.047.742.113.8.068.059.42.335.801-.001a1.8 1.8 0 0 1 2.216-.163c.71.46 1.014 1.285.774 2.102-.144.488.25.699.331.736.08.037.496.2.768-.23a1.806 1.806 0 0 1 1.537-.866z" mask="url(#b)"/>
        </g>
        <path fill="#FFF" d="M19.012 6.675c.273-.94 1.657-.74 1.655.239-.003.846 1.1 1.17 1.555.457.526-.825 1.798-.243 1.52.695-.24.81.727 1.433 1.364.877.737-.643 1.794.274 1.263 1.096-.459.71.294 1.58 1.062 1.226.888-.409 1.644.769.904 1.407-.64.553-.163 1.6.673 1.477.967-.143 1.361 1.2.47 1.605-.769.349-.605 1.488.231 1.606.969.137.969 1.537 0 1.673-.836.118-1 1.258-.23 1.607.89.404.496 1.747-.471 1.605-.836-.123-1.314.924-.673 1.476.74.639-.016 1.817-.904 1.408-.768-.354-1.52.516-1.062 1.226.531.822-.526 1.739-1.263 1.095-.637-.555-1.604.067-1.364.878.278.938-.994 1.52-1.52.695-.455-.713-1.558-.389-1.555.457.002.979-1.382 1.178-1.655.238-.236-.812-1.385-.812-1.62 0-.274.94-1.658.74-1.655-.238.002-.846-1.101-1.17-1.556-.457-.526.825-1.798.243-1.52-.695.24-.811-.727-1.433-1.364-.878-.737.644-1.794-.273-1.263-1.095.46-.71-.294-1.58-1.061-1.226-.889.409-1.645-.77-.904-1.408.64-.552.162-1.599-.673-1.476-.968.142-1.362-1.201-.471-1.605.77-.35.605-1.489-.23-1.607-.97-.136-.97-1.536 0-1.673.835-.118 1-1.257.23-1.606-.891-.404-.497-1.747.47-1.605.836.122 1.314-.924.674-1.477-.74-.638.015-1.816.904-1.407.767.354 1.52-.516 1.061-1.226-.53-.822.526-1.739 1.263-1.096.637.555 1.604-.066 1.364-.877-.278-.938.994-1.52 1.52-.695.455.712 1.558.389 1.556-.457-.003-.98 1.381-1.179 1.654-.239.236.812 1.385.812 1.621 0z"/>
        <path fill="#162C53" d="M16.6 30.934c-.073 0-.148-.006-.224-.017a1.44 1.44 0 0 1-1.26-1.46c.001-.133-.083-.186-.154-.207-.072-.02-.172-.022-.244.091a1.438 1.438 0 0 1-1.846.546 1.44 1.44 0 0 1-.798-1.755c.039-.13-.028-.204-.09-.244-.062-.04-.158-.069-.259.018a1.437 1.437 0 0 1-1.926.004A1.443 1.443 0 0 1 9.528 26c.073-.112.03-.203-.018-.26-.049-.055-.132-.11-.254-.055a1.439 1.439 0 0 1-1.848-.54 1.444 1.444 0 0 1 .277-1.91c.101-.087.086-.185.055-.253-.03-.068-.093-.14-.228-.124a1.438 1.438 0 0 1-1.62-1.04 1.442 1.442 0 0 1 .801-1.754c.122-.055.136-.154.125-.228-.01-.073-.05-.165-.183-.183a1.442 1.442 0 0 1-1.264-1.456c0-.752.52-1.35 1.263-1.456.133-.02.174-.11.184-.184.01-.073-.002-.172-.125-.227a1.442 1.442 0 0 1-.802-1.754 1.436 1.436 0 0 1 1.62-1.04c.137.015.198-.057.23-.124.03-.068.045-.167-.056-.255a1.443 1.443 0 0 1-.277-1.908 1.438 1.438 0 0 1 1.848-.541c.123.056.205.001.254-.055.048-.056.09-.147.018-.26a1.444 1.444 0 0 1 .271-1.91 1.436 1.436 0 0 1 1.926.004c.1.087.195.059.259.019.062-.04.128-.115.09-.245a1.441 1.441 0 0 1 .797-1.755 1.439 1.439 0 0 1 1.847.546c.072.113.172.111.243.091.071-.02.156-.073.156-.208a1.44 1.44 0 0 1 1.259-1.46 1.434 1.434 0 0 1 1.618 1.046c.037.129.134.156.208.156.073 0 .17-.027.207-.156a1.437 1.437 0 0 1 1.619-1.045 1.44 1.44 0 0 1 1.258 1.46c0 .134.085.187.156.207.07.02.17.022.243-.09a1.439 1.439 0 0 1 1.847-.547 1.441 1.441 0 0 1 .797 1.755c-.038.13.028.204.09.245.064.04.16.07.26-.019a1.439 1.439 0 0 1 1.925-.003c.568.493.68 1.277.272 1.91-.073.112-.03.203.018.259.048.056.133.111.253.055a1.438 1.438 0 0 1 1.848.54 1.443 1.443 0 0 1-.276 1.91c-.102.087-.087.186-.056.254.031.067.096.144.228.124.74-.113 1.41.318 1.622 1.04a1.442 1.442 0 0 1-.803 1.754c-.122.055-.135.154-.124.227.01.074.05.165.183.184a1.441 1.441 0 0 1 1.263 1.456c0 .752-.519 1.35-1.263 1.456-.133.018-.173.11-.183.184-.01.073.002.172.124.227a1.443 1.443 0 0 1 .803 1.753c-.211.722-.876 1.154-1.621 1.041-.138-.018-.198.057-.228.124-.031.068-.046.166.055.254.57.491.683 1.277.277 1.91a1.438 1.438 0 0 1-1.849.54c-.121-.056-.205-.001-.253.055-.049.056-.091.147-.018.26a1.444 1.444 0 0 1-.271 1.909 1.44 1.44 0 0 1-1.927-.003.199.199 0 0 0-.258-.02c-.062.041-.128.116-.09.245a1.442 1.442 0 0 1-.798 1.755 1.44 1.44 0 0 1-1.847-.546c-.072-.113-.172-.11-.243-.09-.07.02-.155.073-.155.207a1.44 1.44 0 0 1-1.259 1.46 1.435 1.435 0 0 1-1.618-1.045c-.038-.13-.134-.156-.208-.156-.074 0-.17.027-.207.156a1.435 1.435 0 0 1-1.394 1.061zm-1.706-2.948c.14 0 .28.02.42.06a1.46 1.46 0 0 1 1.055 1.415c0 .125.062.198.185.215.123.021.204-.033.238-.153.184-.635.75-1.06 1.41-1.06.66 0 1.226.425 1.41 1.06.034.12.115.172.238.153.123-.017.186-.09.185-.215a1.46 1.46 0 0 1 1.054-1.414 1.456 1.456 0 0 1 1.651.62c.067.104.16.133.273.08.112-.053.152-.139.117-.259a1.46 1.46 0 0 1 .614-1.655 1.456 1.456 0 0 1 1.757.128c.095.082.19.083.284.001.094-.082.107-.177.04-.281a1.461 1.461 0 0 1 .123-1.761 1.455 1.455 0 0 1 1.723-.373c.113.052.205.025.272-.08.067-.105.054-.2-.04-.281a1.46 1.46 0 0 1-.378-1.725c.274-.6.9-.941 1.548-.844.123.017.204-.033.24-.153.034-.12-.006-.206-.119-.258a1.46 1.46 0 0 1-.847-1.549 1.457 1.457 0 0 1 1.248-1.246c.123-.017.186-.09.186-.214 0-.125-.062-.198-.186-.215a1.458 1.458 0 0 1-1.248-1.246 1.46 1.46 0 0 1 .847-1.549c.114-.052.154-.139.118-.258-.035-.12-.116-.174-.239-.154a1.451 1.451 0 0 1-1.548-.843 1.461 1.461 0 0 1 .377-1.725c.095-.081.108-.176.041-.28-.067-.105-.159-.133-.272-.08-.6.276-1.291.126-1.723-.373a1.462 1.462 0 0 1-.123-1.762c.067-.104.054-.2-.04-.28-.094-.083-.19-.082-.284 0a1.457 1.457 0 0 1-1.757.128 1.46 1.46 0 0 1-.614-1.655c.035-.12-.005-.206-.117-.258-.114-.052-.206-.025-.273.08a1.457 1.457 0 0 1-1.65.62 1.46 1.46 0 0 1-1.055-1.415c0-.125-.062-.197-.185-.215-.12-.017-.204.033-.238.153a1.457 1.457 0 0 1-1.41 1.06c-.66 0-1.226-.425-1.41-1.06-.035-.12-.116-.173-.238-.153-.123.018-.185.09-.185.215a1.46 1.46 0 0 1-1.054 1.415 1.457 1.457 0 0 1-1.651-.62c-.067-.105-.158-.132-.272-.08-.113.052-.153.138-.118.258a1.46 1.46 0 0 1-.614 1.655 1.457 1.457 0 0 1-1.757-.128c-.095-.082-.19-.082-.283 0-.095.08-.108.176-.04.28a1.462 1.462 0 0 1-.124 1.762c-.431.5-1.125.649-1.723.373-.113-.052-.205-.025-.272.08-.067.104-.054.199.04.28.5.431.652 1.125.378 1.725a1.453 1.453 0 0 1-1.549.844c-.125-.018-.203.033-.238.153-.035.12.004.206.118.258.6.273.941.895.847 1.55a1.457 1.457 0 0 1-1.249 1.245c-.123.017-.185.09-.185.215s.062.197.186.214a1.457 1.457 0 0 1 1.248 1.247 1.46 1.46 0 0 1-.847 1.548c-.114.052-.154.139-.118.258.035.12.116.173.239.154a1.455 1.455 0 0 1 1.547.843 1.46 1.46 0 0 1-.377 1.725c-.094.082-.107.176-.04.281.067.104.158.131.272.08a1.455 1.455 0 0 1 1.723.373c.432.5.48 1.207.123 1.761-.067.104-.054.2.04.281.094.082.19.081.284 0a1.455 1.455 0 0 1 1.757-.13 1.46 1.46 0 0 1 .614 1.656c-.035.12.004.206.118.258.114.054.205.025.272-.08.276-.433.74-.68 1.23-.68z"/>
        <path fill="#FFA200" d="M14.365 25.475a.64.64 0 0 1-.329-.09.63.63 0 0 1-.219-.87l7.673-12.682a.642.642 0 0 1 .877-.218.63.63 0 0 1 .219.87l-7.673 12.683a.64.64 0 0 1-.548.307zM14.621 15.77c-1.152 0-2.089-.952-2.089-2.123 0-1.17.938-2.122 2.09-2.122 1.15 0 2.088.952 2.088 2.122s-.937 2.123-2.089 2.123zm0-3.032a.904.904 0 0 0-.895.91c0 .501.401.91.895.91a.904.904 0 0 0 .895-.91.904.904 0 0 0-.895-.91zM22.38 24.869c-1.152 0-2.09-.952-2.09-2.123 0-1.17.938-2.123 2.09-2.123 1.15 0 2.088.952 2.088 2.123 0 1.17-.937 2.123-2.089 2.123zm0-3.033a.903.903 0 0 0-.896.91c0 .502.401.91.895.91a.904.904 0 0 0 .895-.91.903.903 0 0 0-.895-.91z"/>
    </g>
</svg>
