<svg xmlns="http://www.w3.org/2000/svg" xmlns:xlink="http://www.w3.org/1999/xlink" width="47" height="27" viewBox="0 0 47 27">
    <defs>
        <path id="a" d="M.008.099h9.224v1.535H.008z"/>
    </defs>
    <g fill="none" fill-rule="evenodd">
        <path fill="#FFF" d="M10.91 14.515V4.576c0-2.062 1.64-3.732 3.66-3.732h15.342c2.02 0 3.66 1.67 3.66 3.732V18.53a.033.033 0 0 1-.033.034H10.91"/>
        <path fill="#162C53" d="M33.645 18.563h-22a.738.738 0 0 1-.734-.743c0-.41.328-.742.734-.742h21.297V4.34c0-1.574-1.267-2.855-2.824-2.855H15.203c-1.557 0-2.824 1.281-2.824 2.855v9.579c0 .41-.329.743-.734.743a.739.739 0 0 1-.734-.743V4.34c0-2.393 1.925-4.34 4.292-4.34h14.915c2.367 0 4.293 1.947 4.293 4.34V17.79c0 .41-.36.773-.766.773z"/>
        <path fill="#64C3D7" d="M8.477 2.531H2.434c-.417 0-.755-.377-.755-.844 0-.465.338-.843.755-.843h6.043c.417 0 .755.378.755.843 0 .467-.338.844-.755.844z"/>
        <g transform="translate(0 5.063)">
            <mask id="b" fill="#fff">
                <use xlink:href="#a"/>
            </mask>
            <path fill="#00E7FF" d="M8.522 1.634h-2.13c-.393 0-.71-.343-.71-.767 0-.425.317-.768.71-.768h2.13c.392 0 .71.343.71.768 0 .424-.318.767-.71.767zM4.261 1.634H.711C.317 1.634 0 1.291 0 .867 0 .442.318.099.71.099h3.551c.392 0 .71.343.71.768 0 .424-.318.767-.71.767z" mask="url(#b)"/>
        </g>
        <path fill="#64C3D7" d="M8.533 10.125H5.735c-.386 0-.7-.378-.7-.844 0-.466.314-.844.7-.844h2.798c.386 0 .7.378.7.844 0 .466-.314.844-.7.844z"/>
        <path fill="#F79521" d="M43.606 22.781H12.589V17.72h33.572v2.475c0 1.429-1.144 2.587-2.555 2.587z"/>
        <path fill="#162C53" d="M43.628 24.469h-31.98a.743.743 0 0 1-.737-.75v-5.25c0-.415.33-.75.736-.75h34.616c.407 0 .737.335.737.75v2.567c0 1.892-1.512 3.433-3.372 3.433zm-31.244-1.5h31.244c1.047 0 1.899-.868 1.899-1.933v-1.817H12.384v3.75z"/>
        <path fill="#019447" d="M33.571 5.906h5.258c4.05 0 7.332 3.273 7.332 7.31v4.503H33.57V5.906z"/>
        <path fill="#162C53" d="M46.249 18.563H33.483a.75.75 0 0 1-.75-.75v-12a.75.75 0 0 1 .75-.75h5.33C43.328 5.063 47 8.73 47 13.238v4.575a.75.75 0 0 1-.751.75zm-12.015-1.5h11.264v-3.825c0-3.68-2.999-6.676-6.684-6.676h-4.58v10.5z"/>
        <path fill="#FFF" d="M44.482 13.5H36.09V9.281h3.815c2.528 0 4.578 1.889 4.578 4.219z"/>
        <path fill="#162C53" d="M43.772 14.344H35.96a.724.724 0 0 1-.71-.738v-4.43c0-.408.318-.739.71-.739h3.55c2.742 0 4.972 2.32 4.972 5.169a.724.724 0 0 1-.71.738zm-7.102-1.477h6.32c-.33-1.682-1.764-2.953-3.48-2.953h-2.84v2.953z"/>
        <path fill="#FFF" d="M20.143 23.203a2.945 2.945 0 0 1-2.938 2.953 2.945 2.945 0 0 1-2.937-2.953 2.945 2.945 0 0 1 2.937-2.953 2.946 2.946 0 0 1 2.938 2.953z"/>
        <path fill="#162C53" d="M18.044 27c-2.082 0-3.776-1.703-3.776-3.797 0-2.093 1.694-3.797 3.776-3.797 2.083 0 3.777 1.704 3.777 3.797 0 2.094-1.694 3.797-3.777 3.797zm0-6.075a2.275 2.275 0 0 0-2.266 2.278 2.275 2.275 0 0 0 2.266 2.278 2.275 2.275 0 0 0 2.267-2.278 2.275 2.275 0 0 0-2.267-2.278z"/>
        <path fill="#FFF" d="M43.643 23.203a2.945 2.945 0 0 1-2.937 2.953 2.945 2.945 0 0 1-2.938-2.953 2.946 2.946 0 0 1 2.938-2.953 2.945 2.945 0 0 1 2.937 2.953z"/>
        <path fill="#162C53" d="M40.706 27c-2.083 0-3.777-1.703-3.777-3.797 0-2.093 1.694-3.797 3.777-3.797 2.082 0 3.776 1.704 3.776 3.797 0 2.094-1.694 3.797-3.776 3.797zm0-6.075a2.275 2.275 0 0 0-2.267 2.278 2.275 2.275 0 0 0 2.267 2.278 2.275 2.275 0 0 0 2.266-2.278 2.275 2.275 0 0 0-2.266-2.278z"/>
        <path fill="#162C53" d="M46.267 27H1.572c-.405 0-.733-.377-.733-.844 0-.466.328-.843.733-.843h44.695c.404 0 .733.377.733.843 0 .467-.329.844-.733.844z"/>
    </g>
</svg>
