<svg xmlns="http://www.w3.org/2000/svg" xmlns:xlink="http://www.w3.org/1999/xlink" width="255" height="51" viewBox="0 0 255 51">
    <defs>
        <path id="a" d="M0 .03h254.756V51H0z"/>
    </defs>
    <g fill="none" fill-rule="evenodd">
        <path fill="#F79521" d="M61.546 10v19.073l7.545-9.348h6.636v.33L66.59 30.679 77 42.575V43h-6.682l-8.772-10.528V43H56V10zM79 43h5V10h-5z"/>
        <mask id="b" fill="#fff">
            <use xlink:href="#a"/>
        </mask>
        <path fill="#F79521" d="M87.574 42.473h5.46v-23.61h-5.46v23.61zm5.951-30.145c0 4.531-6.443 4.531-6.443 0s6.443-4.531 6.443 0zM102.208 9.133v19.269l7.427-9.444h6.533v.334l-8.993 10.731 10.246 12.02v.43h-6.578l-8.635-10.637v10.636h-5.46V9.132z" mask="url(#b)"/>
        <path fill="#019447" d="M124.313 9.085v13.068c1.969-2.718 4.385-3.529 6.89-3.529 6.266 0 9.04 4.531 9.04 11.447v12.401h-5.459V30.12c0-4.293-2.103-6.105-5.012-6.105-3.222 0-5.459 2.91-5.459 6.439v12.02h-5.459V9.084h5.46zM148.21 30.74c0 3.576 2.013 6.915 5.995 6.915 3.983 0 5.997-3.339 5.997-6.916 0-3.53-2.328-6.964-5.997-6.964-3.936 0-5.996 3.434-5.996 6.964m17.496 0c0 6.773-4.34 12.258-11.5 12.258-7.158 0-11.454-5.485-11.454-12.258 0-6.725 4.384-12.258 11.41-12.258s11.544 5.533 11.544 12.258M173.448 18.958l.404 2.719c1.7-2.91 3.98-3.339 6.219-3.339 2.282 0 4.475.953 5.682 2.242l-2.46 5.055c-1.119-1-2.148-1.526-3.938-1.526-2.863 0-5.503 1.622-5.503 5.962v12.401h-5.46V18.958h5.056zM203.385 27.972c-.357-3.053-2.596-4.579-5.728-4.579-2.953 0-5.37 1.526-6.175 4.58h11.903zm-11.992 4.817c.358 2.91 2.729 5.01 6.577 5.01 2.013 0 4.654-.812 5.907-2.195l3.49 3.673c-2.327 2.575-6.13 3.816-9.486 3.816-7.607 0-12.127-5.01-12.127-12.545 0-7.155 4.565-12.306 11.724-12.306 7.383 0 11.991 4.865 11.142 14.547h-17.227zM230.68 39.467c-2.55 2.672-5.234 3.72-8.5 3.72-6.399 0-11.725-4.101-11.725-12.448 0-8.347 5.326-12.448 11.725-12.448 3.132 0 5.548.953 7.964 3.481l-3.444 3.863c-1.299-1.24-2.909-1.86-4.432-1.86-3.669 0-6.353 2.862-6.353 6.964 0 4.484 2.864 6.869 6.265 6.869 1.745 0 3.49-.526 4.832-1.956l3.669 3.815zM236.276 30.691c0 4.484 2.908 7.155 6.533 7.155 8.591 0 8.591-14.261 0-14.261-3.625 0-6.533 2.623-6.533 7.106zm13.244-11.733h5.237v23.514h-5.147l-.268-3.433c-1.253 2.766-4.698 4.101-7.159 4.149-6.533.048-11.366-4.246-11.366-12.497 0-8.108 5.056-12.353 11.5-12.306 2.954 0 5.772 1.48 7.025 3.816l.178-3.243zM33.19 36.181l-1.64-.664.004.135 1.546.747zM18.514 18.743l.23 1.094.07-.05-.152-1.075z" mask="url(#b)"/>
        <path fill="#BD202E" d="M25.352 12.988c-.124.153-2.162.713-2.04 1.48.084.524 1.812.236 2.246.213.433-.024.405.181.377.408-.03.227-2.214.986-2.12 1.483.092.495 2.428.65 2.565.77.135.12.006.233.006.233-4.052 1.194-4.837-.807-4.837-.807l-2.251.216.602-2.224 1.204.05c1.148-2.364 3.786-2.138 3.966-2.11.366.06.36.192.282.288M40.76 30.28l-1.787 1.968c-.065.07-.135.13-.21.178l-.138-2.773s-2.227-.585-2.367-2.182c-.141-1.596.647-4.056 2.037-4.363 1.39-.31 2.896 1.308 3.307 2.228.413.917.855 2.606-.923 3.823l.08 1.121z" mask="url(#b)"/>
        <path fill="#F1F1F1" d="M38.639 23.941s1.525.16 2.2 1.73c1.05 2.446-.873 3.147-1.203 3.157-2.801.086-2.458-2.16-2.307-3.083.15-.924.534-1.81 1.31-1.804" mask="url(#b)"/>
        <path fill="#F79521" d="M23.414 26.637a1.716 1.716 0 0 1-1.335 2.035 1.733 1.733 0 0 1-2.054-1.322 1.717 1.717 0 0 1 1.335-2.036 1.733 1.733 0 0 1 2.054 1.323" mask="url(#b)"/>
        <path fill="#C2986C" d="M30.125 15.034c.742.816.837 1.928.214 2.484-.624.556-1.73.345-2.472-.47-.74-.817-.837-1.93-.212-2.485.622-.556 1.73-.345 2.47.471" mask="url(#b)"/>
        <path fill="#019447" d="M43.765 22.346a1.41 1.41 0 0 1-1.096 1.671 1.423 1.423 0 0 1-1.688-1.086 1.41 1.41 0 0 1 1.097-1.67 1.422 1.422 0 0 1 1.687 1.085M42.313 12.418a1.372 1.372 0 0 1-1.544 1.169 1.364 1.364 0 0 1-1.181-1.53c.1-.745.792-1.269 1.544-1.17.753.1 1.282.785 1.181 1.53" mask="url(#b)"/>
        <path fill="#F79521" d="M43.423 16.802a.857.857 0 0 1-.756.95.862.862 0 0 1-.958-.75.857.857 0 0 1 .757-.949.861.861 0 0 1 .957.75M32.934 13.508c.03.542-.306 1.05-.753 1.132-.445.082-.83-.29-.861-.833-.03-.542.307-1.05.754-1.132.444-.083.83.29.86.833" mask="url(#b)"/>
        <path fill="#019447" d="M18.47 26.109a.842.842 0 0 1-.948.717.836.836 0 0 1-.724-.938.841.841 0 0 1 .948-.717c.46.06.785.48.724.938M25.79 9.634a.875.875 0 0 1-.986.747.872.872 0 0 1-.754-.977.877.877 0 0 1 .986-.747.87.87 0 0 1 .754.977" mask="url(#b)"/>
        <path fill="#BD202E" d="M27.204 35.827a.944.944 0 0 1-1.062.805.939.939 0 0 1-.814-1.054.945.945 0 0 1 1.064-.804.94.94 0 0 1 .812 1.053M40.395 19.85a.704.704 0 0 1-.792.6.699.699 0 1 1 .187-1.385.7.7 0 0 1 .605.785" mask="url(#b)"/>
        <path fill="#C2986C" d="M49.204 17.211a1.052 1.052 0 0 1-.819 1.25c-.574.12-1.482-.296-1.604-.865-.121-.569.588-1.076 1.162-1.197.574-.12 1.14.243 1.261.812" mask="url(#b)"/>
        <path fill="#019447" d="M26.456 32.733c-.1-.055-1.826-.993-2-2.954-.172-1.96.765-2.235.765-2.235.513 2.405 2.618 1.96 2.2 4.371-.133.756-.253 1.003-.253 1.003l-.895-1.295.575 1.318-.392-.208zM28.212 27.93c.02-.081.36-1.494 1.808-2.212 1.448-.718 1.347-.52 1.347-.52s-.486 2.636-2.329 3.108c-.6.153-.814.145-.814.145l.79-.981-.876.78.074-.32zM29.558 10.194c-.023-.08-.438-1.475.458-2.81.896-1.337.907-1.115.907-1.115s.902 2.526-.46 3.843c-.443.43-.633.528-.633.528l.191-1.24-.367 1.108-.096-.314z" mask="url(#b)"/>
        <path fill="#BD202E" d="M35.56 16.77s-1.712-.534-3.93 1.37c-1.453 1.249-4.17 1.344-3.835 2.555.335 1.21 1.479 2.011 2.811 1.711 1.332-.3 4.468.36 5.15.41.682.052 1.998-1.25 2.212-2.46.216-1.212-.417-3.436-2.408-3.586" mask="url(#b)"/>
        <path fill="#991B28" d="M36.322 20.91c-.572.691-1.6.794-2.297.23a1.607 1.607 0 0 1-.233-2.277c.57-.691 1.6-.793 2.298-.228.698.565.802 1.583.232 2.275" mask="url(#b)"/>
        <path fill="#BD202E" d="M31.95 34.827s-3.226-.723-3.62-1.171c-.395-.449-.376.246-.329.257.047.011.984 1.375 2.128 1.872.863.374 1.389.586 1.851.093.344-.365.57-.731-.03-1.05" mask="url(#b)"/>
        <path fill="#F79521" d="M24.508 18.958s-2.505 1.29-2.653 2.722c-.127 1.24 1.624.903 1.624.903s2.13-.264 2.722-.713c.404-.307 1.468-1.336.284-2.705-.638-.737-1.977-.207-1.977-.207" mask="url(#b)"/>
        <path fill="#FAB042" d="M24.508 18.956s-2.52 1.223-2.693 2.533c-.15 1.136 1.6.796 1.6.796s2.127-.28 2.724-.7c.41-.289 1.487-1.248.333-2.477-.621-.661-1.964-.152-1.964-.152" mask="url(#b)"/>
        <path fill="#F79521" d="M26.442 20.066a.924.924 0 0 1-.719 1.096.933.933 0 0 1-1.106-.712.925.925 0 0 1 .72-1.095.933.933 0 0 1 1.105.711" mask="url(#b)"/>
        <path fill="#991B28" d="M17.756 21.633s1.036 2.404 2.307 2.633c1.1.199.88-1.444.88-1.444s-.137-1.99-.51-2.566c-.256-.396-1.125-1.446-2.4-.439-.69.543-.277 1.816-.277 1.816" mask="url(#b)"/>
        <path fill="#019447" d="M18.738 19.438s-.037-.374.251-.542c.288-.168.579-.122.579-.122s.026.63-.83.664" mask="url(#b)"/>
        <path fill="#991B28" d="M28.142 19.886s.096.934 1.196 1.452c1.1.52 5.236.478 5.763.616.528.139 1.484-.095 1.89-.632.407-.536.837-1.761.945-1.9.097.896-.066 1.404-.066 1.404s-.222.634-.72 1.238c-.343.416-.5.9-1.248.89-.75-.013-.667-.116-1.411.038-.746.153-1.953-.118-2.79-.339-.837-.22-1.985.095-2.57-.174-1.936-.893-1.364-2.28-1.364-2.28l.375-.313z" mask="url(#b)"/>
        <path fill="#C2986C" d="M23.59 25.504c.016-.072-.765-2.05 1.23-2.311 1.562-.204 2.192.816 3.179.91.989.094 2.432-.495 2.432-.495s.561-.575 1.091-.44c.53.134.594.887.111 1.115-.482.228-.83.115-.991.15-.161.033-2.187 0-2.635.522-.446.521-1.475 1.529-2.811 1.603-1.575.087-1.607-1.054-1.607-1.054" mask="url(#b)"/>
        <path fill="#019447" d="M29.388 43.381c-4.342 0-8.737-1.439-12.78-4.28-9.854-6.926-5.09-21.633-2.073-28.59L1.203 9.946l.231-5.326 21.706.924-2.068 3.755c-.104.19-10.207 19.23-1.35 25.456C24.955 38.432 30.89 39.04 36 36.425c4.906-2.51 8.077-7.432 8.077-12.537h5.38c0 7.076-4.313 13.857-10.988 17.273-2.901 1.485-5.98 2.22-9.082 2.22M35.467 49.177a1.754 1.754 0 0 1-1.763-1.746c0-.965.79-1.747 1.763-1.747.974 0 1.762.782 1.762 1.747 0 .964-.788 1.746-1.762 1.746m.051-5.315c-1.99 0-3.603 1.597-3.603 3.569 0 1.971 1.613 3.569 3.603 3.569 1.99 0 3.603-1.598 3.603-3.57 0-1.97-1.613-3.568-3.603-3.568M10.687 42.038a1.754 1.754 0 0 1-1.762-1.746c0-.965.788-1.747 1.762-1.747.973 0 1.763.782 1.763 1.747 0 .964-.79 1.746-1.763 1.746m0-5.316c-1.99 0-3.603 1.598-3.603 3.57 0 1.97 1.612 3.57 3.603 3.57 1.99 0 3.603-1.6 3.603-3.57 0-1.972-1.613-3.57-3.603-3.57" mask="url(#b)"/>
        <path fill="#FEFEFE" d="M27.984 15.05s1.441.588 1.59 1.12c.147.531 1.19 1.005 1.19 1.005l-.283.376s-.852-.657-1.04-1.216c-.133-.397-1.457-1.286-1.457-1.286" mask="url(#b)"/>
        <path fill="#C2986C" d="M17.498 29.908a1.21 1.21 0 0 1 .74-1.077c.389-.162.937-.213 1.62.17 1.444.814 1.39 1.977 2.042 2.194.652.218 1.748.253 2.225.92.476.669.513 2.817-.671 2.8-1.183-.016-2.005-2.296-2.697-2.563-.694-.268-2.068-.186-2.906-1.132-.316-.357-.37-.9-.353-1.312" mask="url(#b)"/>
        <path fill="#FAB042" d="M34.971 26.03l.484 3.109.223 1.428.318 2.05-6.691-2.68 1.336-.922 1.162-.803z" mask="url(#b)"/>
        <path fill="#F79521" d="M35.996 32.616l-.345 2.133-6.655-3.526.31-1.287.415-.088 2.897 1.277a1.015 1.015 0 0 0 1.145 1.407c.334-.071.597-.294.725-.581l1.508.665zM35.454 29.139l.224 1.428h-.004a.731.731 0 0 1-.866-.556.725.725 0 0 1 .563-.858c.03-.006.057-.013.083-.014M34.65 27.666a.392.392 0 0 1-.767.161.386.386 0 0 1 .303-.46c.212-.045.419.09.465.3M32.08 28.647a.733.733 0 0 1-.574.87.746.746 0 0 1-.865-.503l1.163-.802a.758.758 0 0 1 .276.435" mask="url(#b)"/>
        <path fill="#DA8127" d="M34.488 31.95c-.128.288-.39.511-.725.581a1.022 1.022 0 0 1-1.212-.782 1.016 1.016 0 0 1 .067-.624l1.87.825z" mask="url(#b)"/>
        <path fill="#F79521" d="M34.552 31.328c.047.22.02.433-.064.622l-1.87-.824c.13-.284.39-.507.72-.577a1.02 1.02 0 0 1 1.214.779" mask="url(#b)"/>
        <path fill="#FAB042" d="M33.396 12.803l1.169-.387.537-.178.77-.255-.595 2.71-.444-.446-.385-.387z" mask="url(#b)"/>
        <path fill="#F79521" d="M35.871 11.982l.847-.01-.925 2.753-.516-.032-.061-.152.302-1.18c.078.018.165.015.245-.017a.392.392 0 0 0-.048-.747l.156-.615zM34.565 12.416l.537-.179v.002a.28.28 0 0 1-.158.364.284.284 0 0 1-.379-.187M34.05 12.817a.15.15 0 0 1 .113.28.152.152 0 0 1-.198-.084.149.149 0 0 1 .085-.196M34.597 13.727a.288.288 0 0 1 .374.16.284.284 0 0 1-.138.36l-.386-.387a.298.298 0 0 1 .15-.133" mask="url(#b)"/>
        <path fill="#DA8127" d="M35.714 12.597a.392.392 0 0 1 .05.747.4.4 0 0 1-.246.016l.196-.763z" mask="url(#b)"/>
        <path fill="#F79521" d="M35.47 12.614a.407.407 0 0 1 .245-.017l-.197.763a.391.391 0 0 1-.05-.746" mask="url(#b)"/>
        <path fill="#019447" d="M2.994.142l-.682 13.684L2.994.142zM4.625 13.94L0 13.712.682.03l4.625.227zM10.478.516L9.797 14.2 10.478.516zM12.11 14.313l-4.626-.226L8.166.403l4.625.226zM94.497 11.701c.492 2.295-.987 4.549-3.303 5.037-2.316.487-4.592-.978-5.084-3.272-.492-2.295.987-4.55 3.303-5.037 2.316-.487 4.593.978 5.084 3.272" mask="url(#b)"/>
    </g>
</svg>
