<svg xmlns="http://www.w3.org/2000/svg" xmlns:xlink="http://www.w3.org/1999/xlink" width="78" height="78" viewBox="0 0 78 78">
    <defs>
        <path id="a" d="M.011.015h14.974V15H.011z"/>
        <path id="c" d="M.011.077h14.974V15.87H.011z"/>
        <path id="e" d="M.011.046h14.974v15.792H.011z"/>
    </defs>
    <g fill="none" fill-rule="evenodd">
        <g transform="translate(0 63)">
            <mask id="b" fill="#fff">
                <use xlink:href="#a"/>
            </mask>
            <path fill="#35A238" d="M1.249 13.751h12.488V1.263H1.249z" mask="url(#b)"/>
            <path fill="#162C53" d="M2.498 12.502h9.99v-9.99h-9.99v9.99zM13.737 15H1.249C.559 15 0 14.441 0 13.751V1.263C0 .573.56.015 1.249.015h12.488c.689 0 1.248.558 1.248 1.248v12.488c0 .69-.559 1.249-1.248 1.249z" mask="url(#b)"/>
        </g>
        <path fill="#FFFFFE" d="M33 77h13V64H33z"/>
        <path fill="#162C53" d="M34.5 75.5h10v-10h-10v10zM45.75 78h-12.5c-.69 0-1.25-.56-1.25-1.25v-12.5c0-.69.56-1.25 1.25-1.25h12.5c.69 0 1.25.56 1.25 1.25v12.5c0 .69-.56 1.25-1.25 1.25z"/>
        <path fill="#F6D42F" d="M64 77h13V64H64z"/>
        <path fill="#162C53" d="M65.5 75.5h10v-10h-10v10zM76.75 78h-12.5c-.69 0-1.25-.56-1.25-1.25v-12.5c0-.69.56-1.25 1.25-1.25h12.5c.69 0 1.25.56 1.25 1.25v12.5c0 .69-.56 1.25-1.25 1.25z"/>
        <g>
            <mask id="d" fill="#fff">
                <use xlink:href="#c"/>
            </mask>
            <path fill="#F6D42F" d="M1.249 14.553h12.488V1.393H1.249z" mask="url(#d)"/>
            <path fill="#162C53" d="M2.498 13.237h9.99V2.709h-9.99v10.528zm11.239 2.632H1.249C.559 15.869 0 15.28 0 14.553V1.393C0 .666.56.077 1.249.077h12.488c.689 0 1.248.589 1.248 1.316v13.16c0 .727-.559 1.316-1.248 1.316z" mask="url(#d)"/>
        </g>
        <path fill="#FFFFFE" d="M33 14h13V1H33z"/>
        <path fill="#162C53" d="M34.5 12.5h10v-10h-10v10zM45.75 15h-12.5c-.69 0-1.25-.56-1.25-1.25V1.25C32 .56 32.56 0 33.25 0h12.5C46.44 0 47 .56 47 1.25v12.5c0 .69-.56 1.25-1.25 1.25z"/>
        <path fill="#35A238" d="M64 14h13V1H64z"/>
        <path fill="#162C53" d="M65.5 12.5h10v-10h-10v10zM76.75 15h-12.5c-.69 0-1.25-.56-1.25-1.25V1.25C63 .56 63.56 0 64.25 0h12.5C77.44 0 78 .56 78 1.25v12.5c0 .69-.56 1.25-1.25 1.25z"/>
        <g transform="translate(0 31)">
            <mask id="f" fill="#fff">
                <use xlink:href="#e"/>
            </mask>
            <path fill="#FFFFFE" d="M1.249 14.522h12.488V1.362H1.249z" mask="url(#f)"/>
            <path fill="#162C53" d="M2.498 13.206h9.99V2.678h-9.99v10.528zm11.239 2.632H1.249C.559 15.838 0 15.25 0 14.522V1.362C0 .635.56.046 1.249.046h12.488c.689 0 1.248.59 1.248 1.316v13.16c0 .727-.559 1.316-1.248 1.316z" mask="url(#f)"/>
        </g>
        <path fill="#FFFFFE" d="M64 46h13V33H64z"/>
        <path fill="#162C53" d="M65.5 44.5h10v-10h-10v10zM76.75 47h-12.5c-.69 0-1.25-.56-1.25-1.25v-12.5c0-.69.56-1.25 1.25-1.25h12.5c.69 0 1.25.56 1.25 1.25v12.5c0 .69-.56 1.25-1.25 1.25zM8 34c-.552 0-1-.61-1-1.364V20.364C7 19.61 7.448 19 8 19s1 .61 1 1.364v12.272C9 33.39 8.552 34 8 34M8 65c-.552 0-1-.56-1-1.25v-17.5c0-.69.448-1.25 1-1.25s1 .56 1 1.25v17.5C9 64.44 8.552 65 8 65"/>
        <path fill="#162C53" d="M70 34c-.552 0-1-.587-1-1.312V14.312c0-.725.448-1.312 1-1.312s1 .587 1 1.312v18.376c0 .725-.448 1.312-1 1.312M70 59c-.552 0-1-.61-1-1.364V45.364c0-.754.448-1.364 1-1.364s1 .61 1 1.364v12.272C71 58.39 70.552 59 70 59M32.688 9H14.312C13.588 9 13 8.553 13 8c0-.553.588-1 1.312-1h18.376C33.412 7 34 7.447 34 8c0 .553-.588 1-1.312 1M63.688 9H45.312C44.588 9 44 8.553 44 8c0-.553.588-1 1.312-1h18.376C64.412 7 65 7.447 65 8c0 .553-.588 1-1.312 1M32.688 71H14.312C13.588 71 13 70.553 13 70c0-.553.588-1 1.312-1h18.376c.724 0 1.312.447 1.312 1 0 .553-.588 1-1.312 1M63.688 71H45.312C44.588 71 44 70.553 44 70c0-.553.588-1 1.312-1h18.376c.724 0 1.312.447 1.312 1 0 .553-.588 1-1.312 1"/>
        <path fill="#F79521" d="M49.096 57H29.904C27.195 57 25 54.835 25 52.164V35.836C25 33.166 27.195 31 29.904 31h19.192C51.805 31 54 33.165 54 35.836v16.328C54 54.835 51.805 57 49.096 57"/>
        <path fill="#162C53" d="M30.096 31.636c-1.937 0-3.513 1.608-3.513 3.585v16.557c0 1.977 1.576 3.585 3.513 3.585h18.807c1.938 0 3.514-1.607 3.514-3.584V35.22c0-1.977-1.576-3.585-3.513-3.585H30.096zM48.904 58H30.096C26.734 58 24 55.21 24 51.779V35.22C24 31.791 26.734 29 30.096 29h18.807C52.266 29 55 31.79 55 35.221v16.557C55 55.21 52.266 58 48.904 58z"/>
        <path fill="#162C53" d="M49.755 33c-.688 0-1.246-.61-1.246-1.364 0-6.015-4.469-10.909-9.961-10.909-2.382 0-4.688.935-6.491 2.633-.52.493-1.308.426-1.756-.144-.448-.571-.39-1.433.133-1.923C32.688 19.17 35.57 18 38.548 18 45.414 18 51 24.118 51 31.636 51 32.39 50.442 33 49.755 33"/>
        <path fill="#FFF" d="M43 39.75c0-2.071-1.79-3.75-4-3.75s-4 1.679-4 3.75c0 1.106.52 2.09 1.333 2.777V51h5.334v-8.473C42.479 41.84 43 40.857 43 39.75"/>
        <path fill="#162C53" d="M37.75 49.428h2.5V42c0-.364.15-.71.412-.954.54-.5.838-1.176.838-1.902 0-1.418-1.121-2.571-2.5-2.571s-2.5 1.153-2.5 2.57c0 .727.297 1.402.838 1.903.262.244.412.59.412.954v7.43zM41.5 52h-5c-.69 0-1.25-.575-1.25-1.286v-8.19A5.22 5.22 0 0 1 34 39.143C34 36.307 36.243 34 39 34s5 2.307 5 5.143a5.22 5.22 0 0 1-1.25 3.381v8.19c0 .71-.56 1.286-1.25 1.286z"/>
    </g>
</svg>
