<svg xmlns="http://www.w3.org/2000/svg" xmlns:xlink="http://www.w3.org/1999/xlink" width="101" height="355" viewBox="0 0 101 355">
    <defs>
        <path id="a" d="M.18.183h92.132V144.18H.18z"/>
    </defs>
    <g fill="none" fill-rule="evenodd">
        <path fill="#F8F4EB" d="M-74.574 273.155l-50.276-124.437c25.013-43.847 56.157-84.058 94.5-116.71C-20.157 23.318-9.333 15.11 3.02 9.926c12.354-5.185 26.464-7.14 39.226-3.092 17.96 5.696 31.166 23.88 31.026 42.72-.132 17.522-10.36 33.099-17.553 49.084-7.192 15.985-10.921 36.365.34 49.8 5.002 5.972 12.215 9.547 18.511 14.135 13.078 9.546 22.32 24.132 25.671 39.95l-174.815 70.63z"/>
        <path fill="#BD202E" d="M-85.104.964c-9.556 12.201-1.992 34.407 6.139 45.558 8.137 11.149 38.234 38.139 85.202 52.256 12.495 3.755 34.385 3.345 44.2-7.58C74.255 64.692 26.958 18.24 6.947 4.72-9.243-6.222-60.812-30.03-85.102.964"/>
        <g transform="rotate(158 -1.6 85.995)">
            <mask id="b" fill="#fff">
                <use xlink:href="#a"/>
            </mask>
            <path fill="#F79521" d="M92.312 49.282v94.899c-5.285-.691-10.536-2.35-15.334-4.64-19.777-9.447-33.865-28.71-40.136-49.776-2.138-7.216-3.493-14.742-6.807-21.505-4.038-8.22-10.714-14.767-16.736-21.662C7.277 39.704 1.61 31.88.376 22.791-.86 13.7 3.784 3.229 12.586.747c9.812-2.767 19.505 5.094 25.064 13.67 5.57 8.576 9.406 18.727 17.52 24.929 10.31 7.885 24.35 7.169 37.142 9.936" mask="url(#b)"/>
        </g>
        <path fill="#35A238" d="M-5.141 207.526c19.144 8.835 31.649 23.37 30.224 38.115-1.208 12.495-11.031 24.641-8.082 37.023 1.973 8.298 9.51 15.673 13.238 23.742 5.432 11.706 2.306 24.797-8.355 35.057-6.61 6.36-16.057 11.563-26.962 15.063l-.063-149z"/>
    </g>
</svg>
