<svg xmlns="http://www.w3.org/2000/svg" xmlns:xlink="http://www.w3.org/1999/xlink" width="272" height="271" viewBox="0 0 272 271">
    <defs>
        <path id="a" d="M0 0h67v79H0z"/>
        <path id="c" d="M.22.223h112.937V176H.22z"/>
    </defs>
    <g fill="none" fill-rule="evenodd">
        <path fill="#F8F4EB" d="M273.157 0v163.716c-48.311 38.162-101.893 69.41-160.163 88.819-15.492 5.169-31.48 9.508-47.816 9.725-16.336.219-33.183-4.018-45.763-14.428-17.705-14.65-24.33-41.25-15.565-62.494 8.154-19.758 26.834-32.702 42.269-47.495 15.434-14.793 28.96-36.14 22.364-56.48-2.927-9.041-9.449-16.38-14.472-24.446C43.585 40.144 39.8 19.424 43.236 0h229.921z"/>
        <g transform="rotate(-30 233.873 -394.81)">
            <mask id="b" fill="#fff">
                <use xlink:href="#a"/>
            </mask>
            <path fill="#BD202E" d="M59.775 76.119c7.499-4.302 8.228-17.333 6.351-24.78-1.88-7.446-11.816-27.641-33.178-44.711-5.683-4.542-17.1-8.892-24.466-5.302-17.874 8.708-3.106 42.527 4.426 53.671C19 64.016 40.718 87.044 59.775 76.119" mask="url(#b)"/>
        </g>
        <g transform="translate(160 94.443)">
            <mask id="d" fill="#fff">
                <use xlink:href="#c"/>
            </mask>
            <path fill="#F79521" d="M113.157 60.158V176c-6.479-.844-12.915-2.869-18.797-5.665-24.243-11.53-41.512-35.046-49.199-60.76-2.621-8.808-4.281-17.996-8.344-26.25-4.95-10.034-13.133-18.027-20.515-26.443C8.92 48.466 1.974 38.915.461 27.82-1.054 16.725 4.639 3.941 15.428.912 27.455-2.466 39.337 7.13 46.151 17.598c6.828 10.47 11.531 22.86 21.476 30.431 12.638 9.625 29.848 8.751 45.53 12.13" mask="url(#d)"/>
        </g>
        <path fill="#35A238" d="M252.205 0c-7.775 10.324-20.573 17.065-33.562 16.293-11.007-.654-21.71-5.955-32.615-4.367-7.308 1.062-13.802 5.125-20.908 7.134-10.31 2.927-21.841 1.238-30.883-4.514-5.605-3.567-10.191-8.663-13.278-14.545h131.246z"/>
    </g>
</svg>
