<svg xmlns="http://www.w3.org/2000/svg" width="38" height="37" viewBox="0 0 38 37">
    <g fill="none" fill-rule="evenodd">
        <path fill="#FFE600" d="M31.386 17.522l-2.976-1.226 5.752-14.013a1.608 1.608 0 0 1 2.1-.878 1.613 1.613 0 0 1 .877 2.104l-5.753 14.013z"/>
        <path fill="#162C53" d="M31.386 18.167a.647.647 0 0 1-.244-.049l-2.977-1.225a.642.642 0 0 1-.35-.842l5.752-14.013A2.24 2.24 0 0 1 34.783.814a2.235 2.235 0 0 1 1.724-.005 2.26 2.26 0 0 1 1.227 2.945l-5.752 14.013a.643.643 0 0 1-.596.4zm-2.136-2.222l1.786.736 5.508-13.417a.97.97 0 0 0-.526-1.262.96.96 0 0 0-1.26.527L29.25 15.944z"/>
        <path fill="#FFF" d="M25.964 17.59l-3.043-1.236L28.8 2.221a1.652 1.652 0 0 1 2.147-.885 1.619 1.619 0 0 1 .896 2.121l-5.88 14.133z"/>
        <path fill="#162C53" d="M25.38 18.197a.662.662 0 0 1-.252-.05l-3.004-1.228a.66.66 0 0 1-.36-.858l5.805-14.045c.233-.561.67-1 1.234-1.233a2.286 2.286 0 0 1 1.75-.005 2.273 2.273 0 0 1 1.244 2.967L25.99 17.789a.66.66 0 0 1-.612.408zm-2.142-2.245l1.782.729 5.553-13.436a.956.956 0 0 0-.524-1.25.951.951 0 0 0-.737.002.955.955 0 0 0-.52.52l-5.554 13.435z"/>
        <path fill="#FFF" d="M34.13 24.869H7.338L6.032 9.705h31.365z"/>
        <path fill="#162C53" d="M34.164 26.082H7.95a.645.645 0 0 1-.637-.598L6.034 10.417a.667.667 0 0 1 .166-.5.633.633 0 0 1 .471-.212h30.69c.193 0 .376.09.497.244a.67.67 0 0 1 .127.55l-3.197 15.068a.642.642 0 0 1-.624.515zm-25.628-1.31h25.112l2.92-13.757h-29.2l1.168 13.757z"/>
        <path fill="#019447" d="M31.294 21.23H11.71l-.852-7.28h21.714z"/>
        <path fill="#162C53" d="M6.03 10.311c-.302 0-.563-.25-.597-.588l-.544-5.367H.603C.27 4.356 0 4.06 0 3.694c0-.365.27-.661.603-.661H5.43c.307 0 .565.253.599.589l.603 5.954c.037.364-.201.691-.532.732a.675.675 0 0 1-.068.003zM7.84 31.541c-.302 0-.564-.25-.598-.589l-.603-5.955c-.037-.363.201-.69.533-.731.33-.038.63.22.665.585l.604 5.955c.037.363-.202.69-.533.731a.628.628 0 0 1-.068.004z"/>
        <path fill="#FFF" d="M11.46 33.36a2.42 2.42 0 0 1-2.413 2.427 2.42 2.42 0 0 1-2.412-2.427 2.42 2.42 0 0 1 2.412-2.426 2.42 2.42 0 0 1 2.413 2.426z"/>
        <path fill="#162C53" d="M9.047 37c-1.662 0-3.015-1.497-3.015-3.336 0-1.84 1.353-3.336 3.015-3.336 1.663 0 3.016 1.496 3.016 3.336 0 1.839-1.352 3.336-3.016 3.336zm0-5.338c-.997 0-1.809.898-1.809 2.002 0 1.103.812 2.002 1.81 2.002.997 0 1.81-.899 1.81-2.002 0-1.104-.813-2.002-1.81-2.002z"/>
        <path fill="#FFF" d="M33.778 33.36a2.42 2.42 0 0 1-2.413 2.427 2.42 2.42 0 0 1-2.413-2.427 2.42 2.42 0 0 1 2.413-2.426 2.42 2.42 0 0 1 2.413 2.426z"/>
        <path fill="#162C53" d="M30.762 37c-1.663 0-3.016-1.497-3.016-3.336 0-1.84 1.353-3.336 3.016-3.336s3.016 1.496 3.016 3.336c0 1.839-1.353 3.336-3.016 3.336zm0-5.338c-.998 0-1.81.898-1.81 2.002 0 1.103.812 2.002 1.81 2.002s1.81-.899 1.81-2.002c0-1.104-.812-2.002-1.81-2.002zM26.49 34.574H12.113c-.361 0-.654-.271-.654-.607 0-.335.293-.606.654-.606h14.375c.361 0 .654.27.654.606 0 .336-.293.607-.654.607z"/>
        <path fill="#F79521" d="M9.65 9.705h9.048V4.852H9.651z"/>
        <path fill="#162C53" d="M18.66 10.311H9.69a.655.655 0 0 1-.641-.667V4.306c0-.368.287-.667.64-.667h8.973c.354 0 .64.299.64.667v5.338a.655.655 0 0 1-.64.667zm-8.33-1.334h7.69V4.974h-7.69v4.003z"/>
        <path fill="#FFF" d="M21.111 9.705H16.89V2.88c0-1.256.945-2.274 2.11-2.274 1.167 0 2.112 1.018 2.112 2.274v6.824z"/>
        <path fill="#162C53" d="M21.647 10.311h-4.69a.658.658 0 0 1-.671-.644V2.9c0-1.6 1.353-2.9 3.016-2.9s3.015 1.3 3.015 2.9v6.767c.001.356-.3.644-.67.644zm-4.02-1.288h3.35V2.9c0-.888-.751-1.611-1.675-1.611s-1.676.723-1.676 1.611v6.123z"/>
        <path fill="#64C3D7" d="M29.556 10.311c0-2.344-1.89-4.245-4.223-4.245-2.331 0-4.222 1.9-4.222 4.245h8.445z"/>
        <path fill="#162C53" d="M28.91 10.311h-7.756c-.357 0-.646-.271-.646-.606 0-2.341 2.03-4.246 4.524-4.246s4.524 1.905 4.524 4.246c0 .335-.29.606-.647.606zm-7.045-1.213h6.333c-.3-1.382-1.606-2.426-3.166-2.426-1.56 0-2.866 1.044-3.167 2.426z"/>
    </g>
</svg>
