<svg xmlns="http://www.w3.org/2000/svg" width="20" height="20" viewBox="0 0 20 20">
    <g fill="#019447" fill-rule="evenodd">
        <path d="M14.903 13.045c-.609-.61-1.378-.61-1.995 0l-1.394 1.394c-.12.136-.233.16-.385.072-.296-.16-.625-.296-.913-.48-1.354-.85-2.484-1.94-3.494-3.174-.497-.617-.937-1.266-1.25-2.003a.288.288 0 0 1 .072-.368l1.378-1.379c.641-.649.641-1.402 0-2.043L5.825 3.958l-1.13-1.13c-.617-.6-1.386-.6-1.995.009-.473.464-.922.937-1.403 1.394-.425.4-.68.948-.713 1.53-.072.978.169 1.9.505 2.797.69 1.859 1.739 3.517 3.013 5.032a18.646 18.646 0 0 0 6.186 4.831c1.082.53 2.203.93 3.43 1.002.833.048 1.562-.168 2.147-.825.4-.441.857-.85 1.282-1.282.625-.633.625-1.403.008-2.028a297.199 297.199 0 0 0-2.252-2.243zM14.158 9.92l1.45-.249a6.514 6.514 0 0 0-5.496-5.336l-.209 1.458a5.016 5.016 0 0 1 4.255 4.127z"/>
        <path d="M16.418 3.622A10.697 10.697 0 0 0 10.304.569l-.209 1.458a9.319 9.319 0 0 1 7.885 7.636l1.45-.24a10.793 10.793 0 0 0-3.012-5.801z"/>
    </g>
</svg>
