<svg xmlns="http://www.w3.org/2000/svg" xmlns:xlink="http://www.w3.org/1999/xlink" width="85" height="17" viewBox="0 0 85 17">
    <defs>
        <path id="a" d="M0 .01H84.92V17H0z"/>
    </defs>
    <g fill="none" fill-rule="evenodd">
        <path fill="#F79521" d="M20.849 3v6.358l2.515-3.116h2.212v.11l-3.046 3.54L26 13.859V14h-2.227l-2.924-3.51V14H19V3zM26 14h2V3h-2z"/>
        <g>
            <mask id="b" fill="#fff">
                <use xlink:href="#a"/>
            </mask>
            <path fill="#F79521" d="M29.191 14.158h1.82v-7.87h-1.82v7.87zm1.984-10.049c0 1.51-2.148 1.51-2.148 0s2.148-1.51 2.148 0zM34.07 3.044v6.423l2.475-3.148h2.178v.112l-2.998 3.577 3.415 4.006v.143h-2.192l-2.879-3.545v3.545h-1.82V3.044z" mask="url(#b)"/>
            <path fill="#019447" d="M41.438 3.028v4.356c.656-.906 1.461-1.176 2.297-1.176 2.088 0 3.013 1.51 3.013 3.816v4.133h-1.82V10.04c0-1.431-.701-2.035-1.67-2.035-1.075 0-1.82.97-1.82 2.146v4.006h-1.82V3.028h1.82zM49.403 10.246c0 1.193.671 2.306 1.999 2.306 1.327 0 1.999-1.113 1.999-2.306 0-1.176-.776-2.32-2-2.32-1.311 0-1.998 1.144-1.998 2.32m5.832 0c0 2.258-1.447 4.086-3.833 4.086s-3.818-1.828-3.818-4.086c0-2.241 1.461-4.086 3.803-4.086 2.342 0 3.848 1.845 3.848 4.086M57.816 6.32l.135.906c.566-.97 1.327-1.113 2.073-1.113.76 0 1.491.317 1.894.747l-.82 1.685c-.373-.334-.716-.509-1.313-.509-.954 0-1.834.54-1.834 1.988v4.133h-1.82V6.32h1.685zM67.795 9.324c-.12-1.018-.865-1.526-1.91-1.526-.984 0-1.79.508-2.058 1.526h3.968zm-3.997 1.606c.119.97.91 1.67 2.192 1.67.671 0 1.551-.27 1.97-.732l1.162 1.224c-.775.859-2.043 1.272-3.162 1.272-2.535 0-4.042-1.67-4.042-4.181 0-2.385 1.522-4.102 3.908-4.102 2.461 0 3.997 1.621 3.714 4.849h-5.742zM76.894 13.156c-.85.89-1.745 1.24-2.834 1.24-2.133 0-3.908-1.367-3.908-4.15 0-2.782 1.775-4.15 3.908-4.15 1.044 0 1.85.319 2.655 1.161l-1.148 1.288a2.16 2.16 0 0 0-1.478-.62c-1.223 0-2.117.954-2.117 2.321 0 1.495.954 2.29 2.088 2.29.582 0 1.163-.175 1.61-.652l1.224 1.272zM78.759 10.23c0 1.495.97 2.385 2.177 2.385 2.864 0 2.864-4.753 0-4.753-1.208 0-2.177.874-2.177 2.368zm4.414-3.91h1.746v7.837h-1.716l-.09-1.144c-.417.922-1.565 1.367-2.385 1.383-2.178.016-3.79-1.415-3.79-4.166 0-2.702 1.686-4.117 3.834-4.102.985 0 1.924.493 2.342 1.272l.06-1.08zM11.063 12.06l-.547-.221.002.045.515.25zM6.171 6.248l.077.364.023-.017-.05-.358z" mask="url(#b)"/>
            <path fill="#BD202E" d="M8.45 4.33c-.04.05-.72.237-.68.493.029.174.605.078.75.07.144-.007.134.061.125.137-.01.075-.738.328-.707.494.031.165.81.216.855.256.045.04.002.078.002.078-1.35.398-1.612-.269-1.612-.269l-.75.072.2-.741.402.017c.382-.788 1.262-.713 1.322-.704.122.02.12.064.094.096M13.586 10.093l-.595.656a.345.345 0 0 1-.07.06l-.046-.925s-.742-.195-.79-.727c-.046-.532.217-1.352.68-1.454.463-.104.965.436 1.102.742.138.306.285.87-.307 1.275l.026.373z" mask="url(#b)"/>
            <path fill="#F1F1F1" d="M12.88 7.98s.508.054.733.577c.35.815-.29 1.049-.401 1.052-.934.029-.82-.72-.77-1.027.051-.308.179-.603.438-.602" mask="url(#b)"/>
            <path fill="#F79521" d="M7.805 8.879a.578.578 0 0 1-1.13.238.578.578 0 0 1 1.13-.238" mask="url(#b)"/>
            <path fill="#C2986C" d="M10.042 5.011c.247.272.279.643.071.828-.208.186-.577.115-.824-.157s-.279-.642-.07-.828c.207-.185.576-.115.823.157" mask="url(#b)"/>
            <path fill="#019447" d="M14.588 7.449a.474.474 0 0 1-.928.195.474.474 0 1 1 .928-.195M14.104 4.14a.457.457 0 0 1-.514.389.455.455 0 0 1-.394-.51.457.457 0 0 1 .515-.39.455.455 0 0 1 .393.51" mask="url(#b)"/>
            <path fill="#F79521" d="M14.474 5.6a.287.287 0 1 1-.571.066.286.286 0 0 1 .252-.315c.158-.018.3.094.32.25M10.978 4.503c.01.18-.102.35-.25.377-.15.027-.278-.097-.288-.278-.01-.18.102-.35.251-.377.148-.028.277.097.287.278" mask="url(#b)"/>
            <path fill="#019447" d="M6.157 8.703a.28.28 0 0 1-.316.239.279.279 0 0 1-.242-.313.28.28 0 0 1 .316-.239c.154.02.262.16.242.313M8.597 3.211a.292.292 0 0 1-.329.25.29.29 0 0 1-.251-.326.292.292 0 0 1 .58.076" mask="url(#b)"/>
            <path fill="#BD202E" d="M9.068 11.942a.315.315 0 0 1-.354.269.313.313 0 1 1 .083-.62c.173.023.294.18.271.351M13.465 6.617a.235.235 0 0 1-.264.2.233.233 0 1 1 .062-.462c.129.017.22.135.202.262" mask="url(#b)"/>
            <path fill="#C2986C" d="M16.401 5.737a.35.35 0 0 1-.273.416c-.191.04-.494-.098-.534-.288-.04-.19.196-.358.387-.399.191-.04.38.081.42.271" mask="url(#b)"/>
            <path fill="#019447" d="M8.819 10.91c-.033-.017-.61-.33-.667-.984-.057-.653.255-.745.255-.745.171.802.873.654.733 1.457-.044.252-.084.335-.084.335l-.298-.432.191.44-.13-.07zM9.404 9.31c.007-.027.12-.498.603-.737.482-.24.449-.173.449-.173s-.162.878-.777 1.035c-.2.051-.27.049-.27.049l.262-.327-.292.26.025-.107zM9.853 3.398c-.008-.027-.146-.492.152-.937.299-.445.303-.371.303-.371s.3.842-.154 1.28c-.147.144-.21.177-.21.177l.063-.414-.122.37-.032-.105z" mask="url(#b)"/>
            <path fill="#BD202E" d="M11.853 5.59s-.57-.178-1.31.457c-.484.416-1.39.448-1.278.851.112.404.493.67.937.57.444-.1 1.49.12 1.717.138.227.017.666-.417.737-.82.072-.405-.139-1.146-.803-1.196" mask="url(#b)"/>
            <path fill="#991B28" d="M12.107 6.97a.548.548 0 0 1-.765.076.536.536 0 0 1-.078-.758.548.548 0 0 1 .766-.076.535.535 0 0 1 .077.758" mask="url(#b)"/>
            <path fill="#BD202E" d="M10.65 11.609s-1.075-.241-1.207-.39c-.131-.15-.125.082-.11.085.016.004.329.459.71.624.288.125.463.196.617.031.115-.121.19-.243-.01-.35" mask="url(#b)"/>
            <path fill="#F79521" d="M8.17 6.32s-.836.43-.885.907c-.042.413.541.3.541.3s.71-.087.908-.237c.134-.102.489-.445.094-.902-.212-.245-.659-.069-.659-.069" mask="url(#b)"/>
            <path fill="#FAB042" d="M8.17 6.319s-.84.407-.898.844c-.05.379.533.265.533.265s.709-.093.908-.233c.137-.096.496-.416.111-.826-.207-.22-.655-.05-.655-.05" mask="url(#b)"/>
            <path fill="#F79521" d="M8.814 6.689a.311.311 0 0 1-.608.128.311.311 0 0 1 .608-.128" mask="url(#b)"/>
            <path fill="#991B28" d="M5.919 7.211s.345.801.769.878c.366.066.293-.482.293-.482s-.046-.663-.17-.855c-.085-.132-.375-.482-.8-.146-.23.18-.092.605-.092.605" mask="url(#b)"/>
            <path fill="#019447" d="M6.246 6.48s-.012-.125.084-.181c.096-.056.193-.04.193-.04s.008.21-.277.22" mask="url(#b)"/>
            <path fill="#991B28" d="M9.38 6.629s.033.311.4.484c.366.173 1.745.159 1.92.205.176.046.495-.032.63-.21.136-.18.28-.588.315-.634.033.299-.022.468-.022.468s-.074.211-.24.413c-.114.138-.166.3-.416.296-.25-.004-.222-.038-.47.013-.249.051-.65-.04-.93-.113-.279-.073-.662.032-.856-.058-.646-.298-.455-.76-.455-.76l.125-.104z" mask="url(#b)"/>
            <path fill="#C2986C" d="M7.863 8.501c.006-.024-.255-.683.41-.77.521-.068.731.272 1.06.303.33.032.81-.165.81-.165s.188-.191.364-.146c.177.044.198.295.037.371-.16.076-.277.039-.33.05-.054.011-.729 0-.878.174-.15.174-.492.51-.937.535-.525.029-.536-.352-.536-.352" mask="url(#b)"/>
            <path fill="#019447" d="M9.796 14.46c-1.447 0-2.912-.48-4.26-1.426-3.285-2.309-1.697-7.211-.69-9.53L.4 3.315.478 1.54l7.235.308-.689 1.251c-.035.063-3.402 6.41-.45 8.486 1.744 1.226 3.723 1.428 5.426.557 1.636-.837 2.693-2.478 2.693-4.18h1.793c0 2.36-1.438 4.62-3.663 5.758a6.608 6.608 0 0 1-3.027.74M11.822 16.392a.585.585 0 0 1-.587-.582c0-.321.263-.582.587-.582.325 0 .588.26.588.582a.585.585 0 0 1-.588.582m.017-1.771c-.663 0-1.2.532-1.2 1.19 0 .656.537 1.189 1.2 1.189.664 0 1.201-.533 1.201-1.19 0-.657-.537-1.19-1.2-1.19M3.562 14.013a.585.585 0 0 1-.587-.582c0-.322.263-.583.587-.583.325 0 .588.261.588.583a.585.585 0 0 1-.588.582m0-1.772c-.663 0-1.2.532-1.2 1.19 0 .657.537 1.19 1.2 1.19.664 0 1.201-.533 1.201-1.19 0-.658-.537-1.19-1.2-1.19" mask="url(#b)"/>
            <path fill="#FEFEFE" d="M9.328 5.016s.48.197.53.374c.049.177.397.335.397.335l-.095.125s-.284-.219-.346-.405c-.045-.132-.486-.429-.486-.429" mask="url(#b)"/>
            <path fill="#C2986C" d="M5.833 9.97a.403.403 0 0 1 .246-.36c.13-.054.313-.07.54.057.482.271.464.659.681.731.217.073.583.085.742.307.158.223.17.939-.224.933-.394-.005-.668-.765-.9-.854-.23-.09-.688-.062-.968-.377-.105-.12-.123-.3-.117-.438" mask="url(#b)"/>
            <path fill="#FAB042" d="M11.657 8.676l.161 1.037.075.476.106.683-2.23-.893.445-.307.387-.268z" mask="url(#b)"/>
            <path fill="#F79521" d="M11.999 10.872l-.115.711-2.219-1.175.103-.43.139-.029.966.426a.338.338 0 0 0 .381.469.34.34 0 0 0 .242-.194l.503.222zM11.818 9.713l.075.476h-.002a.244.244 0 0 1-.288-.185.242.242 0 0 1 .187-.286c.01-.002.02-.005.028-.005M11.55 9.222a.13.13 0 0 1-.256.054.129.129 0 0 1 .101-.153.13.13 0 0 1 .155.1M10.693 9.549a.244.244 0 0 1-.191.29.249.249 0 0 1-.288-.168l.387-.267c.044.034.08.085.092.145" mask="url(#b)"/>
            <path fill="#DA8127" d="M11.496 10.65a.34.34 0 0 1-.242.194.34.34 0 0 1-.381-.469l.623.275z" mask="url(#b)"/>
            <path fill="#F79521" d="M11.517 10.443a.334.334 0 0 1-.021.207l-.623-.275a.34.34 0 0 1 .24-.192.34.34 0 0 1 .404.26" mask="url(#b)"/>
            <path fill="#FAB042" d="M11.132 4.268l.39-.13.179-.059.256-.085-.198.904-.148-.149-.128-.129z" mask="url(#b)"/>
            <path fill="#F79521" d="M11.957 3.994l.282-.003-.308.917-.172-.01-.02-.051.1-.394a.135.135 0 0 0 .082-.005.13.13 0 0 0-.016-.25l.052-.204zM11.522 4.139l.179-.06a.093.093 0 0 1-.053.122.095.095 0 0 1-.126-.062M11.35 4.272a.05.05 0 0 1 .038.093.05.05 0 0 1-.066-.027.05.05 0 0 1 .028-.066M11.532 4.576c.05-.02.105.004.125.053a.095.095 0 0 1-.046.12l-.129-.13a.1.1 0 0 1 .05-.043" mask="url(#b)"/>
            <path fill="#DA8127" d="M11.905 4.199a.13.13 0 0 1 .016.249.133.133 0 0 1-.082.005l.066-.254z" mask="url(#b)"/>
            <path fill="#F79521" d="M11.823 4.205a.136.136 0 0 1 .082-.006l-.066.254a.13.13 0 0 1-.016-.249" mask="url(#b)"/>
            <path fill="#019447" d="M.998.047L.771 4.61.998.047zM1.542 4.646L0 4.571.227.01 1.77.085zM3.493.172l-.227 4.561.227-4.561zM4.037 4.771l-1.542-.075.227-4.562L4.264.21zM31.5 3.9a1.416 1.416 0 0 1-1.102 1.68 1.43 1.43 0 0 1-1.695-1.091 1.416 1.416 0 0 1 1.101-1.68A1.429 1.429 0 0 1 31.5 3.9" mask="url(#b)"/>
        </g>
    </g>
</svg>
