<svg xmlns="http://www.w3.org/2000/svg" width="32" height="32" viewBox="0 0 32 32">
    <defs>
        <linearGradient id="a" x1="92.48%" x2="-17.47%" y1="49.741%" y2="51.797%">
            <stop offset="0%" stop-color="#AF11FF"/>
            <stop offset="24.566%" stop-color="#DB19B6"/>
            <stop offset="39.568%" stop-color="#ED1C99"/>
            <stop offset="52%" stop-color="#EE2294"/>
            <stop offset="59%" stop-color="#EF3285"/>
            <stop offset="66%" stop-color="#F24E6E"/>
            <stop offset="73%" stop-color="#F6734C"/>
            <stop offset="83.045%" stop-color="#FBA422"/>
            <stop offset="100%" stop-color="#FEBF0A"/>
        </linearGradient>
    </defs>
    <g fill="none" fill-rule="evenodd" transform="translate(-7 -7)">
        <circle cx="23" cy="23" r="16" fill="url(#a)" transform="rotate(-45 23 23)"/>
        <path fill="#FFF" fill-rule="nonzero" d="M27.455 14h-8.91A4.545 4.545 0 0 0 14 18.545v8.91A4.545 4.545 0 0 0 18.545 32h8.91A4.545 4.545 0 0 0 32 27.455v-8.91A4.545 4.545 0 0 0 27.455 14zm2.59 13.455c0 1.43-1.16 2.59-2.59 2.59h-8.91a2.589 2.589 0 0 1-2.59-2.59v-8.91c0-1.43 1.16-2.59 2.59-2.59h8.91c1.43 0 2.59 1.16 2.59 2.59v8.91zm-2.257-8.131a1.096 1.096 0 1 1 1.096-1.096 1.104 1.104 0 0 1-1.096 1.096zM23 18.366a4.634 4.634 0 1 0 0 9.268 4.634 4.634 0 0 0 0-9.268zm0 7.312a2.678 2.678 0 1 1 0-5.356 2.678 2.678 0 0 1 0 5.356z"/>
    </g>
</svg>
