<svg xmlns="http://www.w3.org/2000/svg" width="32" height="32" viewBox="0 0 32 32">
    <g fill="none" fill-rule="evenodd" transform="translate(-6 -6)">
        <circle cx="22" cy="22" r="16" fill="#50ABF1" transform="rotate(-45 22 22)"/>
        <path fill="#FFF" d="M30.173 19.494c0 .137.007.274.007.412.002 3.68-2.089 7.068-5.456 8.843-3.367 1.775-7.477 1.654-10.724-.315 3.186.455 5.429-1.482 5.429-1.482-2.84-.21-3.398-2.471-3.398-2.471 1.004.159 1.63-.065 1.63-.065-3.193-.723-2.921-3.52-2.921-3.52.74.426 1.593.455 1.593.455-2.816-2.378-1.05-4.683-1.05-4.683 2.96 3.426 7.31 3.664 7.589 3.671a3.535 3.535 0 0 1-.091-.802c.002-1.451.929-2.755 2.339-3.289 1.41-.533 3.018-.19 4.056.868l.544-.16a12.897 12.897 0 0 0 1.797-.715c-.181 1.034-1.51 1.908-1.608 1.966a.007.007 0 0 0-.008.007h.008c1.034-.1 2.091-.52 2.091-.52-.317.636-1.623 1.64-1.827 1.8z"/>
    </g>
</svg>
