<svg xmlns="http://www.w3.org/2000/svg" xmlns:xlink="http://www.w3.org/1999/xlink" width="38" height="35" viewBox="0 0 38 35">
    <defs>
        <path id="a" d="M.007.087h37.956v24.389H.007z"/>
    </defs>
    <g fill="none" fill-rule="evenodd">
        <path fill="#FFF" d="M17.219 33.158h4.156v-6.14h-4.156z"/>
        <path fill="#162C53" d="M20.78 32.544H17.22a.604.604 0 0 1-.594-.614v-5.527c0-.339.266-.614.594-.614h3.562c.328 0 .594.275.594.614v5.527c0 .34-.266.614-.594.614zm-2.968-1.228h2.375v-4.299h-2.375v4.299z"/>
        <g transform="translate(0 3.07)">
            <mask id="b" fill="#fff">
                <use xlink:href="#a"/>
            </mask>
            <path fill="#00E7FF" d="M35.506.729c1.007 0 1.824.829 1.824 1.85v19.404c0 1.022-.817 1.851-1.824 1.851H2.457c-1.007 0-1.824-.829-1.824-1.851V2.58c0-1.022.817-1.851 1.824-1.851" mask="url(#b)"/>
            <path fill="#162C53" d="M35.506 24.476H2.457C1.102 24.476 0 23.358 0 21.983V2.58C0 1.206 1.102.087 2.457.087c.35 0 .633.287.633.642a.637.637 0 0 1-.633.642c-.657 0-1.192.542-1.192 1.209v19.403c0 .667.535 1.21 1.192 1.21h33.049c.657 0 1.192-.543 1.192-1.21V2.58c0-.667-.535-1.21-1.192-1.21a.637.637 0 0 1-.633-.641c0-.355.283-.642.633-.642 1.354 0 2.457 1.119 2.457 2.493v19.403c0 1.375-1.103 2.493-2.457 2.493z" mask="url(#b)"/>
        </g>
        <path fill="#FFF" d="M13.656 33.772h10.688V31.93H13.656z"/>
        <path fill="#162C53" d="M23.75 35h-9.5a.604.604 0 0 1-.594-.614v-1.842c0-.34.266-.614.594-.614h9.5c.328 0 .594.274.594.614v1.842c0 .34-.266.614-.594.614zm-8.906-1.228h8.312v-.614h-8.312v.614z"/>
        <path fill="#FFF" d="M5.344 12.28h27.312V1.229H5.344z"/>
        <path fill="#162C53" d="M32.036 12.28H5.964a.634.634 0 0 1-.62-.646V.646c0-.357.278-.646.62-.646h26.072c.342 0 .62.29.62.646v10.988a.634.634 0 0 1-.62.647zm-25.45-1.292h24.829V1.293H6.585v9.695z"/>
        <path fill="#FFF" d="M5.344 27.632h27.312V11.667H5.344z"/>
        <path fill="#162C53" d="M32.036 28.86H5.964c-.342 0-.62-.296-.62-.66V11.712c0-.364.278-.66.62-.66h26.072c.342 0 .62.296.62.66V28.2c0 .364-.278.66-.62.66zm-25.45-1.32h24.829V12.373H6.585V27.54z"/>
        <path fill="#7ED321" d="M19.594 5.22c0 1.186-.93 2.148-2.078 2.148-1.148 0-2.078-.962-2.078-2.149s.93-2.149 2.078-2.149c1.147 0 2.078.962 2.078 2.15z"/>
        <path fill="#162C53" d="M17.219 7.368c-1.31 0-2.375-1.24-2.375-2.763 0-1.524 1.065-2.763 2.375-2.763s2.375 1.24 2.375 2.763c0 1.524-1.066 2.763-2.375 2.763zm0-4.144c-.655 0-1.187.62-1.187 1.381s.532 1.382 1.187 1.382 1.187-.62 1.187-1.382c0-.761-.532-1.381-1.187-1.381z"/>
        <path fill="#F79521" d="M20.847 9.21a.518.518 0 0 1-.373-.16l-1.32-1.364a.559.559 0 0 1 0-.772.515.515 0 0 1 .747 0l1.32 1.365a.559.559 0 0 1 0 .772.518.518 0 0 1-.374.16z"/>
        <path fill="#FFF" d="M12.469 14.123l2.024 7.368h11.47l1.35-6.14h-14.17"/>
        <path fill="#019447" d="M24.863 22.105H14.35a.627.627 0 0 1-.6-.499l-1.855-7.894c-.083-.352.119-.71.45-.798.33-.087.667.126.75.479l.192.817H26.1c.185 0 .361.089.479.24a.688.688 0 0 1 .128.547l-1.237 6.58a.63.63 0 0 1-.607.528zm-10.03-1.315h9.523l.99-5.264h-11.75l1.236 5.264zM17.813 23.947c0 .678-.532 1.228-1.188 1.228-.656 0-1.188-.55-1.188-1.228 0-.678.532-1.228 1.188-1.228.656 0 1.188.55 1.188 1.228zM23.75 23.947c0 .678-.532 1.228-1.188 1.228-.656 0-1.187-.55-1.187-1.228 0-.678.531-1.228 1.187-1.228s1.188.55 1.188 1.228z"/>
        <path fill="#019447" d="M26.662 19.65H14.306c-.359 0-.65-.413-.65-.922 0-.51.291-.921.65-.921h12.356c.36 0 .65.412.65.921 0 .51-.29.921-.65.921zM13.063 15.35h-1.781c-.328 0-.595-.412-.595-.92 0-.51.267-.921.595-.921h1.78c.328 0 .594.411.594.92 0 .51-.266.922-.593.922z"/>
    </g>
</svg>
